<?xml version="1.0" standalone="no"?>
<!DOCTYPE svg PUBLIC "-//W3C//DTD SVG 1.1//EN" "http://www.w3.org/Graphics/SVG/1.1/DTD/svg11.dtd" >
<svg xmlns="http://www.w3.org/2000/svg">
<metadata></metadata>
<defs>
<font id="kanitextralight_italic" horiz-adv-x="0" >
<font-face units-per-em="2048" ascent="1536" descent="-512" />
<missing-glyph horiz-adv-x="798" />
<glyph unicode="fi" horiz-adv-x="1011" d="M139 0l185 877h-150l21 94h149l31 141q31 145 137 228t264 83q137 0 203 -32l-21 -91q-25 14 -72.5 21.5t-101.5 7.5q-137 0 -204.5 -51t-92.5 -164l-30 -143h524l-205 -971h-112l184 877h-412l-184 -877h-113z" />
<glyph unicode="fl" horiz-adv-x="1011" d="M139 0l185 877h-150l21 94h149l31 141q31 147 134 229t267 82q123 0 207 -32h88l-295 -1391h-112l184 877h-412l-184 -877h-113zM457 971h411l70 329q-61 29 -154 29q-133 0 -203.5 -52t-93.5 -163z" />
<glyph unicode="&#xe24;&#xe45;" horiz-adv-x="1742" d="M147 133q0 27 7 53l65 312q16 82 72.5 140t144.5 83l-229 53l35 164q98 80 239.5 134t304.5 54q168 0 265 -53q68 25 150.5 39t162.5 14q164 0 240.5 -58t76.5 -187q0 -68 -16 -140l-227 -1069h-113l225 1059q16 78 17 131q0 86 -54.5 126t-189.5 40q-90 0 -193 -22 q47 -66 48 -166q0 -55 -13 -117l-225 -1051h-113l226 1057q12 61 12 107q0 104 -70.5 148t-230.5 44q-125 0 -243 -38t-187 -99l-12 -57l233 -54l-20 -98q-172 -39 -203 -190l-62 -285q-6 -31 -6 -53q0 -33 19.5 -46.5t68.5 -13.5h121l-18 -94h-164q-70 0 -107 35t-37 98z " />
<glyph unicode="&#xe26;&#xe45;" horiz-adv-x="1816" d="M37 0l18 94h88q51 0 81 26.5t42 84.5l62 293q18 86 62 142t126 81l-235 53l34 164q98 80 239.5 134t305.5 54q168 0 264 -53q68 25 151 39t163 14q164 0 240.5 -58t76.5 -187q0 -68 -16 -140l-228 -1069h-112l225 1059q18 84 18 139q0 84 -54 121t-191 37q-90 0 -193 -22 q47 -66 47 -166q0 -55 -12 -117l-225 -1051h-113l225 1057q12 61 13 107q0 104 -71 148t-230 44q-125 0 -243 -38t-187 -99l-13 -57l240 -54l-21 -98q-80 -20 -117.5 -62t-56.5 -128l-63 -291q-20 -96 -77.5 -148.5t-145.5 -52.5h-117z" />
<glyph unicode=" "  horiz-adv-x="798" />
<glyph unicode="&#x09;" horiz-adv-x="798" />
<glyph unicode="&#xa0;" horiz-adv-x="798" />
<glyph unicode="!" horiz-adv-x="350" d="M31 0l20 98h125l-20 -98h-125zM113 299l137 707l65 313h113l-66 -313l-159 -707h-90z" />
<glyph unicode="&#x22;" horiz-adv-x="608" d="M238 981l71 338h109l-96 -338h-84zM512 981l72 338h108l-96 -338h-84z" />
<glyph unicode="#" horiz-adv-x="1421" d="M109 0l200 383h-198l18 84h223l201 381h-246l19 86h272l203 385h102l-203 -385h424l203 385h105l-203 -385h194l-18 -86h-221l-201 -381h244l-19 -84h-270l-201 -383h-102l201 383h-426l-201 -383h-100zM455 467h424l200 381h-424z" />
<glyph unicode="$" horiz-adv-x="1132" d="M70 37l22 100q152 -61 359 -61l118 553l-4 2q-172 43 -253 109.5t-81 170.5q0 39 9 74q33 154 150.5 246t328.5 106l35 158h94l-33 -156q94 -2 180 -17t135 -32l-20 -100q-137 51 -317 51l-113 -532q178 -47 257 -119t79 -178q0 -41 -8 -76q-35 -164 -153 -252t-331 -100 l-32 -160h-95l33 156q-231 2 -360 57zM342 922q0 -68 55.5 -110t192.5 -81l108 506q-152 -14 -238.5 -74.5t-109.5 -177.5q-8 -31 -8 -63zM545 78q153 12 239 74.5t113 183.5q6 35 6 59q0 78 -57.5 124t-188.5 85z" />
<glyph unicode="%" horiz-adv-x="1423" d="M221 0l983 1319h107l-983 -1319h-107zM242 961q0 41 8 75q63 303 340 303q104 0 160.5 -56t56.5 -157q0 -35 -10 -90q-29 -131 -110 -204.5t-222 -73.5q-111 0 -167 54t-56 149zM328 965q0 -61 35.5 -93t119.5 -32q92 0 149.5 51t78.5 145q10 43 10 90q0 68 -36 98.5 t-114 30.5q-94 0 -152.5 -53t-82.5 -166q-8 -35 -8 -71zM725 182q0 41 8 76q63 303 340 303q104 0 160.5 -56t56.5 -157q0 -35 -10 -90q-29 -131 -109.5 -204.5t-222.5 -73.5q-110 0 -166.5 54t-56.5 148zM811 186q0 -61 36 -93t120 -32q92 0 149.5 51.5t77.5 145.5 q10 43 10 90q0 68 -35.5 98.5t-113.5 30.5q-94 0 -152.5 -53t-83.5 -166q-8 -35 -8 -72z" />
<glyph unicode="&#x26;" horiz-adv-x="1335" d="M86 236q0 20 8 65q27 133 132.5 231.5t291.5 192.5q-72 82 -106.5 141.5t-34.5 128.5q0 29 6 62q27 123 122 202.5t245 79.5q115 0 179 -56t64 -155q0 -39 -8 -71q-23 -106 -98.5 -184t-220.5 -164l305 -398q57 86 82 203l8 41h94l-8 -39q-33 -158 -123 -270l147 -191 l-79 -61l-138 174q-90 -94 -217 -141t-282 -47q-172 0 -270.5 68.5t-98.5 187.5zM197 250q0 -90 72.5 -137t203.5 -47q268 -1 426 167l-326 422q-172 -82 -259 -158.5t-111 -193.5q-6 -27 -6 -53zM473 1008q0 -41 16.5 -77t49 -77t69.5 -86q137 76 197.5 133t81.5 152 q8 49 8 67q0 129 -166 129q-100 0 -165.5 -55t-84.5 -141q-6 -25 -6 -45z" />
<glyph unicode="'" horiz-adv-x="333" d="M238 981l71 338h109l-96 -338h-84z" />
<glyph unicode="(" horiz-adv-x="598" d="M129 317q0 150 33 304q47 225 158.5 434t289.5 334h129q-358 -252 -467 -768q-35 -162 -34 -293q0 -299 174 -475h-129q-154 151 -154 464z" />
<glyph unicode=")" horiz-adv-x="598" d="M-43 -147q184 131 298 323.5t167 444.5q33 152 33 292q0 299 -170 476h129q154 -154 153 -465q0 -152 -32 -303q-47 -227 -159 -436.5t-290 -331.5h-129z" />
<glyph unicode="*" horiz-adv-x="862" d="M252 768l242 225l-232 103l53 75l217 -112l48 260h96l-64 -260l265 112l22 -79l-281 -105l152 -223l-80 -55l-135 239l-238 -239z" />
<glyph unicode="+" horiz-adv-x="987" d="M131 481l21 92h331l70 332h96l-69 -332h333l-20 -92h-334l-67 -319h-97l68 319h-332z" />
<glyph unicode="," horiz-adv-x="387" d="M-23 -246l125 338h109l-150 -338h-84z" />
<glyph unicode="-" horiz-adv-x="987" d="M131 481l21 92h761l-20 -92h-762z" />
<glyph unicode="." horiz-adv-x="333" d="M31 0l20 104h109l-21 -104h-108z" />
<glyph unicode="/" horiz-adv-x="817" d="M31 0l766 1356h112l-766 -1356h-112z" />
<glyph unicode="0" horiz-adv-x="1308" d="M139 416q0 102 25 219q74 348 237.5 526t456.5 178q219 0 321.5 -106.5t102.5 -312.5q0 -123 -35 -285q-66 -311 -234.5 -483t-445.5 -172q-213 0 -320.5 114.5t-107.5 321.5zM250 420q0 -166 80 -255t258 -89q221 0 358 150.5t191 408.5q37 178 37 283q0 162 -79 242.5 t-259 80.5q-227 0 -361.5 -152.5t-200.5 -453.5q-25 -117 -24 -215z" />
<glyph unicode="1" horiz-adv-x="585" d="M238 0l260 1229l-215 -35l20 94l332 51l-285 -1339h-112z" />
<glyph unicode="2" horiz-adv-x="1021" d="M31 0l14 70q70 121 185.5 225t281.5 225q143 104 219 171t118 132.5t58 149.5q10 51 11 86q0 88 -62.5 135t-208.5 47q-160 0 -313 -55l20 102q68 23 158 37t166 14q168 0 259 -71.5t91 -202.5q0 -37 -10 -92q-20 -98 -71.5 -175t-124 -141.5t-197.5 -158.5l-60 -45 q-143 -104 -233 -184.5t-152 -178.5h666l-19 -90h-796z" />
<glyph unicode="3" horiz-adv-x="1036" d="M37 31l20 100q139 -55 312 -55q193 0 299 67.5t137 212.5q8 33 8 72q0 98 -73.5 147.5t-213.5 49.5h-180l31 88h151q160 0 256.5 72.5t124.5 205.5q10 47 11 76q0 88 -70 131t-225 43q-158 0 -318 -55l21 100q59 23 152 38t177 15q186 0 279.5 -70.5t93.5 -193.5 q0 -37 -10 -84q-23 -113 -101.5 -204t-203.5 -119q104 -25 156.5 -88.5t52.5 -151.5q0 -39 -9 -72q-39 -186 -184 -281t-373 -95q-90 0 -180 14t-141 37z" />
<glyph unicode="4" horiz-adv-x="1097" d="M55 317l21 97l899 905h104l-192 -907h143l-20 -95h-144l-65 -317h-113l66 317h-699zM184 410h600l164 770z" />
<glyph unicode="5" horiz-adv-x="1036" d="M43 31l20 102q137 -57 314 -57q174 0 288.5 78.5t147.5 232.5q12 61 12 109q0 96 -63.5 141t-214.5 45h-373l21 96l149 541h678l-31 -92h-573l-125 -453h272q186 0 278.5 -67.5t92.5 -206.5q0 -51 -12 -113q-41 -197 -184.5 -302t-374.5 -105q-95 0 -184 13t-138 38z" />
<glyph unicode="6" horiz-adv-x="1148" d="M111 305q0 78 20 168l68 326q53 260 214.5 400t407.5 140q168 0 285 -41l-21 -98q-106 41 -282 41q-199 0 -325 -114.5t-167 -309.5l-24 -119q96 61 204.5 93t196.5 32q182 0 273.5 -73.5t91.5 -217.5q0 -63 -15 -129q-41 -199 -180 -311t-371 -112q-376 -1 -376 325z M215 305q0 -119 70.5 -176t220.5 -57q176 0 284.5 88t141.5 241q14 59 14 121q0 104 -65.5 157.5t-221.5 53.5q-98 0 -201.5 -34.5t-189.5 -90.5l-39 -178q-14 -63 -14 -125z" />
<glyph unicode="7" horiz-adv-x="1013" d="M209 0l778 1227h-717l19 92h829l-18 -92l-778 -1227h-113z" />
<glyph unicode="8" horiz-adv-x="1177" d="M92 252q0 37 10 88q27 127 117 218t227 124q-92 25 -136 84t-44 141q0 39 8 72q37 170 166 265t351 95q184 0 277 -70.5t93 -199.5q0 -39 -10 -90q-49 -238 -315 -320q117 -27 172 -86t55 -151q0 -43 -8 -82q-78 -360 -555 -360q-199 0 -303.5 68.5t-104.5 203.5z M197 266q0 -98 77.5 -146t245.5 -48q373 0 430 268q10 47 11 76q0 78 -52.5 118.5t-175.5 65.5l-178 39q-145 -29 -233.5 -98.5t-116.5 -198.5q-8 -35 -8 -76zM373 918q0 -150 180 -189l160 -33q153 35 232 98.5t104 184.5q8 35 8 76q0 96 -69.5 144t-217.5 48 q-162 0 -262 -68.5t-129 -199.5q-6 -33 -6 -61z" />
<glyph unicode="9" horiz-adv-x="1148" d="M156 18l22 101q104 -43 285 -43q199 0 322.5 115.5t164.5 308.5l25 114q-96 -63 -199.5 -94t-200.5 -31q-178 0 -272 77t-94 225q0 43 14 118q41 201 181.5 315.5t375.5 114.5q184 0 278.5 -77.5t94.5 -243.5q0 -80 -20 -174l-70 -324q-53 -254 -211 -397t-406 -143 q-179 -1 -290 38zM311 797q0 -106 69 -161.5t226 -55.5q199 0 389 125l39 184q16 78 17 133q0 115 -69 170t-220 55q-178 0 -291 -90t-145 -246q-14 -72 -15 -114z" />
<glyph unicode=":" horiz-adv-x="335" d="M43 61l23 107h110l-22 -107h-111zM174 680l23 106h110l-22 -106h-111z" />
<glyph unicode=";" horiz-adv-x="389" d="M-10 -193l125 338h108l-149 -338h-84zM229 680l23 106h108l-22 -106h-109z" />
<glyph unicode="&#x3c;" horiz-adv-x="1118" d="M147 551l19 92l983 418l-25 -113l-850 -354l701 -356l-25 -105z" />
<glyph unicode="=" horiz-adv-x="999" d="M102 342l19 86h774l-18 -86h-775zM164 627l16 86h774l-16 -86h-774z" />
<glyph unicode="&#x3e;" horiz-adv-x="1118" d="M57 133l25 113l854 356l-705 354l25 105l803 -418l-19 -92z" />
<glyph unicode="?" horiz-adv-x="999" d="M272 0l21 98h125l-21 -98h-125zM279 1169l20 99q70 33 166 52t203 19q174 0 264 -68.5t90 -195.5q0 -53 -10 -94q-16 -74 -54 -131t-89.5 -99t-137.5 -104q-29 -20 -43 -29q-78 -55 -117 -86.5t-66.5 -75.5t-41.5 -110l-8 -43h-113l10 49q23 109 88.5 176.5t182.5 147.5 l34 24q113 78 169.5 135.5t74.5 143.5q10 51 10 84q0 90 -66.5 134t-219.5 44q-182 0 -346 -72z" />
<glyph unicode="@" horiz-adv-x="1572" d="M88 190q0 82 23 195q147 690 862 690q264 0 397 -103.5t133 -299.5q0 -78 -16 -152q-43 -207 -148.5 -319.5t-287.5 -112.5h-37q-147 -129 -369 -129q-115 0 -184.5 48t-69.5 140q0 29 6 56q25 121 114 192.5t255 71.5h291l14 68q14 68 14 100q0 66 -46 90.5t-169 24.5 q-137 0 -266 -43l17 81q117 45 290 46q133 0 199 -48.5t66 -150.5q0 -43 -13 -98l-76 -361q121 0 192 82t110 262q18 84 18 152q0 158 -107.5 233.5t-347.5 75.5q-303 0 -489.5 -142.5t-253.5 -455.5q-23 -109 -23 -186q0 -205 126 -290t362 -85q225 0 362 39l-20 -94 q-162 -37 -359 -37q-262 0 -415.5 108.5t-153.5 351.5zM485 152q0 -59 47.5 -86t145.5 -27q96 0 173 30.5t142 96.5l45 219h-280q-123 0 -185.5 -45t-80.5 -137q-6 -27 -7 -51z" />
<glyph unicode="A" horiz-adv-x="1366" d="M31 0l778 1319h143l219 -1319h-108l-66 385h-618l-225 -385h-123zM424 477h567l-125 752z" />
<glyph unicode="B" horiz-adv-x="1267" d="M72 0l278 1319h580q154 0 230.5 -63.5t76.5 -184.5q0 -39 -10 -96q-25 -109 -86.5 -184.5t-149.5 -112.5q170 -39 170 -211q0 -51 -10 -94q-41 -193 -154.5 -283t-306.5 -90h-618zM203 88h495q147 0 229.5 66.5t114.5 222.5q10 51 11 84q0 88 -62.5 132t-206.5 44h-465z M338 725h477q250 0 303 244q12 55 12 102q0 80 -54 119t-189 39h-443z" />
<glyph unicode="C" horiz-adv-x="1206" d="M139 422q0 88 23 201q74 342 254 529t504 187q207 0 362 -59l-20 -100q-152 61 -355 61q-272 0 -421.5 -158.5t-213.5 -459.5q-24 -102 -24 -190v-7q0 -172 99 -261t319 -89q94 0 192 14t180 41l-20 -100q-176 -51 -387 -51q-248 0 -370 116.5t-122 325.5z" />
<glyph unicode="D" horiz-adv-x="1294" d="M72 0l278 1319h492q221 0 325.5 -93t104.5 -296q0 -117 -35 -281q-51 -233 -127 -373.5t-206 -208t-337 -67.5h-495zM203 90h358q162 0 266.5 46t177 168t119.5 345q39 184 39 291q0 160 -84 223.5t-276 63.5h-359z" />
<glyph unicode="E" horiz-adv-x="1107" d="M72 0l278 1319h862l-18 -92h-750l-110 -522h678l-21 -91h-678l-110 -524h749l-18 -90h-862z" />
<glyph unicode="F" horiz-adv-x="1056" d="M72 0l278 1319h832l-19 -92h-719l-110 -522h643l-21 -91h-643l-129 -614h-112z" />
<glyph unicode="G" horiz-adv-x="1296" d="M139 430q0 86 23 193q74 340 258 528t500 188q209 0 364 -55l-22 -100q-158 57 -353 57q-270 0 -421.5 -159.5t-215.5 -458.5q-24 -109 -24 -198v-7q0 -170 97 -256t319 -86q94 0 192 16.5t172 44.5l98 469h-374l20 90h477l-131 -616q-74 -43 -195.5 -71.5t-291.5 -28.5 q-244 0 -368 118.5t-124 331.5z" />
<glyph unicode="H" horiz-adv-x="1290" d="M72 0l278 1319h113l-129 -614h758l129 614h112l-278 -1319h-113l129 614h-758l-129 -614h-112z" />
<glyph unicode="I" horiz-adv-x="419" d="M72 0l278 1319h113l-279 -1319h-112z" />
<glyph unicode="J" horiz-adv-x="858" d="M-6 27l20 98q45 -23 109.5 -36t132.5 -13q143 0 225 64.5t111 203.5l207 975h112l-206 -981q-37 -178 -146.5 -268t-308.5 -90q-147 0 -256 47z" />
<glyph unicode="K" horiz-adv-x="1198" d="M72 0l278 1319h113l-148 -701l818 701h137l-613 -524l347 -795h-123l-310 721l-286 -248l-101 -473h-112z" />
<glyph unicode="L" horiz-adv-x="1067" d="M72 0l278 1319h113l-260 -1229h729l-19 -90h-841z" />
<glyph unicode="M" horiz-adv-x="1523" d="M72 0l278 1319h125l270 -977l685 977h137l-279 -1319h-110l243 1155l-649 -926h-88l-258 926l-244 -1155h-110z" />
<glyph unicode="N" horiz-adv-x="1343" d="M72 0l278 1319h107l573 -1151l244 1151h112l-278 -1319h-109l-571 1149l-244 -1149h-112z" />
<glyph unicode="O" horiz-adv-x="1409" d="M141 424q0 109 27 229q76 354 253 520t486 166q240 0 357.5 -105.5t117.5 -324.5q0 -111 -30 -256q-72 -338 -249 -505.5t-487 -167.5q-475 0 -475 444zM250 418q0 -178 92 -260t295 -82q244 0 391.5 140t210.5 437q33 145 33 260q0 176 -92.5 252t-294.5 76 q-166 0 -284 -57.5t-197.5 -186.5t-124.5 -344q-29 -139 -29 -235z" />
<glyph unicode="P" horiz-adv-x="1169" d="M72 0l278 1319h524q172 0 259.5 -79t87.5 -220q0 -53 -13 -113q-39 -186 -177 -293.5t-337 -107.5h-403l-107 -506h-112zM309 596h393q168 0 264.5 81t129.5 230q14 72 14 113q0 102 -62.5 154.5t-199.5 52.5h-404z" />
<glyph unicode="Q" horiz-adv-x="1409" d="M141 422q0 106 27 231q76 354 253 520t486 166q240 0 357.5 -105.5t117.5 -324.5q0 -111 -30 -256q-70 -326 -237 -492.5t-456 -178.5q-16 -78 -16 -123q0 -59 31 -86t104 -27q78 0 150 21l-21 -99q-76 -20 -166 -20q-108 0 -157 51t-49 154q0 45 14 131 q-408 31 -408 438zM250 418q0 -178 92 -260t295 -82q244 0 391.5 140t210.5 437q33 145 33 260q0 176 -92.5 252t-294.5 76q-166 0 -284 -57.5t-197.5 -186.5t-124.5 -344q-29 -139 -29 -235z" />
<glyph unicode="R" horiz-adv-x="1212" d="M72 0l278 1319h551q164 0 244 -72.5t80 -206.5q0 -53 -13 -114q-33 -154 -127 -250t-243 -123q39 -20 54 -50t30 -91l90 -412h-115l-90 397q-10 51 -29.5 78t-60.5 40t-117 13h-309l-111 -528h-112zM315 618h406q311 0 379 308q12 59 12 106q0 98 -56.5 146.5 t-181.5 48.5h-430z" />
<glyph unicode="S" horiz-adv-x="1132" d="M70 37l22 100q154 -61 361 -61q197 0 306 61.5t138 198.5q8 45 8 63q0 88 -75.5 137.5t-260.5 94.5q-176 41 -257 107.5t-81 170.5q0 41 9 76q76 354 548 354q102 0 195.5 -15t146.5 -34l-20 -100q-137 51 -322 51q-197 0 -304 -61.5t-134 -194.5q-8 -45 -8 -59 q0 -53 32 -90t100.5 -65t191.5 -58q190 -47 271 -117t81 -174q0 -35 -10 -86q-37 -176 -181.5 -266t-386.5 -90q-237 0 -370 57z" />
<glyph unicode="T" horiz-adv-x="1165" d="M250 1227l18 92h1022l-18 -92h-455l-260 -1227h-113l261 1227h-455z" />
<glyph unicode="U" horiz-adv-x="1357" d="M145 340q0 59 17 137l178 842h113l-181 -854q-14 -66 -14 -127q0 -133 87 -196.5t269 -63.5q199 0 331 94t173 293l180 854h113l-178 -842q-106 -497 -639 -497h-2q-219 0 -333 94t-114 266z" />
<glyph unicode="V" horiz-adv-x="1368" d="M309 1319h111l196 -1219l713 1219h123l-776 -1319h-148z" />
<glyph unicode="W" horiz-adv-x="1740" d="M309 1319h113l22 -1182l543 1049l27 133h92l84 -1182l524 1182h111l-584 -1319h-129l-76 1085l-555 -1085h-143z" />
<glyph unicode="X" horiz-adv-x="1277" d="M31 0l596 651l-316 668h127l273 -588l522 588h125l-598 -668l323 -651h-127l-278 569l-520 -569h-127z" />
<glyph unicode="Y" horiz-adv-x="1277" d="M309 1319h111l256 -727l563 727h123l-645 -825l-105 -494h-112l104 494z" />
<glyph unicode="Z" horiz-adv-x="1163" d="M31 0l14 70l1045 1157h-764l18 92h903l-16 -80l-1036 -1149h802l-18 -90h-948z" />
<glyph unicode="[" horiz-adv-x="681" d="M-14 -203l352 1649h473l-16 -92h-365l-311 -1467h364l-24 -90h-473z" />
<glyph unicode="\" horiz-adv-x="856" d="M317 1356h113l207 -1467h-113z" />
<glyph unicode="]" horiz-adv-x="681" d="M-31 -203l17 90h364l312 1467h-365l25 92h473l-353 -1649h-473z" />
<glyph unicode="^" horiz-adv-x="899" d="M203 813l387 465h94l193 -465h-103l-147 381l-310 -381h-114z" />
<glyph unicode="_" horiz-adv-x="1134" d="M10 -92l21 92h909l-20 -92h-910z" />
<glyph unicode="`" horiz-adv-x="468" d="M326 1393h106l68 -324h-92z" />
<glyph unicode="a" horiz-adv-x="1087" d="M106 293q0 72 19 160q55 258 209.5 398t359.5 140q100 0 169 -23.5t132 -78.5l17 82h112l-204 -971h-95l13 109q-86 -66 -177.5 -97.5t-201.5 -31.5q-353 0 -353 313zM217 301q0 -123 68.5 -176t220.5 -53q192 0 344 131l125 588q-51 53 -112.5 79.5t-153.5 26.5 q-182 0 -305 -114.5t-168 -329.5q-18 -86 -19 -152z" />
<glyph unicode="b" horiz-adv-x="1155" d="M72 0l293 1380h112l-104 -491q162 102 362 102q168 0 258 -81t90 -248q0 -76 -18 -168q-55 -262 -191.5 -388t-353.5 -126q-110 0 -187 30.5t-134 98.5l-33 -109h-94zM227 203q92 -131 287 -131q184 0 289.5 104.5t150.5 317.5q20 102 21 161q0 127 -69.5 184.5 t-219.5 57.5q-186 0 -334 -106z" />
<glyph unicode="c" horiz-adv-x="989" d="M115 326q0 74 18 159q53 250 212 378t392 128q88 0 143.5 -12t110.5 -41l-20 -92q-96 51 -234 51q-195 0 -321.5 -101.5t-171.5 -310.5q-20 -102 -21 -161q0 -131 78 -191.5t252 -60.5q133 0 266 53l-18 -94q-135 -51 -295 -51q-195 0 -293 89t-98 257z" />
<glyph unicode="d" horiz-adv-x="1155" d="M111 311q0 63 20 166q55 258 198.5 386t354.5 128q100 0 175 -23.5t136 -78.5l105 491h112l-292 -1380h-95l13 109q-86 -66 -177.5 -97.5t-201.5 -31.5q-162 0 -255 81.5t-93 249.5zM221 315q0 -125 68.5 -184t216.5 -59q192 0 344 131l125 588q-51 53 -116.5 79.5 t-162.5 26.5q-176 0 -292.5 -103.5t-161.5 -316.5q-20 -102 -21 -162z" />
<glyph unicode="e" horiz-adv-x="1075" d="M113 309q0 76 22 183q104 499 551 499h2q168 0 250 -76.5t82 -205.5q0 -51 -12 -107l-37 -176h-738q-12 -68 -12 -123q0 -125 80 -178t268 -53q135 0 273 51l-19 -92q-137 -51 -297 -51q-213 0 -313 80.5t-100 248.5zM252 514h635l18 92q12 55 13 105q0 92 -57.5 139 t-188.5 47q-184 0 -281.5 -95t-138.5 -288z" />
<glyph unicode="f" horiz-adv-x="694" d="M139 0l185 877h-150l21 94h149l35 164q29 137 117 207.5t227 70.5q88 0 151 -27l-18 -90q-57 23 -125 23q-111 0 -164 -42t-75 -140l-35 -166h270l-27 -94h-264l-184 -877h-113z" />
<glyph unicode="g" horiz-adv-x="1110" d="M115 322q0 70 18 161q53 260 191.5 384t349.5 124q111 0 188.5 -31.5t134.5 -99.5l33 111h94l-206 -977q-35 -164 -169.5 -259t-338.5 -95q-56 0 -125.5 6t-104.5 14l21 98q39 -12 99 -18t110 -6q160 0 263 63.5t130 186.5l24 116q-82 -53 -165.5 -76.5t-188.5 -23.5 q-170 0 -264 78t-94 244zM223 326q0 -125 71 -179.5t226 -54.5q183 0 328 109l121 565q-96 131 -287 131q-184 0 -289.5 -101.5t-148.5 -312.5q-20 -102 -21 -157z" />
<glyph unicode="h" horiz-adv-x="1144" d="M72 0l293 1380h112l-112 -526q92 66 193 101.5t224 35.5q285 0 285 -237q0 -51 -12 -113l-135 -641h-113l135 639q12 59 12 104q0 82 -53 118t-180 36q-96 0 -196.5 -39t-180.5 -104l-160 -754h-112z" />
<glyph unicode="i" horiz-adv-x="552" d="M203 0l184 877h-151l32 94h252l-205 -971h-112zM446 1223l27 123h129l-27 -123h-129z" />
<glyph unicode="j" horiz-adv-x="550" d="M-219 -455l20 93q59 -20 121 -21q113 0 165 42t71 138l229 1080h-151l32 94h252l-250 -1180q-59 -270 -331 -270h-7q-90 0 -151 24zM446 1223l27 123h129l-27 -123h-129z" />
<glyph unicode="k" horiz-adv-x="1036" d="M72 0l293 1380h112l-186 -876l598 467h135l-479 -379l297 -592h-119l-266 528l-193 -151l-80 -377h-112z" />
<glyph unicode="l" horiz-adv-x="503" d="M102 109q0 39 9 77l254 1194h112l-254 -1190q-8 -45 -8 -57q0 -33 16.5 -45t53.5 -12q45 0 94 12l-21 -94q-45 -14 -112 -14q-72 0 -108 29.5t-36 99.5z" />
<glyph unicode="m" horiz-adv-x="1740" d="M72 0l204 971h99l-15 -119q197 139 392 139q100 0 158.5 -38t72.5 -101q195 139 416 139q266 0 266 -229q0 -51 -12 -113l-137 -649h-111l135 639q14 72 14 106q0 84 -50 118t-167 34q-94 0 -183 -31.5t-157 -93.5q0 -68 -16 -137l-133 -635h-109l133 633q16 72 17 119 q0 76 -44 110.5t-145 34.5q-86 0 -182 -39t-176 -102l-160 -756h-110z" />
<glyph unicode="n" horiz-adv-x="1144" d="M72 0l204 971h99l-15 -119q195 139 422 139q285 0 285 -237q0 -51 -12 -113l-135 -641h-113l135 639q14 63 14 115q0 78 -49 110.5t-170 32.5q-104 0 -208.5 -38t-184.5 -103l-160 -756h-112z" />
<glyph unicode="o" horiz-adv-x="1153" d="M113 305q0 86 20 180q53 254 187.5 380t381.5 126q379 0 379 -332q0 -84 -20 -174q-53 -256 -187.5 -380.5t-386.5 -124.5q-192 0 -283 81.5t-91 243.5zM221 309q0 -121 66.5 -177t220.5 -56q190 0 292.5 98t147.5 311q23 102 23 170q0 123 -67.5 180.5t-221.5 57.5 q-188 0 -290.5 -98.5t-147.5 -309.5q-23 -106 -23 -176z" />
<glyph unicode="p" horiz-adv-x="1155" d="M-23 -442l299 1413h95l-13 -111q84 68 175.5 99.5t201.5 31.5q168 0 258 -81t90 -248q0 -80 -20 -175q-106 -507 -549 -507h-2q-102 0 -176 23.5t-135 76.5l-111 -522h-113zM221 180q101 -108 280 -108h3q182 0 292.5 100t155.5 315q20 90 21 168q0 125 -66.5 183.5 t-216.5 58.5q-195 0 -344 -131z" />
<glyph unicode="q" horiz-adv-x="1234" d="M113 313q0 84 20 174q109 504 541 504q111 0 188.5 -31.5t134.5 -99.5l33 111h94l-260 -1225q-10 -47 -10 -74q0 -39 23.5 -55t83.5 -16q33 0 77 12l-18 -94q-51 -14 -109 -15q-82 0 -126 39t-44 117q0 31 11 82l71 338q-84 -53 -169 -76.5t-187 -23.5q-172 0 -263 82.5 t-91 250.5zM223 317q0 -127 69.5 -186t223.5 -59h3q176 0 325 108l125 586q-96 131 -287 131q-186 0 -289.5 -99.5t-148.5 -310.5q-20 -94 -21 -170z" />
<glyph unicode="r" horiz-adv-x="700" d="M72 0l204 971h99l-17 -135q86 51 191.5 92t206.5 63l-19 -92q-96 -23 -210.5 -67t-184.5 -87l-158 -745h-112z" />
<glyph unicode="s" horiz-adv-x="915" d="M61 20l21 101q123 -45 274 -45q143 0 213 39t90 131q6 25 7 45q0 55 -41 82.5t-156 68.5l-49 19q-94 35 -137 55.5t-74 58t-31 97.5q0 18 8 63q27 129 125.5 192.5t284.5 63.5q141 0 252 -35l-23 -100q-111 37 -233 37q-145 0 -212 -36t-83 -120q-4 -14 -4 -41 q0 -55 45 -82.5t172 -70.5q145 -49 207.5 -96.5t62.5 -133.5q0 -35 -8 -67q-57 -266 -422 -266q-84 0 -160.5 11t-128.5 29z" />
<glyph unicode="t" horiz-adv-x="716" d="M174 877l21 94h151l55 254l119 37l-61 -291h280l-26 -94h-275l-131 -621q-10 -47 -10 -76q0 -61 38 -84.5t122 -23.5q57 0 125 22l-19 -90q-71 -24 -153 -24h-7q-106 0 -162.5 50t-56.5 142q0 33 11 80l131 625h-152z" />
<glyph unicode="u" horiz-adv-x="1144" d="M123 242q0 53 12 114l131 615h113l-131 -619q-12 -57 -12 -104q0 -94 57 -135t184 -41q98 0 191.5 37.5t173.5 103.5l159 758h113l-205 -971h-100l14 119q-92 -68 -192.5 -103.5t-220.5 -35.5q-140 0 -213.5 67.5t-73.5 194.5z" />
<glyph unicode="v" horiz-adv-x="1118" d="M236 971h110l143 -877l519 877h120l-583 -971h-135z" />
<glyph unicode="w" horiz-adv-x="1472" d="M236 971h112l31 -856l403 749l23 107h88l84 -856l393 856h113l-457 -971h-115l-84 772l-415 -772h-129z" />
<glyph unicode="x" horiz-adv-x="1081" d="M31 0l471 494l-256 477h123l209 -400l378 400h121l-450 -477l260 -494h-123l-219 418l-393 -418h-121z" />
<glyph unicode="y" horiz-adv-x="1159" d="M123 242q0 53 12 114l131 615h113l-131 -619q-12 -57 -12 -104q0 -94 57 -135t184 -41q98 0 191.5 37.5t173.5 103.5l159 758h113l-207 -977q-23 -106 -102.5 -186t-196 -124t-246.5 -44q-55 0 -124.5 6t-104.5 14l21 98q39 -12 99 -18t109 -6q168 0 286 64.5t147 185.5 l28 135q-92 -68 -192.5 -103.5t-220.5 -35.5q-139 0 -213 67.5t-74 194.5z" />
<glyph unicode="z" horiz-adv-x="980" d="M31 0l14 70l780 807h-581l20 94h715l-16 -78l-777 -801h619l-19 -92h-755z" />
<glyph unicode="{" horiz-adv-x="583" d="M111 569l16 82q86 10 124 56.5t60 146.5l80 379q25 111 84.5 156t171.5 45h66l-19 -93h-49q-68 0 -98.5 -25.5t-44.5 -96.5l-92 -428q-12 -63 -53.5 -116.5t-110.5 -72.5q47 -14 68.5 -51t21.5 -84q0 -29 -6 -53l-86 -412q-8 -45 -8 -55q0 -37 22.5 -52.5t75.5 -15.5h49 l-21 -92h-65q-92 0 -135 29.5t-43 99.5q0 37 8 72l82 379q12 70 12 90q0 51 -25.5 77.5t-84.5 34.5z" />
<glyph unicode="|" horiz-adv-x="337" d="M-23 -246l373 1751h113l-373 -1751h-113z" />
<glyph unicode="}" horiz-adv-x="583" d="M-37 -213l21 92h49q68 0 98.5 25.5t44.5 97.5l88 420q14 63 55 116.5t111 71.5q-47 14 -68.5 52t-21.5 88q0 33 4 49l90 420q8 45 8 55q0 37 -22.5 52t-75.5 15h-49l18 93h66q92 0 135 -30t43 -97q0 -35 -8 -74l-80 -379q-12 -51 -12 -92q0 -49 25.5 -76t84.5 -35 l-16 -82q-88 -10 -126 -57t-58 -145l-82 -379q-23 -111 -83.5 -156t-172.5 -45h-66z" />
<glyph unicode="~" horiz-adv-x="1185" d="M139 516l25 119q47 49 117.5 78.5t146.5 29.5q66 0 119 -20.5t121 -56.5q70 -37 114.5 -53.5t98.5 -16.5q76 0 136 28.5t126 94.5l-25 -119q-47 -49 -114.5 -77.5t-143.5 -28.5q-57 0 -107.5 18t-121.5 55q-68 37 -119 55.5t-106 18.5q-76 0 -138.5 -29.5t-128.5 -95.5z " />
<glyph unicode="&#xa1;" horiz-adv-x="350" d="M23 -25l65 314l160 706h90l-137 -706l-66 -314h-112zM274 1196l21 98h125l-21 -98h-125z" />
<glyph unicode="&#xa2;" horiz-adv-x="989" d="M115 324q0 74 18 161q47 231 188.5 358.5t350.5 143.5l35 160h90l-33 -156q74 -2 124 -14t103 -39l-20 -92q-96 49 -228 51l-176 -825q125 2 252 53l-18 -94q-115 -43 -254 -49l-33 -158h-90l33 158q-172 10 -257 98t-85 244zM223 324q0 -115 60.5 -176.5t193.5 -73.5 l174 817q-160 -18 -264 -119.5t-143 -286.5q-20 -102 -21 -161z" />
<glyph unicode="&#xa3;" horiz-adv-x="1034" d="M31 0l18 92h55q127 0 164 160l84 401h-149l20 92h150l61 287q31 150 136.5 228.5t265.5 78.5q137 0 206 -36l-20 -91q-25 14 -75 23.5t-101 9.5q-133 0 -205 -51t-96 -164l-60 -285h437l-23 -92h-434l-84 -395q-23 -119 -94 -166h571l-18 -92h-809z" />
<glyph unicode="&#xa4;" horiz-adv-x="1169" d="M74 205l198 129q-35 59 -34 139q0 43 8 78q25 121 119 215l-144 131l68 68l143 -138q123 94 264 95q70 0 127.5 -25t96.5 -70l206 138l39 -68l-200 -131q37 -68 36 -145q0 -20 -8 -70q-27 -119 -121 -219l146 -129l-68 -68l-147 135q-121 -92 -262 -92q-139 0 -226 92 l-202 -135zM330 481q0 -96 59.5 -156.5t167.5 -60.5q117 0 217 84t127 203q6 35 6 65q0 96 -60.5 158t-168.5 62q-119 0 -217.5 -83t-122.5 -202q-8 -33 -8 -70z" />
<glyph unicode="&#xa5;" horiz-adv-x="1259" d="M203 225l18 84h334l29 140h-334l18 83h312l-271 787h109l248 -727l555 727h122l-606 -787h314l-19 -83h-334l-28 -140h334l-19 -84h-334l-47 -225h-115l48 225h-334z" />
<glyph unicode="&#xa6;" horiz-adv-x="337" d="M-23 -246l132 615h112l-131 -615h-113zM219 889l131 616h113l-131 -616h-113z" />
<glyph unicode="&#xa7;" horiz-adv-x="1132" d="M70 37l22 100q154 -61 361 -61q195 0 305 61.5t139 198.5q6 31 6 59q0 90 -76.5 137.5t-263.5 94.5q-186 47 -264 102t-78 148q0 16 8 65q14 66 64 129q-12 35 -12 74q0 37 8 69q35 166 173 259.5t374 93.5q102 0 195 -15.5t149 -33.5l-21 -101q-137 51 -321 51 q-193 0 -302.5 -61t-138.5 -195q-6 -31 -6 -57q0 -80 70.5 -126t253.5 -91q137 -35 214 -66.5t112.5 -74.5t35.5 -105q0 -35 -8 -67q-6 -33 -23.5 -73t-39.5 -73q10 -29 10 -71q0 -41 -8 -74q-37 -178 -177.5 -266t-390.5 -88q-237 0 -370 57zM330 891q0 -45 30.5 -76 t95 -53.5t185.5 -52.5q238 -59 301 -154q19 29 29 72q6 25 6 47q0 47 -32 75.5t-96.5 50t-205.5 60.5q-121 33 -187.5 62.5t-95.5 70.5q-18 -25 -26 -61q-4 -14 -4 -41z" />
<glyph unicode="&#xa8;" horiz-adv-x="681" d="M276 1161l25 113h115l-25 -113h-115zM616 1161l25 113h117l-25 -113h-117z" />
<glyph unicode="&#xa9;" horiz-adv-x="1585" d="M156 518q0 72 14 141q41 188 156.5 344t290 246t378.5 90q160 0 285 -70.5t194.5 -193.5t69.5 -274q0 -72 -14 -142q-39 -186 -159 -341.5t-294 -246.5t-372 -91q-160 0 -285 70.5t-194.5 193.5t-69.5 274zM244 516q0 -131 56 -232.5t165.5 -158.5t259.5 -57 q168 0 318.5 77.5t256 213t140.5 300.5q16 78 16 144q0 131 -56.5 232.5t-165 157.5t-259.5 56q-176 0 -326.5 -76.5t-251 -211t-137.5 -302.5q-16 -78 -16 -143zM356 524q0 68 15 133q33 158 122 267.5t211.5 164t260.5 54.5q162 0 252 -58l-17 -81q-104 55 -237 55 q-180 0 -316.5 -101.5t-179.5 -300.5q-18 -82 -18 -149q0 -133 79.5 -193.5t253.5 -60.5q63 0 138 15.5t133 41.5l-19 -84q-59 -27 -136 -42t-157 -15q-180 0 -282.5 93t-102.5 261z" />
<glyph unicode="&#xaa;" horiz-adv-x="712" d="M223 897q0 12 4 37q37 172 248 172h193l8 35q6 29 6 49q0 43 -32 60.5t-115 17.5q-86 0 -173 -29l17 72q86 29 190 28q92 0 144.5 -35.5t52.5 -107.5q0 -23 -6 -51l-74 -354h-76l6 65q-47 -41 -102 -59.5t-125 -18.5q-76 0 -121 30t-45 89zM305 909q0 -35 28.5 -50 t90.5 -15q63 0 112.5 20.5t94.5 65.5l22 110h-186q-76 0 -110.5 -23.5t-47.5 -80.5q-4 -20 -4 -27z" />
<glyph unicode="&#xab;" horiz-adv-x="1189" d="M147 555l15 66l592 376l32 -75l-526 -340l381 -340l-61 -64zM551 555l14 66l592 376l35 -75l-528 -340l383 -340l-64 -64z" />
<glyph unicode="&#xac;" horiz-adv-x="1095" d="M168 653l20 92h871l-92 -434h-97l72 342h-774z" />
<glyph unicode="&#xad;" horiz-adv-x="987" d="M131 481l21 92h761l-20 -92h-762z" />
<glyph unicode="&#xae;" horiz-adv-x="1585" d="M156 518q0 72 14 141q41 188 156.5 344t290 246t378.5 90q160 0 285 -70.5t194.5 -193.5t69.5 -274q0 -72 -14 -142q-39 -186 -159 -341.5t-294 -246.5t-372 -91q-160 0 -285 70.5t-194.5 193.5t-69.5 274zM244 516q0 -131 56 -232.5t165.5 -158.5t259.5 -57 q168 0 318.5 77.5t256 213t140.5 300.5q16 78 16 144q0 131 -56.5 232.5t-165 157.5t-259.5 56q-176 0 -326.5 -76.5t-251 -211t-137.5 -302.5q-16 -78 -16 -143zM436 205l193 911h385q115 0 176 -51t61 -143q0 -39 -8 -74q-23 -106 -90.5 -173t-173.5 -85q27 -16 38 -38 t21 -63l62 -284h-90l-64 280q-8 35 -21.5 52.5t-43 23.5t-88.5 6h-189l-76 -362h-92zM623 647h256q119 0 185 43t89 158q10 47 10 76q0 61 -40 86.5t-132 25.5h-286z" />
<glyph unicode="&#xaf;" horiz-adv-x="792" d="M276 1161l19 86h567l-18 -86h-568z" />
<glyph unicode="&#xb0;" horiz-adv-x="657" d="M291 1206q0 72 35.5 132.5t97 95t133.5 34.5q80 0 128 -47t48 -123q0 -29 -4 -45q-20 -94 -94 -154.5t-170 -60.5q-76 0 -125 47.5t-49 120.5zM375 1217q0 -47 26.5 -73t81.5 -26q66 0 117 50.5t51 119.5q0 45 -27.5 73t-82.5 28q-57 0 -104.5 -39t-57.5 -97 q-4 -25 -4 -36z" />
<glyph unicode="&#xb1;" horiz-adv-x="987" d="M31 0l18 92h762l-18 -92h-762zM137 502l19 92h331l72 332h96l-71 -332h334l-19 -92h-334l-69 -320h-97l70 320h-332z" />
<glyph unicode="&#xb2;" horiz-adv-x="606" d="M190 758l13 53q33 49 80 88t127 94q86 61 117.5 96t41.5 82q4 20 4 29q0 68 -108 68q-72 0 -150 -25l15 70q31 10 79 18t89 8q78 0 118.5 -34.5t40.5 -94.5q0 -10 -4 -39q-12 -59 -48 -99t-124 -103l-47 -35q-84 -57 -123 -107h275l-15 -69h-381z" />
<glyph unicode="&#xb3;" horiz-adv-x="610" d="M193 764l14 70q61 -25 135 -25q86 0 126 23.5t52 80.5q4 20 4 27q0 37 -31.5 54.5t-95.5 17.5h-71l20 63h55q74 0 113 24.5t51 80.5l4 24q0 35 -29.5 50.5t-97.5 15.5q-70 0 -137 -23l14 70q27 8 71 15t83 7q94 0 139 -31.5t45 -86.5q0 -59 -34.5 -109.5t-98.5 -69.5 q88 -16 88 -96q0 -10 -4 -35q-16 -84 -83.5 -127t-184.5 -43q-43 0 -84 6.5t-63 16.5z" />
<glyph unicode="&#xb4;" horiz-adv-x="468" d="M256 1069l207 324h106l-223 -324h-90z" />
<glyph unicode="&#xb6;" horiz-adv-x="1251" d="M221 844q0 55 17 133q53 250 220 363.5t423 113.5h483l-342 -1612h-113l324 1520h-238l-323 -1520h-113l143 676q-225 0 -353 74t-128 252z" />
<glyph unicode="&#xb7;" horiz-adv-x="333" d="M141 528l23 105h108l-22 -105h-109z" />
<glyph unicode="&#xb8;" horiz-adv-x="645" d="M-72 -475l17 76q55 -16 125 -17q106 0 161.5 30t69.5 101q4 25 4 33q0 45 -39 62.5t-129 17.5h-67l94 172h88l-57 -104q92 0 145 -36t53 -104q0 -12 -4 -41q-45 -207 -332 -207q-30 0 -68 5.5t-61 11.5z" />
<glyph unicode="&#xb9;" horiz-adv-x="421" d="M289 1223l16 69l248 47l-125 -581h-82l107 499z" />
<glyph unicode="&#xba;" horiz-adv-x="743" d="M244 963q0 53 10 96q31 139 107.5 209.5t211.5 70.5q209 0 209 -186q0 -51 -10 -94q-31 -141 -107.5 -211t-211.5 -70q-209 1 -209 185zM324 965q0 -59 32.5 -88t110.5 -29q96 0 147.5 52t73.5 159q10 55 10 88q0 61 -32.5 91t-108.5 30q-94 0 -146.5 -52.5t-74.5 -156.5 q-12 -51 -12 -94z" />
<glyph unicode="&#xbb;" horiz-adv-x="1189" d="M82 254l528 340l-383 340l62 63l432 -376l-14 -66l-592 -377zM485 254l531 340l-385 340l63 63l432 -376l-14 -66l-592 -377z" />
<glyph unicode="&#xbc;" horiz-adv-x="1261" d="M129 0l983 1319h107l-983 -1319h-107zM289 1223l16 69l248 47l-125 -581h-82l107 499zM631 127l14 70l383 385h98l-82 -387h64l-14 -68h-64l-26 -127h-82l26 127h-317zM725 195h252l67 323z" />
<glyph unicode="&#xbd;" horiz-adv-x="1259" d="M129 0l983 1319h107l-983 -1319h-107zM289 1223l16 69l248 47l-125 -581h-82l107 499zM684 0l10 53q37 49 83 89t124 94q88 61 120 96t40 82q4 25 4 30q0 33 -25.5 49.5t-83.5 16.5q-70 0 -149 -25l14 70q31 10 79 18.5t89 8.5q76 0 119 -36t43 -95q0 -12 -4 -37 q-12 -59 -48 -99.5t-124 -103.5l-45 -33q-35 -25 -67 -51.5t-56 -56.5h272l-14 -70h-381z" />
<glyph unicode="&#xbe;" horiz-adv-x="1290" d="M158 0l981 1319h106l-981 -1319h-106zM193 764l14 67q61 -25 135 -24q86 0 126 24.5t52 81.5q4 20 4 27q0 37 -31.5 54.5t-95.5 17.5h-71l20 63h55q74 0 113 24.5t51 80.5q4 20 4 26q0 35 -30.5 50.5t-96.5 15.5t-137 -23l14 68q27 8 71 15t83 7q184 0 184 -114 q0 -61 -33.5 -112.5t-99.5 -70.5q88 -16 88 -96q0 -10 -4 -35q-16 -84 -83.5 -127t-184.5 -43q-43 0 -84 6.5t-63 16.5zM659 127l15 70l381 385h100l-82 -387h64l-15 -68h-63l-27 -127h-82l27 127h-318zM754 195h250l67 323z" />
<glyph unicode="&#xbf;" horiz-adv-x="999" d="M109 219q0 53 10 94q16 74 54 131.5t89 99.5t137 103q29 20 43 29q78 55 117 87t66.5 76t42.5 109l8 43h112l-10 -49q-23 -109 -88 -176.5t-182 -147.5l-35 -24q-113 -78 -169 -135.5t-75 -143.5q-10 -51 -10 -84q0 -90 66.5 -134t220.5 -44q182 0 346 72l-21 -98 q-70 -33 -166 -52.5t-202 -19.5q-174 0 -264 68.5t-90 195.5zM713 1196l20 98h125l-20 -98h-125z" />
<glyph unicode="&#xc0;" horiz-adv-x="1366" d="M31 0l778 1319h143l219 -1319h-108l-66 385h-618l-225 -385h-123zM424 477h567l-125 752zM758 1733h106l68 -324h-92z" />
<glyph unicode="&#xc1;" horiz-adv-x="1366" d="M31 0l778 1319h143l219 -1319h-108l-66 385h-618l-225 -385h-123zM424 477h567l-125 752zM831 1409l207 324h107l-221 -324h-93z" />
<glyph unicode="&#xc2;" horiz-adv-x="1366" d="M31 0l778 1319h143l219 -1319h-108l-66 385h-618l-225 -385h-123zM424 477h567l-125 752zM635 1407l272 276h99l155 -276h-98l-117 211l-207 -211h-104z" />
<glyph unicode="&#xc3;" horiz-adv-x="1366" d="M31 0l778 1319h143l219 -1319h-108l-66 385h-618l-225 -385h-123zM424 477h567l-125 752zM623 1458l20 96q29 27 77 43.5t95 16.5q37 0 65.5 -9.5t69.5 -29.5q37 -18 62.5 -27.5t56.5 -9.5q98 0 164 72l-21 -97q-25 -29 -66.5 -44t-90.5 -15q-35 0 -68 10.5t-74 30.5 q-37 16 -62.5 25.5t-51.5 9.5q-104 0 -176 -72z" />
<glyph unicode="&#xc4;" horiz-adv-x="1366" d="M31 0l778 1319h143l219 -1319h-108l-66 385h-618l-225 -385h-123zM424 477h567l-125 752zM684 1460l23 113h116l-24 -113h-115zM1024 1460l25 113h114l-24 -113h-115z" />
<glyph unicode="&#xc5;" horiz-adv-x="1366" d="M31 0l745 1264q-41 20 -63.5 58t-22.5 85q0 31 4 47q18 90 88 149.5t166 59.5q78 0 124 -45t46 -117q0 -31 -4 -47q-14 -63 -54 -113.5t-99 -74.5l210 -1266h-108l-66 385h-618l-225 -385h-123zM424 477h567l-125 752zM764 1419q0 -45 27.5 -71.5t82.5 -26.5q70 0 119 50 t49 120q0 45 -27.5 71.5t-82.5 26.5q-68 0 -118 -50t-50 -120z" />
<glyph unicode="&#xc6;" horiz-adv-x="1703" d="M31 0l778 1319h979l-19 -94h-639l-110 -520h567l-20 -93h-568l-110 -522h639l-19 -90h-751l82 387h-461l-229 -387h-119zM432 477h426l160 748h-144z" />
<glyph unicode="&#xc7;" horiz-adv-x="1206" d="M139 422q0 88 23 201q74 342 254 529t504 187q207 0 362 -59l-20 -100q-152 61 -355 61q-272 0 -421.5 -158.5t-213.5 -459.5q-25 -106 -24 -197q0 -172 99 -261t319 -89q94 0 192 14t180 41l-20 -100q-168 -49 -361 -51l-45 -84q197 0 197 -136q0 -29 -4 -45 q-45 -207 -328 -207q-31 0 -69.5 5.5t-61.5 11.5l16 76q55 -16 125 -17q106 0 160.5 30t69.5 101q4 20 4 31q0 45 -40 63.5t-126 18.5h-68l82 154q-217 14 -323.5 128.5t-106.5 311.5z" />
<glyph unicode="&#xc8;" horiz-adv-x="1107" d="M72 0l278 1319h862l-18 -92h-750l-110 -522h678l-21 -91h-678l-110 -524h749l-18 -90h-862zM690 1733h107l67 -324h-92z" />
<glyph unicode="&#xc9;" horiz-adv-x="1107" d="M72 0l278 1319h862l-18 -92h-750l-110 -522h678l-21 -91h-678l-110 -524h749l-18 -90h-862zM743 1409l207 324h107l-221 -324h-93z" />
<glyph unicode="&#xca;" horiz-adv-x="1107" d="M72 0l278 1319h862l-18 -92h-750l-110 -522h678l-21 -91h-678l-110 -524h749l-18 -90h-862zM520 1407l273 276h98l156 -276h-99l-117 211l-206 -211h-105z" />
<glyph unicode="&#xcb;" horiz-adv-x="1107" d="M72 0l278 1319h862l-18 -92h-750l-110 -522h678l-21 -91h-678l-110 -524h749l-18 -90h-862zM582 1462l22 113h117l-25 -113h-114zM922 1462l24 113h115l-25 -113h-114z" />
<glyph unicode="&#xcc;" horiz-adv-x="419" d="M72 0l278 1319h113l-279 -1319h-112zM299 1733h107l67 -324h-92z" />
<glyph unicode="&#xcd;" horiz-adv-x="419" d="M72 0l278 1319h113l-279 -1319h-112zM377 1409l207 324h106l-221 -324h-92z" />
<glyph unicode="&#xce;" horiz-adv-x="419" d="M72 0l278 1319h113l-279 -1319h-112zM162 1407l272 276h98l156 -276h-98l-117 211l-207 -211h-104z" />
<glyph unicode="&#xcf;" horiz-adv-x="419" d="M72 0l278 1319h113l-279 -1319h-112zM209 1464l22 113h117l-24 -113h-115zM549 1464l24 113h115l-24 -113h-115z" />
<glyph unicode="&#xd0;" horiz-adv-x="1378" d="M117 602l20 92h164l133 625h492q221 0 325.5 -93t104.5 -296q0 -117 -35 -281q-51 -233 -127 -373.5t-206 -208t-337 -67.5h-495l127 602h-166zM287 90h358q162 0 266.5 46t177 168t119.5 345q39 184 39 291q0 160 -84 223.5t-276 63.5h-359l-114 -533h391l-21 -92h-389z " />
<glyph unicode="&#xd1;" horiz-adv-x="1343" d="M72 0l278 1319h107l573 -1151l244 1151h112l-278 -1319h-109l-571 1149l-244 -1149h-112zM612 1464l21 97q29 27 77 43t95 16q37 0 65.5 -9t69.5 -30q37 -18 62.5 -27.5t56.5 -9.5q98 0 164 72l-21 -96q-25 -29 -66.5 -44.5t-91.5 -15.5q-34 0 -67 10.5t-74 30.5 q-37 16 -62.5 25.5t-52.5 9.5q-104 0 -176 -72z" />
<glyph unicode="&#xd2;" horiz-adv-x="1409" d="M141 424q0 109 27 229q76 354 253 520t486 166q240 0 357.5 -105.5t117.5 -324.5q0 -111 -30 -256q-72 -338 -249 -505.5t-487 -167.5q-475 0 -475 444zM250 418q0 -178 92 -260t295 -82q244 0 391.5 140t210.5 437q33 145 33 260q0 176 -92.5 252t-294.5 76 q-166 0 -284 -57.5t-197.5 -186.5t-124.5 -344q-29 -139 -29 -235zM805 1733h106l68 -324h-92z" />
<glyph unicode="&#xd3;" horiz-adv-x="1409" d="M141 424q0 109 27 229q76 354 253 520t486 166q240 0 357.5 -105.5t117.5 -324.5q0 -111 -30 -256q-72 -338 -249 -505.5t-487 -167.5q-475 0 -475 444zM250 418q0 -178 92 -260t295 -82q244 0 391.5 140t210.5 437q33 145 33 260q0 176 -92.5 252t-294.5 76 q-166 0 -284 -57.5t-197.5 -186.5t-124.5 -344q-29 -139 -29 -235zM877 1409l206 324h107l-221 -324h-92z" />
<glyph unicode="&#xd4;" horiz-adv-x="1409" d="M141 424q0 109 27 229q76 354 253 520t486 166q240 0 357.5 -105.5t117.5 -324.5q0 -111 -30 -256q-72 -338 -249 -505.5t-487 -167.5q-475 0 -475 444zM250 418q0 -178 92 -260t295 -82q244 0 391.5 140t210.5 437q33 145 33 260q0 176 -92.5 252t-294.5 76 q-166 0 -284 -57.5t-197.5 -186.5t-124.5 -344q-29 -139 -29 -235zM657 1407l273 276h98l156 -276h-99l-116 211l-207 -211h-105z" />
<glyph unicode="&#xd5;" horiz-adv-x="1409" d="M141 424q0 109 27 229q76 354 253 520t486 166q240 0 357.5 -105.5t117.5 -324.5q0 -111 -30 -256q-72 -338 -249 -505.5t-487 -167.5q-475 0 -475 444zM250 418q0 -178 92 -260t295 -82q244 0 391.5 140t210.5 437q33 145 33 260q0 176 -92.5 252t-294.5 76 q-166 0 -284 -57.5t-197.5 -186.5t-124.5 -344q-29 -139 -29 -235zM647 1468l21 97q29 27 77 43t95 16q37 0 65.5 -9t69.5 -30q37 -18 62.5 -27.5t56.5 -9.5q98 0 163 72l-20 -96q-25 -29 -67 -44.5t-91 -15.5q-35 0 -67.5 10.5t-73.5 30.5q-37 16 -62.5 25.5t-52.5 9.5 q-104 0 -176 -72z" />
<glyph unicode="&#xd6;" horiz-adv-x="1409" d="M141 424q0 109 27 229q76 354 253 520t486 166q240 0 357.5 -105.5t117.5 -324.5q0 -111 -30 -256q-72 -338 -249 -505.5t-487 -167.5q-475 0 -475 444zM250 418q0 -178 92 -260t295 -82q244 0 391.5 140t210.5 437q33 145 33 260q0 176 -92.5 252t-294.5 76 q-166 0 -284 -57.5t-197.5 -186.5t-124.5 -344q-29 -139 -29 -235zM707 1462l22 113h117l-25 -113h-114zM1047 1462l24 113h115l-25 -113h-114z" />
<glyph unicode="&#xd7;" horiz-adv-x="825" d="M102 291l275 229l-187 236l76 63l185 -239l288 237l52 -63l-289 -240l186 -238l-72 -59l-186 238l-278 -228z" />
<glyph unicode="&#xd8;" horiz-adv-x="1409" d="M141 422q0 111 27 231q76 354 253 520t486 166q86 0 164 -16l55 96h103l-70 -121q223 -92 223 -391q0 -109 -30 -254q-72 -338 -249 -505.5t-487 -167.5q-100 0 -198 24l-66 -113h-102l84 148q-193 104 -193 383zM250 418q0 -213 135 -291l633 1104q-66 10 -133 10 q-166 0 -284 -57.5t-197.5 -186.5t-124.5 -344q-29 -139 -29 -235zM469 94q72 -18 168 -18q244 0 391.5 140t210.5 437q33 160 33 256q0 119 -41 190.5t-125 106.5z" />
<glyph unicode="&#xd9;" horiz-adv-x="1357" d="M145 340q0 59 17 137l178 842h113l-181 -854q-14 -66 -14 -127q0 -133 87 -196.5t269 -63.5q199 0 331 94t173 293l180 854h113l-178 -842q-106 -498 -641 -497q-219 0 -333 94t-114 266zM809 1733h106l68 -324h-92z" />
<glyph unicode="&#xda;" horiz-adv-x="1357" d="M145 340q0 59 17 137l178 842h113l-181 -854q-14 -66 -14 -127q0 -133 87 -196.5t269 -63.5q199 0 331 94t173 293l180 854h113l-178 -842q-106 -498 -641 -497q-219 0 -333 94t-114 266zM834 1409l206 324h107l-221 -324h-92z" />
<glyph unicode="&#xdb;" horiz-adv-x="1357" d="M145 340q0 59 17 137l178 842h113l-181 -854q-14 -66 -14 -127q0 -133 87 -196.5t269 -63.5q199 0 331 94t173 293l180 854h113l-178 -842q-106 -498 -641 -497q-219 0 -333 94t-114 266zM631 1407l272 276h98l156 -276h-98l-117 211l-207 -211h-104z" />
<glyph unicode="&#xdc;" horiz-adv-x="1357" d="M145 340q0 59 17 137l178 842h113l-181 -854q-14 -66 -14 -127q0 -133 87 -196.5t269 -63.5q199 0 331 94t173 293l180 854h113l-178 -842q-106 -498 -641 -497q-219 0 -333 94t-114 266zM666 1462l22 113h117l-25 -113h-114zM1006 1462l24 113h115l-25 -113h-114z" />
<glyph unicode="&#xdd;" horiz-adv-x="1277" d="M309 1319h111l256 -727l563 727h123l-645 -825l-105 -494h-112l104 494zM782 1409l207 324h107l-222 -324h-92z" />
<glyph unicode="&#xde;" horiz-adv-x="1210" d="M72 0l278 1319h113l-53 -256h411q170 0 258 -80t88 -219q0 -49 -12 -109q-43 -193 -174 -299t-342 -106h-403l-52 -250h-112zM256 342h393q158 0 260.5 84t132.5 229q14 76 15 117q0 100 -61.5 149.5t-202.5 49.5h-404z" />
<glyph unicode="&#xdf;" horiz-adv-x="1269" d="M61 0l207 979q45 213 194.5 334t383.5 121q203 0 304 -81t101 -216q0 -37 -10 -88q-25 -115 -91.5 -201t-154.5 -121q82 -23 127 -86t45 -158q0 -53 -10 -96q-43 -195 -170 -301t-321 -106q-181 0 -285 45l20 98q102 -47 273 -47q145 0 241.5 82t128.5 233q12 53 13 96 q0 96 -62.5 147.5t-199.5 51.5h-179l19 90h186q131 0 210 76t104 197q10 51 10 86q0 96 -74 148t-246 52q-182 0 -294.5 -92t-151.5 -272l-205 -971h-113z" />
<glyph unicode="&#xe0;" horiz-adv-x="1087" d="M106 293q0 72 19 160q55 258 209.5 398t359.5 140q100 0 169 -23.5t132 -78.5l17 82h112l-204 -971h-95l13 109q-86 -66 -177.5 -97.5t-201.5 -31.5q-353 0 -353 313zM217 301q0 -123 68.5 -176t220.5 -53q192 0 344 131l125 588q-51 53 -112.5 79.5t-153.5 26.5 q-182 0 -305 -114.5t-168 -329.5q-18 -86 -19 -152zM612 1393h107l67 -324h-92z" />
<glyph unicode="&#xe1;" horiz-adv-x="1087" d="M106 293q0 72 19 160q55 258 209.5 398t359.5 140q100 0 169 -23.5t132 -78.5l17 82h112l-204 -971h-95l13 109q-86 -66 -177.5 -97.5t-201.5 -31.5q-353 0 -353 313zM217 301q0 -123 68.5 -176t220.5 -53q192 0 344 131l125 588q-51 53 -112.5 79.5t-153.5 26.5 q-182 0 -305 -114.5t-168 -329.5q-18 -86 -19 -152zM662 1069l206 324h107l-221 -324h-92z" />
<glyph unicode="&#xe2;" horiz-adv-x="1087" d="M106 293q0 72 19 160q55 258 209.5 398t359.5 140q100 0 169 -23.5t132 -78.5l17 82h112l-204 -971h-95l13 109q-86 -66 -177.5 -97.5t-201.5 -31.5q-353 0 -353 313zM217 301q0 -123 68.5 -176t220.5 -53q192 0 344 131l125 588q-51 53 -112.5 79.5t-153.5 26.5 q-182 0 -305 -114.5t-168 -329.5q-18 -86 -19 -152zM451 1067l272 276h98l156 -276h-98l-117 211l-207 -211h-104z" />
<glyph unicode="&#xe3;" horiz-adv-x="1087" d="M106 293q0 72 19 160q55 258 209.5 398t359.5 140q100 0 169 -23.5t132 -78.5l17 82h112l-204 -971h-95l13 109q-86 -66 -177.5 -97.5t-201.5 -31.5q-353 0 -353 313zM217 301q0 -123 68.5 -176t220.5 -53q192 0 344 131l125 588q-51 53 -112.5 79.5t-153.5 26.5 q-182 0 -305 -114.5t-168 -329.5q-18 -86 -19 -152zM438 1124l21 97q29 27 77 43t95 16q37 0 65.5 -9t69.5 -30q37 -18 62.5 -27.5t56.5 -9.5q98 0 164 72l-21 -96q-25 -29 -66.5 -44.5t-91.5 -15.5q-34 0 -67 10.5t-74 30.5q-37 16 -62.5 25.5t-52.5 9.5q-104 0 -176 -72z " />
<glyph unicode="&#xe4;" horiz-adv-x="1087" d="M106 293q0 72 19 160q55 258 209.5 398t359.5 140q100 0 169 -23.5t132 -78.5l17 82h112l-204 -971h-95l13 109q-86 -66 -177.5 -97.5t-201.5 -31.5q-353 0 -353 313zM217 301q0 -123 68.5 -176t220.5 -53q192 0 344 131l125 588q-51 53 -112.5 79.5t-153.5 26.5 q-182 0 -305 -114.5t-168 -329.5q-18 -86 -19 -152zM506 1122l22 113h117l-24 -113h-115zM846 1122l24 113h115l-24 -113h-115z" />
<glyph unicode="&#xe5;" horiz-adv-x="1087" d="M106 293q0 72 19 160q55 258 209.5 398t359.5 140q100 0 169 -23.5t132 -78.5l17 82h112l-204 -971h-95l13 109q-86 -66 -177.5 -97.5t-201.5 -31.5q-353 0 -353 313zM217 301q0 -123 68.5 -176t220.5 -53q192 0 344 131l125 588q-51 53 -112.5 79.5t-153.5 26.5 q-182 0 -305 -114.5t-168 -329.5q-18 -86 -19 -152zM555 1229q0 29 4 45q18 90 88 149.5t166 59.5q78 0 124 -45t46 -117q0 -31 -4 -47q-18 -88 -88 -147.5t-166 -59.5q-78 0 -124 46t-46 116zM629 1239q0 -45 27.5 -71.5t82.5 -26.5q70 0 119 50t49 120q0 45 -27.5 71.5 t-82.5 26.5q-68 0 -118 -50t-50 -120z" />
<glyph unicode="&#xe6;" horiz-adv-x="1800" d="M76 193q0 16 8 65q61 291 422 291h362l15 67q12 53 12 95q0 92 -59.5 138t-192.5 46q-164 0 -324 -53l21 96q147 53 340 53q276 0 307 -186q141 186 420 186q168 0 253 -77.5t85 -208.5q0 -49 -12 -103l-37 -176h-740q-12 -70 -12 -125q0 -125 79 -177t269 -52 q133 0 275 51l-19 -92q-141 -51 -297 -51q-172 0 -268 51t-127 162q-78 -98 -203 -155.5t-291 -57.5q-129 0 -207.5 53t-78.5 160zM188 211q0 -137 224 -137q284 0 399 205l39 180h-358q-139 0 -207 -49.5t-90 -151.5q-6 -25 -7 -47zM975 514h635l18 92q12 55 12 103 q0 92 -58 140t-191 48q-186 0 -279.5 -91t-136.5 -292z" />
<glyph unicode="&#xe7;" horiz-adv-x="989" d="M115 326q0 74 18 159q53 250 212 378t392 128q88 0 143.5 -12t110.5 -41l-20 -92q-96 51 -234 51q-194 0 -321 -101.5t-172 -310.5q-20 -102 -21 -161q0 -131 78 -191.5t252 -60.5q133 0 266 53l-18 -94q-131 -51 -287 -51l-45 -84q197 0 197 -136q0 -29 -4 -45 q-45 -207 -328 -207q-31 0 -70 5.5t-61 11.5l16 76q55 -16 125 -17q106 0 160.5 30t68.5 101q4 20 5 31q0 45 -40 63.5t-126 18.5h-68l84 156q-158 16 -235.5 103t-77.5 239z" />
<glyph unicode="&#xe8;" horiz-adv-x="1075" d="M113 309q0 76 22 183q104 500 553 499q168 0 250 -76.5t82 -205.5q0 -51 -12 -107l-37 -176h-738q-12 -68 -12 -123q0 -125 80 -178t268 -53q135 0 273 51l-19 -92q-137 -51 -297 -51q-213 0 -313 80.5t-100 248.5zM252 514h635l18 92q12 55 13 105q0 92 -57.5 139 t-188.5 47q-184 0 -281.5 -95t-138.5 -288zM569 1393h107l67 -324h-92z" />
<glyph unicode="&#xe9;" horiz-adv-x="1075" d="M113 309q0 76 22 183q104 500 553 499q168 0 250 -76.5t82 -205.5q0 -51 -12 -107l-37 -176h-738q-12 -68 -12 -123q0 -125 80 -178t268 -53q135 0 273 51l-19 -92q-137 -51 -297 -51q-213 0 -313 80.5t-100 248.5zM252 514h635l18 92q12 55 13 105q0 92 -57.5 139 t-188.5 47q-184 0 -281.5 -95t-138.5 -288zM635 1069l207 324h106l-221 -324h-92z" />
<glyph unicode="&#xea;" horiz-adv-x="1075" d="M113 309q0 76 22 183q104 500 553 499q168 0 250 -76.5t82 -205.5q0 -51 -12 -107l-37 -176h-738q-12 -68 -12 -123q0 -125 80 -178t268 -53q135 0 273 51l-19 -92q-137 -51 -297 -51q-213 0 -313 80.5t-100 248.5zM252 514h635l18 92q12 55 13 105q0 92 -57.5 139 t-188.5 47q-184 0 -281.5 -95t-138.5 -288zM430 1067l272 276h99l155 -276h-98l-117 211l-206 -211h-105z" />
<glyph unicode="&#xeb;" horiz-adv-x="1075" d="M113 309q0 76 22 183q104 500 553 499q168 0 250 -76.5t82 -205.5q0 -51 -12 -107l-37 -176h-738q-12 -68 -12 -123q0 -125 80 -178t268 -53q135 0 273 51l-19 -92q-137 -51 -297 -51q-213 0 -313 80.5t-100 248.5zM252 514h635l18 92q12 55 13 105q0 92 -57.5 139 t-188.5 47q-184 0 -281.5 -95t-138.5 -288zM473 1122l23 113h116l-24 -113h-115zM813 1122l25 113h114l-24 -113h-115z" />
<glyph unicode="&#xec;" horiz-adv-x="552" d="M205 0l184 877h-153l28 94h258l-205 -971h-112zM360 1393h107l68 -324h-93z" />
<glyph unicode="&#xed;" horiz-adv-x="552" d="M205 0l184 877h-153l28 94h258l-205 -971h-112zM418 1069l207 324h106l-221 -324h-92z" />
<glyph unicode="&#xee;" horiz-adv-x="552" d="M190 1067l273 276h98l156 -276h-99l-116 211l-207 -211h-105zM205 0l184 877h-153l28 94h258l-205 -971h-112z" />
<glyph unicode="&#xef;" horiz-adv-x="552" d="M199 1122l22 113h117l-25 -113h-114zM205 0l184 877h-153l28 94h258l-205 -971h-112zM539 1122l24 113h115l-25 -113h-114z" />
<glyph unicode="&#xf0;" horiz-adv-x="1167" d="M102 287q0 51 13 112q88 420 536 420q88 0 179.5 -31.5t162.5 -93.5l23 115q27 129 26 209q0 55 -16 104l-313 -125l16 80l262 105q-66 70 -227 69q-164 0 -297 -43l18 90q150 41 310 41q201 0 288 -120l217 88l-16 -80l-168 -68q29 -70 29 -172q0 -90 -21 -186l-69 -328 q-55 -258 -194.5 -375.5t-375.5 -117.5q-190 0 -286.5 80.5t-96.5 226.5zM205 299q0 -231 301 -231q354 0 430 358l37 180q-63 55 -149.5 90t-174.5 35q-193 0 -295 -86t-137 -246q-12 -55 -12 -100z" />
<glyph unicode="&#xf1;" horiz-adv-x="1144" d="M72 0l204 971h99l-15 -119q195 139 422 139q285 0 285 -237q0 -51 -12 -113l-135 -641h-113l135 639q14 63 14 115q0 78 -49 110.5t-170 32.5q-104 0 -208.5 -38t-184.5 -103l-160 -756h-112zM457 1124l20 97q29 27 77 43t95 16q37 0 65.5 -9t69.5 -30q37 -18 62.5 -27.5 t56.5 -9.5q98 0 164 72l-20 -96q-25 -29 -67 -44.5t-91 -15.5q-35 0 -68 10.5t-73 30.5q-37 16 -63 25.5t-52 9.5q-104 0 -176 -72z" />
<glyph unicode="&#xf2;" horiz-adv-x="1153" d="M113 305q0 86 20 180q53 254 187.5 380t381.5 126q379 0 379 -332q0 -84 -20 -174q-53 -256 -187.5 -380.5t-386.5 -124.5q-192 0 -283 81.5t-91 243.5zM221 309q0 -121 66.5 -177t220.5 -56q190 0 292.5 98t147.5 311q23 102 23 170q0 123 -67.5 180.5t-221.5 57.5 q-188 0 -290.5 -98.5t-147.5 -309.5q-23 -106 -23 -176zM608 1393h107l67 -324h-92z" />
<glyph unicode="&#xf3;" horiz-adv-x="1153" d="M113 305q0 86 20 180q53 254 187.5 380t381.5 126q379 0 379 -332q0 -84 -20 -174q-53 -256 -187.5 -380.5t-386.5 -124.5q-192 0 -283 81.5t-91 243.5zM221 309q0 -121 66.5 -177t220.5 -56q190 0 292.5 98t147.5 311q23 102 23 170q0 123 -67.5 180.5t-221.5 57.5 q-188 0 -290.5 -98.5t-147.5 -309.5q-23 -106 -23 -176zM680 1069l207 324h106l-221 -324h-92z" />
<glyph unicode="&#xf4;" horiz-adv-x="1153" d="M113 305q0 86 20 180q53 254 187.5 380t381.5 126q379 0 379 -332q0 -84 -20 -174q-53 -256 -187.5 -380.5t-386.5 -124.5q-192 0 -283 81.5t-91 243.5zM221 309q0 -121 66.5 -177t220.5 -56q190 0 292.5 98t147.5 311q23 102 23 170q0 123 -67.5 180.5t-221.5 57.5 q-188 0 -290.5 -98.5t-147.5 -309.5q-23 -106 -23 -176zM457 1067l272 276h98l156 -276h-98l-117 211l-207 -211h-104z" />
<glyph unicode="&#xf5;" horiz-adv-x="1153" d="M113 305q0 86 20 180q53 254 187.5 380t381.5 126q379 0 379 -332q0 -84 -20 -174q-53 -256 -187.5 -380.5t-386.5 -124.5q-192 0 -283 81.5t-91 243.5zM221 309q0 -121 66.5 -177t220.5 -56q190 0 292.5 98t147.5 311q23 102 23 170q0 123 -67.5 180.5t-221.5 57.5 q-188 0 -290.5 -98.5t-147.5 -309.5q-23 -106 -23 -176zM444 1128l21 97q29 27 77 43t95 16q37 0 65.5 -9t69.5 -30q37 -18 62.5 -27.5t56.5 -9.5q98 0 164 72l-21 -96q-25 -29 -66.5 -44.5t-90.5 -15.5q-35 0 -68 10.5t-74 30.5q-37 16 -62.5 25.5t-51.5 9.5 q-104 0 -177 -72z" />
<glyph unicode="&#xf6;" horiz-adv-x="1153" d="M113 305q0 86 20 180q53 254 187.5 380t381.5 126q379 0 379 -332q0 -84 -20 -174q-53 -256 -187.5 -380.5t-386.5 -124.5q-192 0 -283 81.5t-91 243.5zM221 309q0 -121 66.5 -177t220.5 -56q190 0 292.5 98t147.5 311q23 102 23 170q0 123 -67.5 180.5t-221.5 57.5 q-188 0 -290.5 -98.5t-147.5 -309.5q-23 -106 -23 -176zM504 1122l22 113h117l-25 -113h-114zM844 1122l24 113h115l-25 -113h-114z" />
<glyph unicode="&#xf7;" horiz-adv-x="985" d="M131 481l21 92h759l-20 -92h-760zM387 162l25 110h110l-24 -110h-111zM522 795l23 110h110l-22 -110h-111z" />
<glyph unicode="&#xf8;" horiz-adv-x="1153" d="M111 303q0 76 22 182q53 254 187.5 380t381.5 126q80 0 138 -14l59 104h100l-75 -133q158 -74 157 -289q0 -68 -20 -174q-53 -256 -187.5 -380.5t-386.5 -124.5q-45 0 -114 8l-56 -99h-100l70 121q-176 70 -176 293zM221 309q0 -80 27.5 -130t89.5 -77l448 783 q-61 8 -104 8q-188 0 -290.5 -98.5t-147.5 -309.5q-23 -106 -23 -176zM426 80q49 -4 82 -4q190 0 292.5 98t147.5 311q20 90 21 170q0 150 -99 201z" />
<glyph unicode="&#xf9;" horiz-adv-x="1144" d="M123 242q0 53 12 114l131 615h113l-131 -619q-12 -57 -12 -104q0 -94 57 -135t184 -41q98 0 191.5 37.5t173.5 103.5l159 758h113l-205 -971h-100l14 119q-92 -68 -192.5 -103.5t-220.5 -35.5q-140 0 -213.5 67.5t-73.5 194.5zM598 1393h107l67 -324h-92z" />
<glyph unicode="&#xfa;" horiz-adv-x="1144" d="M123 242q0 53 12 114l131 615h113l-131 -619q-12 -57 -12 -104q0 -94 57 -135t184 -41q98 0 191.5 37.5t173.5 103.5l159 758h113l-205 -971h-100l14 119q-92 -68 -192.5 -103.5t-220.5 -35.5q-140 0 -213.5 67.5t-73.5 194.5zM641 1069l207 324h106l-221 -324h-92z" />
<glyph unicode="&#xfb;" horiz-adv-x="1144" d="M123 242q0 53 12 114l131 615h113l-131 -619q-12 -57 -12 -104q0 -94 57 -135t184 -41q98 0 191.5 37.5t173.5 103.5l159 758h113l-205 -971h-100l14 119q-92 -68 -192.5 -103.5t-220.5 -35.5q-140 0 -213.5 67.5t-73.5 194.5zM446 1067l273 276h98l156 -276h-99 l-116 211l-207 -211h-105z" />
<glyph unicode="&#xfc;" horiz-adv-x="1144" d="M123 242q0 53 12 114l131 615h113l-131 -619q-12 -57 -12 -104q0 -94 57 -135t184 -41q98 0 191.5 37.5t173.5 103.5l159 758h113l-205 -971h-100l14 119q-92 -68 -192.5 -103.5t-220.5 -35.5q-140 0 -213.5 67.5t-73.5 194.5zM487 1118l23 113h117l-25 -113h-115z M827 1118l25 113h115l-25 -113h-115z" />
<glyph unicode="&#xfd;" horiz-adv-x="1159" d="M123 242q0 53 12 114l131 615h113l-131 -619q-12 -57 -12 -104q0 -94 57 -135t184 -41q98 0 191.5 37.5t173.5 103.5l159 758h113l-207 -977q-23 -106 -102.5 -186t-196 -124t-246.5 -44q-55 0 -124.5 6t-104.5 14l21 98q39 -12 99 -18t109 -6q168 0 286 64.5t147 185.5 l28 135q-92 -68 -192.5 -103.5t-220.5 -35.5q-139 0 -213 67.5t-74 194.5zM674 1069l207 324h106l-221 -324h-92z" />
<glyph unicode="&#xfe;" horiz-adv-x="1155" d="M-23 -442l398 1876h112l-118 -557q84 59 173 86.5t193 27.5q166 0 257 -82t91 -250q0 -82 -20 -172q-53 -256 -196.5 -381.5t-354.5 -125.5q-102 0 -176 23.5t-135 76.5l-111 -522h-113zM221 180q102 -109 283 -108q182 0 292.5 100t155.5 315q20 90 21 168 q0 123 -67.5 182.5t-215.5 59.5q-195 0 -344 -131z" />
<glyph unicode="&#xff;" horiz-adv-x="1159" d="M123 242q0 53 12 114l131 615h113l-131 -619q-12 -57 -12 -104q0 -94 57 -135t184 -41q98 0 191.5 37.5t173.5 103.5l159 758h113l-207 -977q-23 -106 -102.5 -186t-196 -124t-246.5 -44q-55 0 -124.5 6t-104.5 14l21 98q39 -12 99 -18t109 -6q168 0 286 64.5t147 185.5 l28 135q-92 -68 -192.5 -103.5t-220.5 -35.5q-139 0 -213 67.5t-74 194.5zM535 1128l22 113h117l-25 -113h-114zM874 1128l25 113h115l-25 -113h-115z" />
<glyph unicode="&#x100;" horiz-adv-x="1366" d="M31 0l778 1319h143l219 -1319h-108l-66 385h-618l-225 -385h-123zM424 477h567l-125 752zM629 1464l18 86h565l-18 -86h-565z" />
<glyph unicode="&#x101;" horiz-adv-x="1087" d="M106 293q0 72 19 160q55 258 209.5 398t359.5 140q100 0 169 -23.5t132 -78.5l17 82h112l-204 -971h-95l13 109q-86 -66 -177.5 -97.5t-201.5 -31.5q-353 0 -353 313zM217 301q0 -123 68.5 -176t220.5 -53q192 0 344 131l125 588q-51 53 -112.5 79.5t-153.5 26.5 q-182 0 -305 -114.5t-168 -329.5q-18 -86 -19 -152zM440 1124l19 86h565l-18 -86h-566z" />
<glyph unicode="&#x102;" horiz-adv-x="1366" d="M31 0l778 1319h143l219 -1319h-108l-66 385h-618l-225 -385h-123zM424 477h567l-125 752zM713 1577q0 27 6 57h82q-6 -27 -6 -49q0 -98 114 -98q66 0 114 39t62 108h91q-23 -102 -96.5 -164.5t-182.5 -62.5q-88 0 -136 46t-48 124z" />
<glyph unicode="&#x103;" horiz-adv-x="1087" d="M106 293q0 72 19 160q55 258 209.5 398t359.5 140q100 0 169 -23.5t132 -78.5l17 82h112l-204 -971h-95l13 109q-86 -66 -177.5 -97.5t-201.5 -31.5q-353 0 -353 313zM217 301q0 -123 68.5 -176t220.5 -53q192 0 344 131l125 588q-51 53 -112.5 79.5t-153.5 26.5 q-182 0 -305 -114.5t-168 -329.5q-18 -86 -19 -152zM543 1237q0 27 6 57h82q-6 -27 -6 -49q0 -98 114 -98q66 0 114 39t62 108h91q-23 -102 -96.5 -164.5t-182.5 -62.5q-88 0 -136 46t-48 124z" />
<glyph unicode="&#x104;" horiz-adv-x="1366" d="M31 0l778 1319h143l219 -1319q-86 -55 -138 -122.5t-68 -139.5q-4 -14 -4 -37q0 -37 21.5 -52.5t68.5 -15.5q61 0 106 23l-18 -84q-47 -23 -123 -23q-72 0 -114 31t-42 96q0 88 60.5 177.5t142.5 146.5l-66 385h-618l-225 -385h-123zM424 477h567l-125 752z" />
<glyph unicode="&#x105;" horiz-adv-x="1146" d="M106 293q0 72 19 160q55 258 209.5 398t359.5 140q100 0 169 -23.5t132 -78.5l17 82h112l-204 -971q-86 -55 -138.5 -122.5t-68.5 -139.5q-4 -14 -4 -37q0 -37 21.5 -52.5t68.5 -15.5q61 0 106 23l-18 -84q-47 -23 -123 -23q-72 0 -114 31t-42 96q0 90 63.5 180.5 t153.5 143.5l13 109q-86 -66 -177.5 -97.5t-201.5 -31.5q-352 0 -353 313zM217 301q0 -123 68.5 -176t220.5 -53q192 0 344 131l125 588q-51 53 -112.5 79.5t-153.5 26.5q-182 0 -305 -114.5t-168 -329.5q-18 -86 -19 -152z" />
<glyph unicode="&#x106;" horiz-adv-x="1206" d="M139 422q0 88 23 201q74 342 254 529t504 187q207 0 362 -59l-20 -100q-152 61 -355 61q-272 0 -421.5 -158.5t-213.5 -459.5q-25 -106 -24 -197q0 -172 99 -261t319 -89q94 0 192 14t180 41l-20 -100q-176 -51 -387 -51q-248 0 -370 116.5t-122 325.5zM860 1409l207 324 h107l-222 -324h-92z" />
<glyph unicode="&#x107;" horiz-adv-x="989" d="M115 326q0 74 18 159q53 250 212 378t392 128q88 0 143.5 -12t110.5 -41l-20 -92q-96 51 -234 51q-195 0 -321.5 -101.5t-171.5 -310.5q-20 -102 -21 -161q0 -131 78 -191.5t252 -60.5q133 0 266 53l-18 -94q-135 -51 -295 -51q-195 0 -293 89t-98 257zM643 1069l207 324 h106l-221 -324h-92z" />
<glyph unicode="&#x108;" horiz-adv-x="1206" d="M139 422q0 88 23 201q74 342 254 529t504 187q207 0 362 -59l-20 -100q-152 61 -355 61q-272 0 -421.5 -158.5t-213.5 -459.5q-25 -106 -24 -197q0 -172 99 -261t319 -89q94 0 192 14t180 41l-20 -100q-176 -51 -387 -51q-248 0 -370 116.5t-122 325.5zM639 1407l272 276 h99l155 -276h-98l-117 211l-207 -211h-104z" />
<glyph unicode="&#x109;" horiz-adv-x="989" d="M115 326q0 74 18 159q53 250 212 378t392 128q88 0 143.5 -12t110.5 -41l-20 -92q-96 51 -234 51q-195 0 -321.5 -101.5t-171.5 -310.5q-20 -102 -21 -161q0 -131 78 -191.5t252 -60.5q133 0 266 53l-18 -94q-135 -51 -295 -51q-195 0 -293 89t-98 257zM444 1067l273 276 h98l156 -276h-99l-116 211l-207 -211h-105z" />
<glyph unicode="&#x10a;" horiz-adv-x="1206" d="M139 422q0 88 23 201q74 342 254 529t504 187q207 0 362 -59l-20 -100q-152 61 -355 61q-272 0 -421.5 -158.5t-213.5 -459.5q-25 -106 -24 -197q0 -172 99 -261t319 -89q94 0 192 14t180 41l-20 -100q-176 -51 -387 -51q-248 0 -370 116.5t-122 325.5zM885 1462l24 115 h117l-25 -115h-116z" />
<glyph unicode="&#x10b;" horiz-adv-x="989" d="M115 326q0 74 18 159q53 250 212 378t392 128q88 0 143.5 -12t110.5 -41l-20 -92q-96 51 -234 51q-195 0 -321.5 -101.5t-171.5 -310.5q-20 -102 -21 -161q0 -131 78 -191.5t252 -60.5q133 0 266 53l-18 -94q-135 -51 -295 -51q-195 0 -293 89t-98 257zM674 1122l24 115 h117l-24 -115h-117z" />
<glyph unicode="&#x10c;" horiz-adv-x="1206" d="M139 422q0 88 23 201q74 342 254 529t504 187q207 0 362 -59l-20 -100q-152 61 -355 61q-272 0 -421.5 -158.5t-213.5 -459.5q-25 -106 -24 -197q0 -172 99 -261t319 -89q94 0 192 14t180 41l-20 -100q-176 -51 -387 -51q-248 0 -370 116.5t-122 325.5zM748 1683h96 l117 -210l206 210h107l-275 -276h-98z" />
<glyph unicode="&#x10d;" horiz-adv-x="989" d="M115 326q0 74 18 159q53 250 212 378t392 128q88 0 143.5 -12t110.5 -41l-20 -92q-96 51 -234 51q-195 0 -321.5 -101.5t-171.5 -310.5q-20 -102 -21 -161q0 -131 78 -191.5t252 -60.5q133 0 266 53l-18 -94q-135 -51 -295 -51q-195 0 -293 89t-98 257zM500 1343h96 l117 -210l207 210h106l-274 -276h-99z" />
<glyph unicode="&#x10e;" horiz-adv-x="1294" d="M72 0l278 1319h492q221 0 325.5 -93t104.5 -296q0 -117 -35 -281q-51 -233 -127 -373.5t-206 -208t-337 -67.5h-495zM203 90h358q162 0 266.5 46t177 168t119.5 345q39 184 39 291q0 160 -84 223.5t-276 63.5h-359zM643 1729h96l117 -211l207 211h106l-274 -277h-98z" />
<glyph unicode="&#x10f;" horiz-adv-x="1402" d="M111 309q0 78 20 168q55 258 198.5 386t354.5 128q100 0 175 -23.5t136 -78.5l105 491h112l-292 -1380h-95l13 109q-86 -66 -177.5 -97.5t-201.5 -31.5q-164 0 -256 80.5t-92 248.5zM223 326q0 -254 283 -254q192 0 344 131l125 588q-51 53 -116.5 79.5t-162.5 26.5 q-182 0 -295.5 -102.5t-158.5 -317.5q-18 -82 -19 -151zM1264 1120l209 330h104l-223 -330h-90z" />
<glyph unicode="&#x110;" horiz-adv-x="1357" d="M96 602l21 92h164l133 625h491q221 0 325.5 -93t104.5 -296q0 -117 -35 -281q-51 -233 -126.5 -373.5t-205.5 -208t-337 -67.5h-496l127 602h-166zM266 90h359q162 0 266 46t177 168t120 345q39 184 39 291q0 160 -84 223.5t-277 63.5h-358l-115 -533h391l-20 -92h-389z " />
<glyph unicode="&#x111;" horiz-adv-x="1173" d="M111 311q0 63 20 166q55 258 198.5 386t354.5 128q100 0 175 -23.5t136 -78.5l54 250h-361l19 92h360l33 149h112l-32 -149h120l-18 -92h-121l-241 -1139h-95l13 109q-86 -66 -177.5 -97.5t-201.5 -31.5q-162 0 -255 81.5t-93 249.5zM221 315q0 -125 68.5 -184t216.5 -59 q192 0 344 131l125 588q-51 53 -116.5 79.5t-162.5 26.5q-176 0 -292.5 -103.5t-161.5 -316.5q-20 -102 -21 -162z" />
<glyph unicode="&#x112;" horiz-adv-x="1107" d="M72 0l278 1319h862l-18 -92h-750l-110 -522h678l-21 -91h-678l-110 -524h749l-18 -90h-862zM522 1473l19 86h565l-19 -86h-565z" />
<glyph unicode="&#x113;" horiz-adv-x="1075" d="M113 309q0 76 22 183q104 500 553 499q168 0 250 -76.5t82 -205.5q0 -51 -12 -107l-37 -176h-738q-12 -68 -12 -123q0 -125 80 -178t268 -53q135 0 273 51l-19 -92q-137 -51 -297 -51q-213 0 -313 80.5t-100 248.5zM252 514h635l18 92q12 55 13 105q0 92 -57.5 139 t-188.5 47q-184 0 -281.5 -95t-138.5 -288zM461 1133l18 86h565l-18 -86h-565z" />
<glyph unicode="&#x114;" horiz-adv-x="1107" d="M72 0l278 1319h862l-18 -92h-750l-110 -522h678l-21 -91h-678l-110 -524h749l-18 -90h-862zM627 1577q0 27 6 57h82q-6 -27 -6 -49q0 -98 114 -98q66 0 114 39t62 108h91q-23 -102 -96.5 -164.5t-182.5 -62.5q-88 0 -136 46t-48 124z" />
<glyph unicode="&#x115;" horiz-adv-x="1075" d="M113 309q0 76 22 183q104 500 553 499q168 0 250 -76.5t82 -205.5q0 -51 -12 -107l-37 -176h-738q-12 -68 -12 -123q0 -125 80 -178t268 -53q135 0 273 51l-19 -92q-137 -51 -297 -51q-213 0 -313 80.5t-100 248.5zM252 514h635l18 92q12 55 13 105q0 92 -57.5 139 t-188.5 47q-184 0 -281.5 -95t-138.5 -288zM516 1237q0 27 6 57h82q-6 -27 -6 -49q0 -98 115 -98q66 0 113.5 39t62.5 108h90q-23 -102 -96.5 -164.5t-182.5 -62.5q-88 0 -136 46t-48 124z" />
<glyph unicode="&#x116;" horiz-adv-x="1107" d="M72 0l278 1319h862l-18 -92h-750l-110 -522h678l-21 -91h-678l-110 -524h749l-18 -90h-862zM752 1462l24 115h117l-25 -115h-116z" />
<glyph unicode="&#x117;" horiz-adv-x="1075" d="M113 309q0 76 22 183q104 500 553 499q168 0 250 -76.5t82 -205.5q0 -51 -12 -107l-37 -176h-738q-12 -68 -12 -123q0 -125 80 -178t268 -53q135 0 273 51l-19 -92q-137 -51 -297 -51q-213 0 -313 80.5t-100 248.5zM252 514h635l18 92q12 55 13 105q0 92 -57.5 139 t-188.5 47q-184 0 -281.5 -95t-138.5 -288zM649 1122l25 115h117l-25 -115h-117z" />
<glyph unicode="&#x118;" horiz-adv-x="1107" d="M72 0l278 1319h862l-18 -92h-750l-110 -522h678l-21 -91h-678l-110 -524h749l-18 -90h-47q-86 -55 -138.5 -122.5t-68.5 -139.5q-4 -14 -4 -37q0 -37 21.5 -52.5t68.5 -15.5q61 0 106 23l-18 -84q-47 -23 -123 -23q-72 0 -114 31t-42 96q0 90 63.5 180.5t154.5 143.5 h-721z" />
<glyph unicode="&#x119;" horiz-adv-x="1075" d="M113 309q0 76 22 183q104 500 553 499q168 0 250 -76.5t82 -205.5q0 -51 -12 -107l-37 -176h-738q-12 -68 -12 -123q0 -125 80 -178t268 -53q135 0 273 51l-19 -92q-53 -18 -106 -31q-86 -55 -138.5 -122.5t-68.5 -139.5q-4 -14 -4 -37q0 -37 21.5 -52.5t68.5 -15.5 q61 0 106 23l-18 -84q-47 -23 -123 -23q-72 0 -113.5 31t-41.5 96q0 84 54 166t134 140q-23 -2 -68 -2q-213 0 -313 80.5t-100 248.5zM252 514h635l18 92q12 55 13 105q0 92 -57.5 139t-188.5 47q-184 0 -281.5 -95t-138.5 -288z" />
<glyph unicode="&#x11a;" horiz-adv-x="1107" d="M72 0l278 1319h862l-18 -92h-750l-110 -522h678l-21 -91h-678l-110 -524h749l-18 -90h-862zM610 1683h97l116 -210l207 210h107l-275 -276h-98z" />
<glyph unicode="&#x11b;" horiz-adv-x="1075" d="M113 309q0 76 22 183q104 500 553 499q168 0 250 -76.5t82 -205.5q0 -51 -12 -107l-37 -176h-738q-12 -68 -12 -123q0 -125 80 -178t268 -53q135 0 273 51l-19 -92q-137 -51 -297 -51q-213 0 -313 80.5t-100 248.5zM252 514h635l18 92q12 55 13 105q0 92 -57.5 139 t-188.5 47q-184 0 -281.5 -95t-138.5 -288zM510 1343h96l117 -210l207 210h106l-274 -276h-98z" />
<glyph unicode="&#x11c;" horiz-adv-x="1296" d="M139 430q0 86 23 193q74 340 258 528t500 188q209 0 364 -55l-22 -100q-158 57 -353 57q-270 0 -421.5 -159.5t-215.5 -458.5q-25 -113 -24 -205q0 -170 97 -256t319 -86q94 0 192 16.5t172 44.5l98 469h-374l20 90h477l-131 -616q-74 -43 -195.5 -71.5t-291.5 -28.5 q-244 0 -368 118.5t-124 331.5zM676 1407l272 276h99l155 -276h-98l-117 211l-207 -211h-104z" />
<glyph unicode="&#x11d;" horiz-adv-x="1110" d="M115 322q0 70 18 161q53 260 191.5 384t349.5 124q111 0 188.5 -31.5t134.5 -99.5l33 111h94l-206 -977q-35 -164 -169.5 -259t-338.5 -95q-56 0 -125.5 6t-104.5 14l21 98q39 -12 99 -18t110 -6q160 0 263 63.5t130 186.5l24 116q-82 -53 -165.5 -76.5t-188.5 -23.5 q-170 0 -264 78t-94 244zM223 326q0 -125 71 -179.5t226 -54.5q183 0 328 109l121 565q-96 131 -287 131q-184 0 -289.5 -101.5t-148.5 -312.5q-20 -102 -21 -157zM430 1067l272 276h99l155 -276h-98l-117 211l-206 -211h-105z" />
<glyph unicode="&#x11e;" horiz-adv-x="1296" d="M139 430q0 86 23 193q74 340 258 528t500 188q209 0 364 -55l-22 -100q-158 57 -353 57q-270 0 -421.5 -159.5t-215.5 -458.5q-25 -113 -24 -205q0 -170 97 -256t319 -86q94 0 192 16.5t172 44.5l98 469h-374l20 90h477l-131 -616q-74 -43 -195.5 -71.5t-291.5 -28.5 q-244 0 -368 118.5t-124 331.5zM748 1577q0 27 6 57h82q-6 -27 -7 -49q0 -98 115 -98q66 0 114 39t62 108h90q-23 -102 -96.5 -164.5t-181.5 -62.5q-88 0 -136 46t-48 124z" />
<glyph unicode="&#x11f;" horiz-adv-x="1110" d="M115 322q0 70 18 161q53 260 191.5 384t349.5 124q111 0 188.5 -31.5t134.5 -99.5l33 111h94l-206 -977q-35 -164 -169.5 -259t-338.5 -95q-56 0 -125.5 6t-104.5 14l21 98q39 -12 99 -18t110 -6q160 0 263 63.5t130 186.5l24 116q-82 -53 -165.5 -76.5t-188.5 -23.5 q-170 0 -264 78t-94 244zM223 326q0 -125 71 -179.5t226 -54.5q183 0 328 109l121 565q-96 131 -287 131q-184 0 -289.5 -101.5t-148.5 -312.5q-20 -102 -21 -157zM518 1237q0 27 6 57h82q-6 -27 -6 -49q0 -98 115 -98q66 0 114 39t62 108h90q-23 -102 -96.5 -164.5 t-182.5 -62.5q-88 0 -136 46t-48 124z" />
<glyph unicode="&#x120;" horiz-adv-x="1296" d="M139 430q0 86 23 193q74 340 258 528t500 188q209 0 364 -55l-22 -100q-158 57 -353 57q-270 0 -421.5 -159.5t-215.5 -458.5q-25 -113 -24 -205q0 -170 97 -256t319 -86q94 0 192 16.5t172 44.5l98 469h-374l20 90h477l-131 -616q-74 -43 -195.5 -71.5t-291.5 -28.5 q-244 0 -368 118.5t-124 331.5zM887 1462l24 115h117l-24 -115h-117z" />
<glyph unicode="&#x121;" horiz-adv-x="1110" d="M115 322q0 70 18 161q53 260 191.5 384t349.5 124q111 0 188.5 -31.5t134.5 -99.5l33 111h94l-206 -977q-35 -164 -169.5 -259t-338.5 -95q-56 0 -125.5 6t-104.5 14l21 98q39 -12 99 -18t110 -6q160 0 263 63.5t130 186.5l24 116q-82 -53 -165.5 -76.5t-188.5 -23.5 q-170 0 -264 78t-94 244zM223 326q0 -125 71 -179.5t226 -54.5q183 0 328 109l121 565q-96 131 -287 131q-184 0 -289.5 -101.5t-148.5 -312.5q-20 -102 -21 -157zM645 1116l25 115h116l-24 -115h-117z" />
<glyph unicode="&#x122;" horiz-adv-x="1296" d="M139 430q0 86 23 193q74 340 258 528t500 188q209 0 364 -55l-22 -100q-158 57 -353 57q-270 0 -421.5 -159.5t-215.5 -458.5q-25 -113 -24 -205q0 -170 97 -256t319 -86q94 0 192 16.5t172 44.5l98 469h-374l20 90h477l-131 -616q-74 -43 -195.5 -71.5t-291.5 -28.5 q-244 0 -368 118.5t-124 331.5zM465 -424l125 338h108l-149 -338h-84z" />
<glyph unicode="&#x123;" horiz-adv-x="1110" d="M115 322q0 70 18 161q53 260 191.5 384t349.5 124q111 0 188.5 -31.5t134.5 -99.5l33 111h94l-206 -977q-35 -164 -169.5 -259t-338.5 -95q-56 0 -125.5 6t-104.5 14l21 98q39 -12 99 -18t110 -6q160 0 263 63.5t130 186.5l24 116q-82 -53 -165.5 -76.5t-188.5 -23.5 q-170 0 -264 78t-94 244zM223 326q0 -125 71 -179.5t226 -54.5q183 0 328 109l121 565q-96 131 -287 131q-184 0 -289.5 -101.5t-148.5 -312.5q-20 -102 -21 -157zM604 1069l150 338h84l-125 -338h-109z" />
<glyph unicode="&#x124;" horiz-adv-x="1290" d="M72 0l278 1319h113l-129 -614h758l129 614h112l-278 -1319h-113l129 614h-758l-129 -614h-112zM598 1407l272 276h99l155 -276h-98l-117 211l-207 -211h-104z" />
<glyph unicode="&#x125;" horiz-adv-x="1144" d="M72 0l293 1380h112l-112 -526q92 66 193 101.5t224 35.5q285 0 285 -237q0 -51 -12 -113l-135 -641h-113l135 639q12 59 12 104q0 82 -53 118t-180 36q-96 0 -196.5 -39t-180.5 -104l-160 -754h-112zM383 1432l272 276h99l155 -276h-98l-117 210l-207 -210h-104z" />
<glyph unicode="&#x126;" horiz-adv-x="1374" d="M100 0l203 965h-143l18 92h146l55 262h113l-56 -262h758l55 262h113l-55 -262h143l-18 -92h-146l-203 -965h-112l129 614h-758l-129 -614h-113zM362 705h758l54 260h-758z" />
<glyph unicode="&#x127;" horiz-adv-x="1189" d="M117 0l237 1122h-127l21 92h127l35 166h112l-37 -166h361l-21 -92h-358l-57 -268q92 66 193.5 101.5t223.5 35.5q285 0 285 -237q0 -51 -12 -113l-135 -641h-113l135 639q12 59 12 104q0 82 -53 118t-180 36q-96 0 -196.5 -39t-180.5 -104l-160 -754h-112z" />
<glyph unicode="&#x128;" horiz-adv-x="419" d="M72 0l278 1319h113l-279 -1319h-112zM139 1417l21 96q29 27 77 43.5t95 16.5q37 0 65.5 -9.5t69.5 -29.5q37 -18 62.5 -27.5t56.5 -9.5q98 0 164 72l-21 -96q-25 -29 -66.5 -44.5t-91.5 -15.5q-34 0 -67 10.5t-74 30.5q-37 16 -62.5 25.5t-52.5 9.5q-104 0 -176 -72z" />
<glyph unicode="&#x129;" horiz-adv-x="552" d="M123 1077l20 97q29 27 77 43t95 16q37 0 66 -9.5t70 -29.5q37 -18 62.5 -27.5t55.5 -9.5q98 0 164 72l-20 -96q-25 -29 -67 -44.5t-91 -15.5q-35 0 -67.5 10.5t-73.5 30.5q-37 16 -62.5 25.5t-52.5 9.5q-104 0 -176 -72zM205 0l184 877h-153l28 94h258l-205 -971h-112z " />
<glyph unicode="&#x12a;" horiz-adv-x="419" d="M72 0l278 1319h113l-279 -1319h-112zM158 1473l18 86h567l-18 -86h-567z" />
<glyph unicode="&#x12b;" horiz-adv-x="552" d="M137 1139l19 86h567l-18 -86h-568zM205 0l184 877h-153l28 94h258l-205 -971h-112z" />
<glyph unicode="&#x12c;" horiz-adv-x="419" d="M72 0l278 1319h113l-279 -1319h-112zM242 1585q0 27 6 57h82q-6 -27 -6 -49q0 -98 114 -98q66 0 114 39t62 108h91q-23 -102 -96.5 -164.5t-182.5 -62.5q-88 0 -136 46t-48 124z" />
<glyph unicode="&#x12d;" horiz-adv-x="552" d="M205 0l184 877h-153l28 94h258l-205 -971h-112zM262 1237q0 29 6 55h80q-4 -16 -4 -45q0 -49 28.5 -75.5t86.5 -26.5q68 0 115 40t61 107h88q-20 -100 -96 -162.5t-181 -62.5q-88 0 -136 46t-48 124z" />
<glyph unicode="&#x12e;" horiz-adv-x="419" d="M-127 -324q0 88 60.5 177.5t138.5 146.5l278 1319h113l-279 -1319q-86 -55 -138 -122.5t-69 -139.5q-4 -14 -4 -37q0 -37 21.5 -52.5t68.5 -15.5q61 0 107 23l-18 -84q-47 -23 -123 -23q-72 0 -114 31t-42 96z" />
<glyph unicode="&#x12f;" horiz-adv-x="552" d="M4 -324q0 88 60.5 177.5t138.5 146.5l184 877h-151l32 94h252l-205 -971q-86 -55 -138 -122.5t-68 -139.5q-4 -14 -5 -37q0 -37 21.5 -52.5t69.5 -15.5q61 0 106 23l-18 -84q-47 -23 -123 -23q-72 0 -114 31t-42 96zM446 1223l27 123h129l-27 -123h-129z" />
<glyph unicode="&#x130;" horiz-adv-x="419" d="M72 0l278 1319h113l-279 -1319h-112zM379 1464l24 115h117l-24 -115h-117z" />
<glyph unicode="&#x131;" horiz-adv-x="552" d="M205 0l184 877h-153l28 94h258l-205 -971h-112z" />
<glyph unicode="&#x132;" horiz-adv-x="1232" d="M72 0l278 1319h113l-279 -1319h-112zM369 27l20 98q45 -23 109.5 -36t132.5 -13q143 0 225 64.5t111 203.5l207 975h112l-207 -981q-37 -178 -146.5 -268t-307.5 -90q-147 0 -256 47z" />
<glyph unicode="&#x133;" horiz-adv-x="960" d="M188 -455l21 93q59 -20 121 -21q113 0 165 42t70 138l230 1080h-152l33 94h252l-250 -1180q-57 -270 -332 -270q-95 -1 -158 24zM203 0l184 877h-151l32 94h252l-205 -971h-112zM446 1223l27 123h129l-27 -123h-129zM854 1223l27 123h129l-27 -123h-129z" />
<glyph unicode="&#x134;" horiz-adv-x="858" d="M-6 27l20 98q45 -23 109.5 -36t132.5 -13q143 0 225 64.5t111 203.5l207 975h112l-206 -981q-37 -178 -146.5 -268t-308.5 -90q-147 0 -256 47zM606 1407l273 276h98l156 -276h-99l-116 211l-207 -211h-105z" />
<glyph unicode="&#x135;" horiz-adv-x="550" d="M-219 -455l20 93q59 -20 121 -21q111 0 164 43t72 137l229 1080h-151l32 94h252l-250 -1180q-29 -127 -115.5 -198.5t-215.5 -71.5q-95 -1 -158 24zM178 1067l273 276h98l156 -276h-99l-117 211l-206 -211h-105z" />
<glyph unicode="&#x136;" horiz-adv-x="1198" d="M72 0l278 1319h113l-148 -701l818 701h137l-613 -524l347 -795h-123l-310 721l-286 -248l-101 -473h-112zM324 -414l125 338h108l-149 -338h-84z" />
<glyph unicode="&#x137;" horiz-adv-x="1036" d="M72 0l293 1380h112l-186 -876l598 467h135l-479 -379l297 -592h-119l-266 528l-193 -151l-80 -377h-112zM240 -414l125 338h108l-149 -338h-84z" />
<glyph unicode="&#x138;" horiz-adv-x="1036" d="M72 0l204 971h113l-108 -510l608 510h135l-485 -410l303 -561h-119l-270 498l-199 -168l-70 -330h-112z" />
<glyph unicode="&#x139;" horiz-adv-x="1067" d="M72 0l278 1319h113l-260 -1229h729l-19 -90h-841zM375 1409l207 324h106l-221 -324h-92z" />
<glyph unicode="&#x13a;" horiz-adv-x="503" d="M102 109q0 39 9 77l254 1194h112l-254 -1190q-8 -45 -8 -57q0 -33 16.5 -45t53.5 -12q45 0 94 12l-21 -94q-45 -14 -112 -14q-72 0 -108 29.5t-36 99.5zM389 1481l207 323h106l-221 -323h-92z" />
<glyph unicode="&#x13b;" horiz-adv-x="1067" d="M72 0l278 1319h113l-260 -1229h729l-19 -90h-841zM291 -414l125 338h108l-149 -338h-84z" />
<glyph unicode="&#x13c;" horiz-adv-x="503" d="M53 -414l125 338h109l-150 -338h-84zM102 109q0 39 9 77l254 1194h112l-254 -1190q-8 -45 -8 -57q0 -33 16.5 -45t53.5 -12q45 0 94 12l-21 -94q-45 -14 -112 -14q-72 0 -108 29.5t-36 99.5z" />
<glyph unicode="&#x13d;" horiz-adv-x="1067" d="M72 0l278 1319h113l-260 -1229h729l-19 -90h-841zM762 1167l125 338h108l-149 -338h-84z" />
<glyph unicode="&#x13e;" horiz-adv-x="606" d="M102 109q0 39 9 77l254 1194h112l-254 -1190q-8 -45 -8 -57q0 -33 16.5 -45t53.5 -12q45 0 94 12l-21 -94q-45 -14 -112 -14q-72 0 -108 29.5t-36 99.5zM584 1288l125 338h108l-149 -338h-84z" />
<glyph unicode="&#x13f;" horiz-adv-x="1067" d="M72 0l278 1319h113l-260 -1229h729l-19 -90h-841zM635 528l24 117h121l-24 -117h-121z" />
<glyph unicode="&#x140;" horiz-adv-x="552" d="M102 109q0 39 9 77l254 1194h112l-254 -1190q-8 -45 -8 -57q0 -33 16.5 -45t53.5 -12q45 0 94 12l-21 -94q-45 -14 -112 -14q-72 0 -108 29.5t-36 99.5zM438 551l25 117h121l-25 -117h-121z" />
<glyph unicode="&#x141;" horiz-adv-x="1116" d="M25 510l22 98l217 88l133 623h113l-123 -574l344 138l-20 -99l-344 -137l-117 -557h731l-18 -90h-844l125 598z" />
<glyph unicode="&#x142;" horiz-adv-x="503" d="M-43 510l23 98l239 97l146 675h112l-135 -626l274 108l-20 -98l-274 -109l-99 -465q-6 -31 -6 -53q0 -33 16.5 -47t51.5 -14q45 0 94 12l-21 -94q-45 -14 -112 -14q-72 0 -108 29.5t-36 99.5q0 39 9 77l88 420z" />
<glyph unicode="&#x143;" horiz-adv-x="1343" d="M72 0l278 1319h107l573 -1151l244 1151h112l-278 -1319h-109l-571 1149l-244 -1149h-112zM850 1409l207 324h106l-221 -324h-92z" />
<glyph unicode="&#x144;" horiz-adv-x="1144" d="M72 0l204 971h99l-15 -119q195 139 422 139q285 0 285 -237q0 -51 -12 -113l-135 -641h-113l135 639q14 63 14 115q0 78 -49 110.5t-170 32.5q-104 0 -208.5 -38t-184.5 -103l-160 -756h-112zM666 1069l206 324h107l-221 -324h-92z" />
<glyph unicode="&#x145;" horiz-adv-x="1343" d="M72 0l278 1319h107l573 -1151l244 1151h112l-278 -1319h-109l-571 1149l-244 -1149h-112zM403 -414l125 338h109l-150 -338h-84z" />
<glyph unicode="&#x146;" horiz-adv-x="1144" d="M72 0l204 971h99l-15 -119q195 139 422 139q285 0 285 -237q0 -51 -12 -113l-135 -641h-113l135 639q14 63 14 115q0 78 -49 110.5t-170 32.5q-104 0 -208.5 -38t-184.5 -103l-160 -756h-112zM319 -414l125 338h109l-150 -338h-84z" />
<glyph unicode="&#x147;" horiz-adv-x="1343" d="M72 0l278 1319h107l573 -1151l244 1151h112l-278 -1319h-109l-571 1149l-244 -1149h-112zM725 1683h96l117 -210l207 210h106l-274 -276h-98z" />
<glyph unicode="&#x148;" horiz-adv-x="1144" d="M72 0l204 971h99l-15 -119q195 139 422 139q285 0 285 -237q0 -51 -12 -113l-135 -641h-113l135 639q14 63 14 115q0 78 -49 110.5t-170 32.5q-104 0 -208.5 -38t-184.5 -103l-160 -756h-112zM508 1343h96l117 -210l207 210h106l-274 -276h-98z" />
<glyph unicode="&#x149;" horiz-adv-x="1280" d="M195 993l124 338h109l-149 -338h-84zM207 0l205 971h98l-14 -119q195 139 422 139q285 0 284 -237q0 -51 -12 -113l-135 -641h-113l135 639q14 63 15 115q0 78 -49.5 110.5t-170.5 32.5q-104 0 -208.5 -38t-184.5 -103l-160 -756h-112z" />
<glyph unicode="&#x14a;" horiz-adv-x="1343" d="M72 0l278 1319h107l573 -1151l244 1151h112l-323 -1528q-29 -127 -117 -198.5t-217 -71.5q-94 -1 -160 24l21 93q61 -20 121 -21q111 0 166 43t73 137l45 209l-567 1143l-244 -1149h-112z" />
<glyph unicode="&#x14b;" horiz-adv-x="1144" d="M72 0l204 971h99l-15 -119q195 139 422 139q147 0 217 -55t70 -172q0 -59 -14 -123l-181 -850q-29 -127 -116.5 -198.5t-216.5 -71.5q-97 -1 -160 24l20 93q61 -20 121 -21q111 0 166 43t74 137l180 842q12 59 12 104q0 84 -54 119t-183 35q-98 0 -194.5 -38t-178.5 -103 l-160 -756h-112z" />
<glyph unicode="&#x14c;" horiz-adv-x="1409" d="M141 424q0 109 27 229q76 354 253 520t486 166q240 0 357.5 -105.5t117.5 -324.5q0 -111 -30 -256q-72 -338 -249 -505.5t-487 -167.5q-475 0 -475 444zM250 418q0 -178 92 -260t295 -82q244 0 391.5 140t210.5 437q33 145 33 260q0 176 -92.5 252t-294.5 76 q-166 0 -284 -57.5t-197.5 -186.5t-124.5 -344q-29 -139 -29 -235zM651 1473l19 86h565l-18 -86h-566z" />
<glyph unicode="&#x14d;" horiz-adv-x="1153" d="M113 305q0 86 20 180q53 254 187.5 380t381.5 126q379 0 379 -332q0 -84 -20 -174q-53 -256 -187.5 -380.5t-386.5 -124.5q-192 0 -283 81.5t-91 243.5zM221 309q0 -121 66.5 -177t220.5 -56q190 0 292.5 98t147.5 311q23 102 23 170q0 123 -67.5 180.5t-221.5 57.5 q-188 0 -290.5 -98.5t-147.5 -309.5q-23 -106 -23 -176zM453 1133l18 86h565l-18 -86h-565z" />
<glyph unicode="&#x14e;" horiz-adv-x="1409" d="M141 424q0 109 27 229q76 354 253 520t486 166q240 0 357.5 -105.5t117.5 -324.5q0 -111 -30 -256q-72 -338 -249 -505.5t-487 -167.5q-475 0 -475 444zM250 418q0 -178 92 -260t295 -82q244 0 391.5 140t210.5 437q33 145 33 260q0 176 -92.5 252t-294.5 76 q-166 0 -284 -57.5t-197.5 -186.5t-124.5 -344q-29 -139 -29 -235zM735 1577q0 27 6 57h82q-6 -27 -6 -49q0 -98 115 -98q66 0 114 39t62 108h90q-23 -102 -96.5 -164.5t-181.5 -62.5q-89 0 -137 46t-48 124z" />
<glyph unicode="&#x14f;" horiz-adv-x="1153" d="M113 305q0 86 20 180q53 254 187.5 380t381.5 126q379 0 379 -332q0 -84 -20 -174q-53 -256 -187.5 -380.5t-386.5 -124.5q-192 0 -283 81.5t-91 243.5zM221 309q0 -121 66.5 -177t220.5 -56q190 0 292.5 98t147.5 311q23 102 23 170q0 123 -67.5 180.5t-221.5 57.5 q-188 0 -290.5 -98.5t-147.5 -309.5q-23 -106 -23 -176zM535 1237q0 27 6 57h82q-6 -27 -7 -49q0 -98 115 -98q66 0 114 39t62 108h90q-23 -102 -96.5 -164.5t-181.5 -62.5q-88 0 -136 46t-48 124z" />
<glyph unicode="&#x150;" horiz-adv-x="1409" d="M141 424q0 109 27 229q76 354 253 520t486 166q240 0 357.5 -105.5t117.5 -324.5q0 -111 -30 -256q-72 -338 -249 -505.5t-487 -167.5q-475 0 -475 444zM250 418q0 -178 92 -260t295 -82q244 0 391.5 140t210.5 437q33 145 33 260q0 176 -92.5 252t-294.5 76 q-166 0 -284 -57.5t-197.5 -186.5t-124.5 -344q-29 -139 -29 -235zM631 1407l196 289h111l-215 -289h-92zM1036 1407l199 289h111l-218 -289h-92z" />
<glyph unicode="&#x151;" horiz-adv-x="1153" d="M113 305q0 86 20 180q53 254 187.5 380t381.5 126q379 0 379 -332q0 -84 -20 -174q-53 -256 -187.5 -380.5t-386.5 -124.5q-192 0 -283 81.5t-91 243.5zM221 309q0 -121 66.5 -177t220.5 -56q190 0 292.5 98t147.5 311q23 102 23 170q0 123 -67.5 180.5t-221.5 57.5 q-188 0 -290.5 -98.5t-147.5 -309.5q-23 -106 -23 -176zM485 1067l197 289h111l-215 -289h-93zM891 1067l199 289h110l-217 -289h-92z" />
<glyph unicode="&#x152;" horiz-adv-x="2162" d="M143 424q0 109 27 229q76 354 253 520t486 166q336 0 432 -209l41 189h863l-19 -92h-749l-111 -522h678l-21 -91h-677l-111 -524h750l-19 -90h-862l39 184q-186 -205 -525 -204q-475 0 -475 444zM252 418q0 -178 92 -260t295 -82q244 0 391.5 140t210.5 437 q33 145 33 260q0 176 -92 252t-295 76q-166 0 -284 -57.5t-197.5 -186.5t-124.5 -344q-29 -139 -29 -235z" />
<glyph unicode="&#x153;" horiz-adv-x="1892" d="M113 315q0 68 20 170q53 254 188.5 380t380.5 126q156 0 242 -56t113 -169q70 109 182.5 167t265.5 58q166 0 249 -76.5t83 -207.5q0 -49 -12 -105l-37 -176h-739q-10 -66 -11 -109q0 -131 81 -188t265 -57q133 0 275 51l-19 -92q-141 -51 -297 -51q-172 0 -269 55 t-124 170q-145 -225 -463 -225q-188 0 -281 85t-93 250zM221 305q0 -119 66.5 -174t220.5 -55q190 0 292.5 99t147.5 314q20 90 21 166q0 121 -67.5 179.5t-219.5 58.5q-188 0 -290.5 -98.5t-147.5 -309.5q-23 -109 -23 -180zM1067 514h635l18 92q12 55 13 103 q0 92 -57.5 140t-186.5 48q-184 0 -282.5 -95t-139.5 -288z" />
<glyph unicode="&#x154;" horiz-adv-x="1212" d="M72 0l278 1319h551q164 0 244 -72.5t80 -206.5q0 -53 -13 -114q-33 -154 -127 -250t-243 -123q39 -20 54 -50t30 -91l90 -412h-115l-90 397q-10 51 -29.5 78t-60.5 40t-117 13h-309l-111 -528h-112zM315 618h406q311 0 379 308q12 59 12 106q0 98 -56.5 146.5 t-181.5 48.5h-430zM752 1409l206 324h107l-221 -324h-92z" />
<glyph unicode="&#x155;" horiz-adv-x="700" d="M72 0l204 971h99l-17 -135q86 51 191.5 92t206.5 63l-19 -92q-96 -23 -210.5 -67t-184.5 -87l-158 -745h-112zM389 1069l207 324h106l-221 -324h-92z" />
<glyph unicode="&#x156;" horiz-adv-x="1212" d="M72 0l278 1319h551q164 0 244 -72.5t80 -206.5q0 -53 -13 -114q-33 -154 -127 -250t-243 -123q39 -20 54 -50t30 -91l90 -412h-115l-90 397q-10 51 -29.5 78t-60.5 40t-117 13h-309l-111 -528h-112zM291 -414l125 338h108l-149 -338h-84zM315 618h406q311 0 379 308 q12 59 12 106q0 98 -56.5 146.5t-181.5 48.5h-430z" />
<glyph unicode="&#x157;" horiz-adv-x="700" d="M-72 -414l125 338h109l-150 -338h-84zM72 0l204 971h99l-17 -135q86 51 191.5 92t206.5 63l-19 -92q-96 -23 -210.5 -67t-184.5 -87l-158 -745h-112z" />
<glyph unicode="&#x158;" horiz-adv-x="1212" d="M72 0l278 1319h551q164 0 244 -72.5t80 -206.5q0 -53 -13 -114q-33 -154 -127 -250t-243 -123q39 -20 54 -50t30 -91l90 -412h-115l-90 397q-10 51 -29.5 78t-60.5 40t-117 13h-309l-111 -528h-112zM315 618h406q311 0 379 308q12 59 12 106q0 98 -56.5 146.5 t-181.5 48.5h-430zM612 1683h97l116 -210l207 210h107l-275 -276h-98z" />
<glyph unicode="&#x159;" horiz-adv-x="700" d="M72 0l204 971h99l-17 -135q86 51 191.5 92t206.5 63l-19 -92q-96 -23 -210.5 -67t-184.5 -87l-158 -745h-112zM205 1343h96l117 -210l207 210h106l-274 -276h-99z" />
<glyph unicode="&#x15a;" horiz-adv-x="1132" d="M70 37l22 100q154 -61 361 -61q197 0 306 61.5t138 198.5q8 45 8 63q0 88 -75.5 137.5t-260.5 94.5q-176 41 -257 107.5t-81 170.5q0 41 9 76q76 354 548 354q102 0 195.5 -15t146.5 -34l-20 -100q-137 51 -322 51q-197 0 -304 -61.5t-134 -194.5q-8 -45 -8 -59 q0 -53 32 -90t100.5 -65t191.5 -58q190 -47 271 -117t81 -174q0 -35 -10 -86q-37 -176 -181.5 -266t-386.5 -90q-237 0 -370 57zM709 1421l206 324h107l-221 -324h-92z" />
<glyph unicode="&#x15b;" horiz-adv-x="915" d="M61 20l21 101q123 -45 274 -45q143 0 213 39t90 131q6 25 7 45q0 55 -41 82.5t-156 68.5l-49 19q-94 35 -137 55.5t-74 58t-31 97.5q0 18 8 63q27 129 125.5 192.5t284.5 63.5q141 0 252 -35l-23 -100q-111 37 -233 37q-145 0 -212 -36t-83 -120q-4 -14 -4 -41 q0 -55 45 -82.5t172 -70.5q145 -49 207.5 -96.5t62.5 -133.5q0 -35 -8 -67q-57 -266 -422 -266q-84 0 -160.5 11t-128.5 29zM549 1069l207 324h106l-221 -324h-92z" />
<glyph unicode="&#x15c;" horiz-adv-x="1132" d="M70 37l22 100q154 -61 361 -61q197 0 306 61.5t138 198.5q8 45 8 63q0 88 -75.5 137.5t-260.5 94.5q-176 41 -257 107.5t-81 170.5q0 41 9 76q76 354 548 354q102 0 195.5 -15t146.5 -34l-20 -100q-137 51 -322 51q-197 0 -304 -61.5t-134 -194.5q-8 -45 -8 -59 q0 -53 32 -90t100.5 -65t191.5 -58q190 -47 271 -117t81 -174q0 -35 -10 -86q-37 -176 -181.5 -266t-386.5 -90q-237 0 -370 57zM524 1440l273 276h98l156 -276h-99l-116 211l-207 -211h-105z" />
<glyph unicode="&#x15d;" horiz-adv-x="915" d="M61 20l21 101q123 -45 274 -45q143 0 213 39t90 131q6 25 7 45q0 55 -41 82.5t-156 68.5l-49 19q-94 35 -137 55.5t-74 58t-31 97.5q0 18 8 63q27 129 125.5 192.5t284.5 63.5q141 0 252 -35l-23 -100q-111 37 -233 37q-145 0 -212 -36t-83 -120q-4 -14 -4 -41 q0 -55 45 -82.5t172 -70.5q145 -49 207.5 -96.5t62.5 -133.5q0 -35 -8 -67q-57 -266 -422 -266q-84 0 -160.5 11t-128.5 29zM360 1087l273 277h98l156 -277h-99l-116 211l-207 -211h-105z" />
<glyph unicode="&#x15e;" horiz-adv-x="1132" d="M70 37l22 100q154 -61 361 -61q197 0 306 61.5t138 198.5q8 45 8 63q0 88 -75.5 137.5t-260.5 94.5q-176 41 -257 107.5t-81 170.5q0 41 9 76q76 354 548 354q102 0 195.5 -15t146.5 -34l-20 -100q-137 51 -322 51q-196 0 -303.5 -61.5t-134.5 -194.5q-8 -45 -8 -59 q0 -53 32 -90t100.5 -65t191.5 -58q190 -47 271 -117t81 -174q0 -35 -10 -86q-33 -164 -162 -254t-344 -100l-45 -86q197 0 196 -136q0 -29 -4 -45q-45 -207 -327 -207q-31 0 -70 5.5t-62 11.5l17 76q55 -16 125 -17q106 0 160.5 30t68.5 101q4 20 4 31q0 45 -40 63.5 t-126 18.5h-67l82 152q-221 2 -344 57z" />
<glyph unicode="&#x15f;" horiz-adv-x="915" d="M61 20l21 101q123 -45 274 -45q143 0 213 39t90 131q6 25 7 45q0 55 -41 82.5t-156 68.5l-49 19q-94 35 -137 55.5t-74 58t-31 97.5q0 18 8 63q27 129 125.5 192.5t284.5 63.5q141 0 252 -35l-23 -100q-111 37 -233 37q-146 0 -212.5 -36t-82.5 -120q-4 -14 -4 -41 q0 -55 45 -82.5t172 -70.5q145 -49 207.5 -96.5t62.5 -133.5q0 -35 -8 -67q-51 -238 -352 -264l-45 -86q197 0 196 -136q0 -29 -4 -45q-45 -207 -327 -207q-31 0 -70 5.5t-61 11.5l16 76q55 -16 125 -17q106 0 160.5 30t68.5 101q4 20 4 31q0 45 -40 63.5t-126 18.5h-67 l82 152q-164 4 -271 40z" />
<glyph unicode="&#x160;" horiz-adv-x="1132" d="M70 37l22 100q154 -61 361 -61q197 0 306 61.5t138 198.5q8 45 8 63q0 88 -75.5 137.5t-260.5 94.5q-176 41 -257 107.5t-81 170.5q0 41 9 76q76 354 548 354q102 0 195.5 -15t146.5 -34l-20 -100q-137 51 -322 51q-197 0 -304 -61.5t-134 -194.5q-8 -45 -8 -59 q0 -53 32 -90t100.5 -65t191.5 -58q190 -47 271 -117t81 -174q0 -35 -10 -86q-37 -176 -181.5 -266t-386.5 -90q-237 0 -370 57zM608 1683h97l116 -210l207 210h107l-275 -276h-98z" />
<glyph unicode="&#x161;" horiz-adv-x="915" d="M61 20l21 101q123 -45 274 -45q143 0 213 39t90 131q6 25 7 45q0 55 -41 82.5t-156 68.5l-49 19q-94 35 -137 55.5t-74 58t-31 97.5q0 18 8 63q27 129 125.5 192.5t284.5 63.5q141 0 252 -35l-23 -100q-111 37 -233 37q-145 0 -212 -36t-83 -120q-4 -14 -4 -41 q0 -55 45 -82.5t172 -70.5q145 -49 207.5 -96.5t62.5 -133.5q0 -35 -8 -67q-57 -266 -422 -266q-84 0 -160.5 11t-128.5 29zM410 1343h96l117 -210l206 210h107l-274 -276h-99z" />
<glyph unicode="&#x162;" horiz-adv-x="1165" d="M221 -475l17 76q55 -16 124 -17q106 0 161 30t69 101q4 20 4 31q0 45 -40 63.5t-126 18.5h-68l93 172h-11l261 1227h-455l18 92h1022l-18 -92h-455l-260 -1227h-14l-56 -104q197 0 197 -136q0 -29 -4 -45q-45 -207 -328 -207q-30 0 -69 5.5t-62 11.5z" />
<glyph unicode="&#x163;" horiz-adv-x="761" d="M98 -475l17 76q55 -16 125 -17q106 0 160.5 30t68.5 101q4 20 4 31q0 45 -40 63.5t-126 18.5h-67l86 160q-68 18 -104 65t-36 121q0 43 9 78l131 625h-152l21 94h151l55 254l119 37l-61 -291h280l-26 -94h-275l-131 -621q-10 -47 -10 -76q0 -61 38 -84.5t122 -23.5 q57 0 125 22l-19 -90q-74 -25 -155 -24l-43 -84q197 0 196 -136q0 -29 -4 -45q-45 -207 -328 -207q-30 0 -69 5.5t-62 11.5z" />
<glyph unicode="&#x164;" horiz-adv-x="1165" d="M250 1227l18 92h1022l-18 -92h-455l-260 -1227h-113l261 1227h-455zM600 1716h96l117 -211l207 211h106l-274 -276h-98z" />
<glyph unicode="&#x165;" horiz-adv-x="790" d="M174 877l21 94h151l55 254l119 37l-61 -291h280l-26 -94h-275l-131 -621q-10 -47 -10 -76q0 -61 38 -84.5t122 -23.5q57 0 125 22l-19 -90q-74 -25 -160 -24q-106 0 -162.5 50t-56.5 142q0 33 11 80l131 625h-152zM758 1147l125 338h108l-149 -338h-84z" />
<glyph unicode="&#x166;" horiz-adv-x="1165" d="M250 1227l18 92h1022l-18 -92h-455l-96 -455h293l-21 -90h-293l-143 -682h-113l144 682h-328l21 90h327l97 455h-455z" />
<glyph unicode="&#x167;" horiz-adv-x="724" d="M100 475l19 86h141l66 316h-152l21 94h151l55 254l119 37l-61 -291h280l-26 -94h-275l-67 -316h293l-19 -86h-293l-45 -219q-8 -45 -8 -63q0 -61 39 -91t123 -30q53 0 121 22l-19 -90q-74 -25 -160 -24q-106 0 -162.5 50t-56.5 142q0 33 11 80l47 223h-142z" />
<glyph unicode="&#x168;" horiz-adv-x="1357" d="M145 340q0 59 17 137l178 842h113l-181 -854q-14 -66 -14 -127q0 -133 87 -196.5t269 -63.5q199 0 331 94t173 293l180 854h113l-178 -842q-106 -498 -641 -497q-219 0 -333 94t-114 266zM618 1464l21 97q29 27 77 43t95 16q37 0 65.5 -9t69.5 -30q37 -18 62.5 -27.5 t56.5 -9.5q98 0 164 72l-21 -96q-25 -29 -66.5 -44.5t-90.5 -15.5q-35 0 -68 10.5t-74 30.5q-37 16 -62.5 25.5t-51.5 9.5q-104 0 -177 -72z" />
<glyph unicode="&#x169;" horiz-adv-x="1144" d="M123 242q0 53 12 114l131 615h113l-131 -619q-12 -57 -12 -104q0 -94 57 -135t184 -41q98 0 191.5 37.5t173.5 103.5l159 758h113l-205 -971h-100l14 119q-92 -68 -192.5 -103.5t-220.5 -35.5q-140 0 -213.5 67.5t-73.5 194.5zM442 1124l21 97q29 27 77 43t95 16 q37 0 65.5 -9t69.5 -30q37 -18 62.5 -27.5t56.5 -9.5q98 0 164 72l-21 -96q-25 -29 -66.5 -44.5t-91.5 -15.5q-34 0 -67 10.5t-74 30.5q-37 16 -62.5 25.5t-52.5 9.5q-104 0 -176 -72z" />
<glyph unicode="&#x16a;" horiz-adv-x="1357" d="M145 340q0 59 17 137l178 842h113l-181 -854q-14 -66 -14 -127q0 -133 87 -196.5t269 -63.5q199 0 331 94t173 293l180 854h113l-178 -842q-106 -498 -641 -497q-219 0 -333 94t-114 266zM627 1473l18 86h565l-18 -86h-565z" />
<glyph unicode="&#x16b;" horiz-adv-x="1144" d="M123 242q0 53 12 114l131 615h113l-131 -619q-12 -57 -12 -104q0 -94 57 -135t184 -41q98 0 191.5 37.5t173.5 103.5l159 758h113l-205 -971h-100l14 119q-92 -68 -192.5 -103.5t-220.5 -35.5q-140 0 -213.5 67.5t-73.5 194.5zM444 1133l19 86h565l-18 -86h-566z" />
<glyph unicode="&#x16c;" horiz-adv-x="1357" d="M145 340q0 59 17 137l178 842h113l-181 -854q-14 -66 -14 -127q0 -133 87 -196.5t269 -63.5q199 0 331 94t173 293l180 854h113l-178 -842q-106 -498 -641 -497q-219 0 -333 94t-114 266zM709 1577q0 27 6 57h82q-6 -27 -6 -49q0 -98 114 -98q66 0 114 39t62 108h90 q-23 -102 -96.5 -164.5t-181.5 -62.5q-88 0 -136 46t-48 124z" />
<glyph unicode="&#x16d;" horiz-adv-x="1144" d="M123 242q0 53 12 114l131 615h113l-131 -619q-12 -57 -12 -104q0 -94 57 -135t184 -41q98 0 191.5 37.5t173.5 103.5l159 758h113l-205 -971h-100l14 119q-92 -68 -192.5 -103.5t-220.5 -35.5q-140 0 -213.5 67.5t-73.5 194.5zM532 1237q0 27 7 57h82q-6 -27 -7 -49 q0 -98 115 -98q66 0 114 39t62 108h90q-23 -102 -96.5 -164.5t-181.5 -62.5q-88 0 -136.5 46t-48.5 124z" />
<glyph unicode="&#x16e;" horiz-adv-x="1357" d="M145 340q0 59 17 137l178 842h113l-181 -854q-14 -66 -14 -127q0 -133 87 -196.5t269 -63.5q199 0 331 94t173 293l180 854h113l-178 -842q-106 -498 -641 -497q-219 0 -333 94t-114 266zM723 1569q0 29 4 45q18 90 88 149.5t166 59.5q78 0 124 -45t46 -117q0 -31 -4 -47 q-18 -88 -88 -147.5t-166 -59.5q-78 0 -124 46t-46 116zM797 1579q0 -45 27.5 -71.5t82.5 -26.5q70 0 119 50t49 120q0 45 -27.5 71.5t-82.5 26.5q-68 0 -118 -50t-50 -120z" />
<glyph unicode="&#x16f;" horiz-adv-x="1144" d="M123 242q0 53 12 114l131 615h113l-131 -619q-12 -57 -12 -104q0 -94 57 -135t184 -41q98 0 191.5 37.5t173.5 103.5l159 758h113l-205 -971h-100l14 119q-92 -68 -192.5 -103.5t-220.5 -35.5q-140 0 -213.5 67.5t-73.5 194.5zM551 1229q0 29 4 45q18 90 88 149.5 t166 59.5q78 0 124 -45t46 -117q0 -31 -4 -47q-18 -88 -88 -147.5t-166 -59.5q-78 0 -124 46t-46 116zM625 1239q0 -45 27.5 -71.5t82.5 -26.5q70 0 119 50t49 120q0 45 -27.5 71.5t-82.5 26.5q-68 0 -118 -50t-50 -120z" />
<glyph unicode="&#x170;" horiz-adv-x="1357" d="M145 340q0 59 17 137l178 842h113l-181 -854q-14 -66 -14 -127q0 -133 87 -196.5t269 -63.5q199 0 331 94t173 293l180 854h113l-178 -842q-106 -498 -641 -497q-219 0 -333 94t-114 266zM575 1407l197 289h111l-215 -289h-93zM981 1407l199 289h110l-217 -289h-92z" />
<glyph unicode="&#x171;" horiz-adv-x="1144" d="M123 242q0 53 12 114l131 615h113l-131 -619q-12 -57 -12 -104q0 -94 57 -135t184 -41q98 0 191.5 37.5t173.5 103.5l159 758h113l-205 -971h-100l14 119q-92 -68 -192.5 -103.5t-220.5 -35.5q-140 0 -213.5 67.5t-73.5 194.5zM412 1067l196 289h111l-215 -289h-92z M817 1067l199 289h110l-217 -289h-92z" />
<glyph unicode="&#x172;" horiz-adv-x="1357" d="M145 340q0 59 17 137l178 842h113l-181 -854q-14 -66 -14 -127q0 -133 87 -196.5t269 -63.5q199 0 331 94t173 293l180 854h113l-178 -842q-100 -461 -559 -493q-152 -111 -180 -246q-4 -14 -5 -37q0 -37 21.5 -52.5t69.5 -15.5q61 0 106 23l-18 -84q-47 -23 -123 -23 q-72 0 -114 31t-42 96q0 84 52.5 165t133.5 139q-211 4 -320.5 97t-109.5 263z" />
<glyph unicode="&#x173;" horiz-adv-x="1144" d="M123 242q0 53 12 114l131 615h113l-131 -619q-12 -57 -12 -104q0 -94 57 -135t184 -41q98 0 191.5 37.5t173.5 103.5l159 758h113l-205 -971q-86 -55 -138 -122.5t-69 -139.5q-4 -14 -4 -37q0 -37 21.5 -52.5t68.5 -15.5q61 0 107 23l-18 -84q-47 -23 -123 -23 q-72 0 -114 31t-42 96q0 90 62.5 179.5t148.5 144.5l14 119q-92 -68 -192.5 -103.5t-220.5 -35.5q-139 0 -213 67.5t-74 194.5z" />
<glyph unicode="&#x174;" horiz-adv-x="1740" d="M309 1319h113l22 -1182l543 1049l27 133h92l84 -1182l524 1182h111l-584 -1319h-129l-76 1085l-555 -1085h-143zM834 1407l272 276h98l156 -276h-98l-117 211l-207 -211h-104z" />
<glyph unicode="&#x175;" horiz-adv-x="1472" d="M236 971h112l31 -856l403 749l23 107h88l84 -856l393 856h113l-457 -971h-115l-84 772l-415 -772h-129zM621 1067l272 276h98l156 -276h-98l-117 211l-207 -211h-104z" />
<glyph unicode="&#x176;" horiz-adv-x="1277" d="M309 1319h111l256 -727l563 727h123l-645 -825l-105 -494h-112l104 494zM590 1407l272 276h99l155 -276h-98l-117 211l-207 -211h-104z" />
<glyph unicode="&#x177;" horiz-adv-x="1159" d="M123 242q0 53 12 114l131 615h113l-131 -619q-12 -57 -12 -104q0 -94 57 -135t184 -41q98 0 191.5 37.5t173.5 103.5l159 758h113l-207 -977q-23 -106 -102.5 -186t-196 -124t-246.5 -44q-55 0 -124.5 6t-104.5 14l21 98q39 -12 99 -18t109 -6q168 0 286 64.5t147 185.5 l28 135q-92 -68 -192.5 -103.5t-220.5 -35.5q-139 0 -213 67.5t-74 194.5zM481 1067l273 276h98l156 -276h-99l-116 211l-207 -211h-105z" />
<glyph unicode="&#x178;" horiz-adv-x="1277" d="M309 1319h111l256 -727l563 727h123l-645 -825l-105 -494h-112l104 494zM641 1462l23 113h116l-24 -113h-115zM981 1462l25 113h114l-24 -113h-115z" />
<glyph unicode="&#x179;" horiz-adv-x="1163" d="M31 0l14 70l1045 1157h-764l18 92h903l-16 -80l-1036 -1149h802l-18 -90h-948zM788 1409l207 324h107l-221 -324h-93z" />
<glyph unicode="&#x17a;" horiz-adv-x="980" d="M31 0l14 70l780 807h-581l20 94h715l-16 -78l-777 -801h619l-19 -92h-755zM602 1069l207 324h106l-221 -324h-92z" />
<glyph unicode="&#x17b;" horiz-adv-x="1163" d="M31 0l14 70l1045 1157h-764l18 92h903l-16 -80l-1036 -1149h802l-18 -90h-948zM782 1462l25 115h117l-25 -115h-117z" />
<glyph unicode="&#x17c;" horiz-adv-x="980" d="M31 0l14 70l780 807h-581l20 94h715l-16 -78l-777 -801h619l-19 -92h-755zM602 1122l25 115h116l-24 -115h-117z" />
<glyph unicode="&#x17d;" horiz-adv-x="1163" d="M31 0l14 70l1045 1157h-764l18 92h903l-16 -80l-1036 -1149h802l-18 -90h-948zM641 1683h96l117 -210l207 210h106l-274 -276h-98z" />
<glyph unicode="&#x17e;" horiz-adv-x="980" d="M31 0l14 70l780 807h-581l20 94h715l-16 -78l-777 -801h619l-19 -92h-755zM422 1343h96l117 -210l207 210h106l-274 -276h-99z" />
<glyph unicode="&#x18f;" horiz-adv-x="1355" d="M121 367q0 61 16 139l45 213h1026q18 98 19 180q0 178 -110.5 262t-366.5 84q-88 0 -191.5 -18.5t-196.5 -52.5l21 94q92 33 196.5 52t200.5 19q279 0 413 -111.5t134 -338.5q0 -104 -29 -242q-70 -324 -250 -495.5t-491 -171.5q-215 0 -325.5 104t-110.5 283zM221 354 q0 -141 87 -211.5t270 -70.5q256 0 404 140t208 419h-924l-28 -137q-16 -82 -17 -140z" />
<glyph unicode="&#x192;" horiz-adv-x="1060" d="M-293 -227l31 90q51 -23 125 -23q109 0 170 42t106 145l361 850h-150l39 94h150l71 164q63 145 155.5 211.5t246.5 66.5q88 0 147 -27l-31 -88q-55 23 -124 23q-111 0 -175.5 -46t-107.5 -142l-70 -162h273l-47 -94h-265l-360 -850q-59 -141 -151.5 -210t-250.5 -69 q-80 0 -143 25z" />
<glyph unicode="&#x1a0;" horiz-adv-x="1533" d="M141 424q0 109 27 229q76 354 253 520t486 166q311 0 418 -180q125 2 185.5 55.5t91.5 194.5h98q-37 -172 -119 -250t-219 -90q20 -68 20 -162q0 -113 -30 -254q-72 -338 -249 -505.5t-487 -167.5q-475 0 -475 444zM250 418q0 -178 92 -260t295 -82q244 0 391.5 140 t210.5 437q33 145 33 260q0 176 -92.5 252t-294.5 76q-166 0 -284 -57.5t-197.5 -186.5t-124.5 -344q-29 -139 -29 -235z" />
<glyph unicode="&#x1a1;" horiz-adv-x="1308" d="M113 305q0 86 20 180q53 254 187.5 380t381.5 126q256 0 338 -149q123 2 180.5 57t88.5 199h98q-37 -174 -118 -252t-218 -90q10 -51 10 -99q0 -82 -20 -172q-53 -256 -187.5 -380.5t-386.5 -124.5q-192 0 -283 81.5t-91 243.5zM221 309q0 -121 66.5 -177t220.5 -56 q190 0 292.5 98t147.5 311q23 102 23 170q0 123 -67.5 180.5t-221.5 57.5q-188 0 -290.5 -98.5t-147.5 -309.5q-23 -106 -23 -176z" />
<glyph unicode="&#x1af;" horiz-adv-x="1607" d="M145 340q0 59 17 137l178 842h113l-181 -854q-14 -66 -14 -127q0 -133 87 -196.5t269 -63.5q199 0 331 94t173 293l180 854h113l-35 -164q127 0 187.5 54.5t91.5 199.5h98q-41 -190 -136 -267t-259 -79l-125 -586q-106 -498 -641 -497q-219 0 -333 94t-114 266z" />
<glyph unicode="&#x1b0;" horiz-adv-x="1349" d="M123 242q0 53 12 114l131 615h113l-131 -619q-12 -57 -12 -104q0 -94 57 -135t184 -41q98 0 191.5 37.5t173.5 103.5l159 758h113l-29 -129q106 6 160.5 63.5t83.5 192.5h98q-37 -176 -127 -257t-233 -87l-158 -754h-100l14 119q-92 -68 -192.5 -103.5t-220.5 -35.5 q-140 0 -213.5 67.5t-73.5 194.5z" />
<glyph unicode="&#x1cd;" horiz-adv-x="1366" d="M31 0l778 1319h143l219 -1319h-108l-66 385h-618l-225 -385h-123zM424 477h567l-125 752zM694 1686h97l116 -211l207 211h107l-275 -277h-98z" />
<glyph unicode="&#x1ce;" horiz-adv-x="1087" d="M106 293q0 72 19 160q55 258 209.5 398t359.5 140q100 0 169 -23.5t132 -78.5l17 82h112l-204 -971h-95l13 109q-86 -66 -177.5 -97.5t-201.5 -31.5q-353 0 -353 313zM217 301q0 -123 68.5 -176t220.5 -53q192 0 344 131l125 588q-51 53 -112.5 79.5t-153.5 26.5 q-182 0 -305 -114.5t-168 -329.5q-18 -86 -19 -152zM506 1343h96l117 -210l207 210h106l-274 -276h-99z" />
<glyph unicode="&#x1cf;" horiz-adv-x="419" d="M72 0l278 1319h113l-279 -1319h-112zM221 1683h96l117 -210l207 210h107l-275 -276h-98z" />
<glyph unicode="&#x1d0;" horiz-adv-x="552" d="M205 0l184 877h-153l28 94h258l-205 -971h-112zM244 1343h96l117 -210l207 210h106l-274 -276h-99z" />
<glyph unicode="&#x1d1;" horiz-adv-x="1409" d="M141 424q0 109 27 229q76 354 253 520t486 166q240 0 357.5 -105.5t117.5 -324.5q0 -111 -30 -256q-72 -338 -249 -505.5t-487 -167.5q-475 0 -475 444zM250 418q0 -178 92 -260t295 -82q244 0 391.5 140t210.5 437q33 145 33 260q0 176 -92.5 252t-294.5 76 q-166 0 -284 -57.5t-197.5 -186.5t-124.5 -344q-29 -139 -29 -235zM717 1683h96l117 -210l207 210h106l-274 -276h-99z" />
<glyph unicode="&#x1d2;" horiz-adv-x="1153" d="M113 305q0 86 20 180q53 254 187.5 380t381.5 126q379 0 379 -332q0 -84 -20 -174q-53 -256 -187.5 -380.5t-386.5 -124.5q-192 0 -283 81.5t-91 243.5zM221 309q0 -121 66.5 -177t220.5 -56q190 0 292.5 98t147.5 311q23 102 23 170q0 123 -67.5 180.5t-221.5 57.5 q-188 0 -290.5 -98.5t-147.5 -309.5q-23 -106 -23 -176zM516 1343h96l117 -210l207 210h106l-274 -276h-98z" />
<glyph unicode="&#x1d3;" horiz-adv-x="1357" d="M145 340q0 59 17 137l178 842h113l-181 -854q-14 -66 -14 -127q0 -133 87 -196.5t269 -63.5q199 0 331 94t173 293l180 854h113l-178 -842q-106 -498 -641 -497q-219 0 -333 94t-114 266zM690 1683h96l117 -210l207 210h107l-275 -276h-98z" />
<glyph unicode="&#x1d4;" horiz-adv-x="1144" d="M123 242q0 53 12 114l131 615h113l-131 -619q-12 -57 -12 -104q0 -94 57 -135t184 -41q98 0 191.5 37.5t173.5 103.5l159 758h113l-205 -971h-100l14 119q-92 -68 -192.5 -103.5t-220.5 -35.5q-140 0 -213.5 67.5t-73.5 194.5zM510 1343h96l117 -210l207 210h106 l-274 -276h-98z" />
<glyph unicode="&#x1d5;" horiz-adv-x="1357" d="M145 340q0 59 17 137l178 842h113l-181 -854q-14 -66 -14 -127q0 -133 87 -196.5t269 -63.5q199 0 331 94t173 293l180 854h113l-178 -842q-106 -498 -641 -497q-219 0 -333 94t-114 266zM678 1456l22 113h117l-24 -113h-115zM678 1677l18 86h566l-19 -86h-565z M1018 1456l24 113h115l-24 -113h-115z" />
<glyph unicode="&#x1d6;" horiz-adv-x="1144" d="M123 242q0 53 12 114l131 615h113l-131 -619q-12 -57 -12 -104q0 -94 57 -135t184 -41q98 0 191.5 37.5t173.5 103.5l159 758h113l-205 -971h-100l14 119q-92 -68 -192.5 -103.5t-220.5 -35.5q-140 0 -213.5 67.5t-73.5 194.5zM504 1116l22 113h117l-25 -113h-114z M516 1364l19 86h565l-19 -86h-565zM844 1116l24 113h115l-25 -113h-114z" />
<glyph unicode="&#x1d7;" horiz-adv-x="1357" d="M145 340q0 59 17 137l178 842h113l-181 -854q-14 -66 -14 -127q0 -133 87 -196.5t269 -63.5q199 0 331 94t173 293l180 854h113l-178 -842q-106 -498 -641 -497q-219 0 -333 94t-114 266zM651 1407l25 113h117l-25 -113h-117zM874 1565l175 239h102l-184 -239h-93z M1014 1407l24 113h113l-25 -113h-112z" />
<glyph unicode="&#x1d8;" horiz-adv-x="1144" d="M123 242q0 53 12 114l131 615h113l-131 -619q-12 -57 -12 -104q0 -94 57 -135t184 -41q98 0 191.5 37.5t173.5 103.5l159 758h113l-205 -971h-100l14 119q-92 -68 -192.5 -103.5t-220.5 -35.5q-140 0 -213.5 67.5t-73.5 194.5zM471 1067l25 113h116l-24 -113h-117z M694 1225l174 239h103l-185 -239h-92zM834 1067l24 113h113l-25 -113h-112z" />
<glyph unicode="&#x1d9;" horiz-adv-x="1357" d="M145 340q0 59 17 137l178 842h113l-181 -854q-14 -66 -14 -127q0 -133 87 -196.5t269 -63.5q199 0 331 94t173 293l180 854h113l-178 -842q-106 -498 -641 -497q-219 0 -333 94t-114 266zM651 1407l25 113h117l-25 -113h-117zM717 1790h100l123 -174l195 174h100 l-258 -225h-98zM1014 1407l24 113h113l-25 -113h-112z" />
<glyph unicode="&#x1da;" horiz-adv-x="1144" d="M123 242q0 53 12 114l131 615h113l-131 -619q-12 -57 -12 -104q0 -94 57 -135t184 -41q98 0 191.5 37.5t173.5 103.5l159 758h113l-205 -971h-100l14 119q-92 -68 -192.5 -103.5t-220.5 -35.5q-140 0 -213.5 67.5t-73.5 194.5zM469 1067l25 113h116l-24 -113h-117z M535 1450h100l123 -174l194 174h101l-258 -225h-99zM831 1067l25 113h113l-25 -113h-113z" />
<glyph unicode="&#x1db;" horiz-adv-x="1357" d="M145 340q0 59 17 137l178 842h113l-181 -854q-14 -66 -14 -127q0 -133 87 -196.5t269 -63.5q199 0 331 94t173 293l180 854h113l-178 -842q-106 -498 -641 -497q-219 0 -333 94t-114 266zM657 1407l25 113h115l-25 -113h-115zM801 1804h104l72 -239h-92zM1018 1407 l24 113h115l-24 -113h-115z" />
<glyph unicode="&#x1dc;" horiz-adv-x="1144" d="M123 242q0 53 12 114l131 615h113l-131 -619q-12 -57 -12 -104q0 -94 57 -135t184 -41q98 0 191.5 37.5t173.5 103.5l159 758h113l-205 -971h-100l14 119q-92 -68 -192.5 -103.5t-220.5 -35.5q-140 0 -213.5 67.5t-73.5 194.5zM477 1067l25 113h114l-24 -113h-115z M621 1464h104l72 -239h-92zM838 1067l24 113h115l-25 -113h-114z" />
<glyph unicode="&#x1e6;" horiz-adv-x="1296" d="M139 430q0 86 23 193q74 340 258 528t500 188q209 0 364 -55l-22 -100q-158 57 -353 57q-270 0 -421.5 -159.5t-215.5 -458.5q-25 -113 -24 -205q0 -170 97 -256t319 -86q94 0 192 16.5t172 44.5l98 469h-374l20 90h477l-131 -616q-74 -43 -195.5 -71.5t-291.5 -28.5 q-244 0 -368 118.5t-124 331.5zM731 1683h96l117 -210l207 210h106l-274 -276h-98z" />
<glyph unicode="&#x1e7;" horiz-adv-x="1110" d="M115 322q0 70 18 161q53 260 191.5 384t349.5 124q111 0 188.5 -31.5t134.5 -99.5l33 111h94l-206 -977q-35 -164 -169.5 -259t-338.5 -95q-56 0 -125.5 6t-104.5 14l21 98q39 -12 99 -18t110 -6q160 0 263 63.5t130 186.5l24 116q-82 -53 -165.5 -76.5t-188.5 -23.5 q-170 0 -264 78t-94 244zM223 326q0 -125 71 -179.5t226 -54.5q183 0 328 109l121 565q-96 131 -287 131q-184 0 -289.5 -101.5t-148.5 -312.5q-20 -102 -21 -157zM524 1343h97l116 -210l207 210h107l-275 -276h-98z" />
<glyph unicode="&#x1fa;" horiz-adv-x="1366" d="M31 0l755 1282q-43 18 -65.5 56t-22.5 87q0 68 36 127.5t95.5 94t126.5 34.5q78 0 124 -45t46 -116q0 -78 -47 -142.5t-121 -95.5l213 -1282h-114l-66 385h-618l-226 -385h-116zM418 477h567l-125 752zM772 1444q0 -47 31 -76t82 -29q67 0 116.5 48.5t49.5 117.5 q0 45 -31 74t-80 29q-68 0 -118 -48.5t-50 -115.5zM901 1743l201 293h106l-217 -293h-90z" />
<glyph unicode="&#x1fb;" horiz-adv-x="1087" d="M106 293q0 72 19 160q55 258 209.5 398t359.5 140q100 0 169 -23.5t132 -78.5l17 82h112l-204 -971h-95l13 109q-86 -66 -177.5 -97.5t-201.5 -31.5q-353 0 -353 313zM217 301q0 -123 68.5 -176t220.5 -53q192 0 344 131l125 588q-51 53 -112.5 79.5t-153.5 26.5 q-182 0 -305 -114.5t-168 -329.5q-18 -86 -19 -152zM541 1227q0 29 4 45q18 90 87.5 149.5t166.5 59.5q78 0 124 -45t46 -117q0 -31 -4 -47q-18 -88 -88 -147.5t-166 -59.5q-78 0 -124 46t-46 116zM614 1237q0 -45 28 -71.5t83 -26.5q70 0 119 50t49 120q0 45 -27.5 71.5 t-83.5 26.5q-68 0 -118 -50t-50 -120zM819 1599l207 259h107l-222 -259h-92z" />
<glyph unicode="&#x1fc;" horiz-adv-x="1703" d="M31 0l778 1319h979l-19 -94h-639l-110 -520h567l-20 -93h-568l-110 -522h639l-19 -90h-751l82 387h-461l-229 -387h-119zM432 477h426l160 748h-144zM1112 1409l207 324h106l-221 -324h-92z" />
<glyph unicode="&#x1fd;" horiz-adv-x="1800" d="M76 193q0 16 8 65q61 291 422 291h362l15 67q12 53 12 95q0 92 -59.5 138t-192.5 46q-164 0 -324 -53l21 96q147 53 340 53q276 0 307 -186q141 186 420 186q168 0 253 -77.5t85 -208.5q0 -49 -12 -103l-37 -176h-740q-12 -70 -12 -125q0 -125 79 -177t269 -52 q133 0 275 51l-19 -92q-141 -51 -297 -51q-172 0 -268 51t-127 162q-78 -98 -203 -155.5t-291 -57.5q-129 0 -207.5 53t-78.5 160zM188 211q0 -137 224 -137q284 0 399 205l39 180h-358q-139 0 -207 -49.5t-90 -151.5q-6 -25 -7 -47zM975 514h635l18 92q12 55 12 103 q0 92 -58 140t-191 48q-186 0 -279.5 -91t-136.5 -292zM989 1069l207 324h107l-222 -324h-92z" />
<glyph unicode="&#x1fe;" horiz-adv-x="1409" d="M141 422q0 111 27 231q76 354 253 520t486 166q86 0 164 -16l55 96h103l-70 -121q223 -92 223 -391q0 -109 -30 -254q-72 -338 -249 -505.5t-487 -167.5q-100 0 -198 24l-66 -113h-102l84 148q-193 104 -193 383zM250 418q0 -213 135 -291l633 1104q-66 10 -133 10 q-166 0 -284 -57.5t-197.5 -186.5t-124.5 -344q-29 -139 -29 -235zM469 94q72 -18 168 -18q244 0 391.5 140t210.5 437q33 160 33 256q0 119 -41 190.5t-125 106.5zM862 1409l207 324h107l-222 -324h-92z" />
<glyph unicode="&#x1ff;" horiz-adv-x="1153" d="M111 303q0 76 22 182q53 254 187.5 380t381.5 126q80 0 138 -14l59 104h100l-75 -133q158 -74 157 -289q0 -68 -20 -174q-53 -256 -187.5 -380.5t-386.5 -124.5q-45 0 -114 8l-56 -99h-100l70 121q-176 70 -176 293zM221 309q0 -80 27.5 -130t89.5 -77l448 783 q-61 8 -104 8q-188 0 -290.5 -98.5t-147.5 -309.5q-23 -106 -23 -176zM426 80q49 -4 82 -4q190 0 292.5 98t147.5 311q20 90 21 170q0 150 -99 201zM657 1069l207 324h107l-221 -324h-93z" />
<glyph unicode="&#x218;" horiz-adv-x="1132" d="M70 37l22 100q154 -61 361 -61q197 0 306 61.5t138 198.5q8 45 8 63q0 88 -75.5 137.5t-260.5 94.5q-176 41 -257 107.5t-81 170.5q0 41 9 76q76 354 548 354q102 0 195.5 -15t146.5 -34l-20 -100q-137 51 -322 51q-197 0 -304 -61.5t-134 -194.5q-8 -45 -8 -59 q0 -53 32 -90t100.5 -65t191.5 -58q190 -47 271 -117t81 -174q0 -35 -10 -86q-37 -176 -181.5 -266t-386.5 -90q-237 0 -370 57zM276 -440l123 327h109l-143 -327h-89z" />
<glyph unicode="&#x219;" horiz-adv-x="915" d="M61 20l21 101q123 -45 274 -45q143 0 213 39t90 131q6 25 7 45q0 55 -41 82.5t-156 68.5l-49 19q-94 35 -137 55.5t-74 58t-31 97.5q0 18 8 63q27 129 125.5 192.5t284.5 63.5q141 0 252 -35l-23 -100q-111 37 -233 37q-145 0 -212 -36t-83 -120q-4 -14 -4 -41 q0 -55 45 -82.5t172 -70.5q145 -49 207.5 -96.5t62.5 -133.5q0 -35 -8 -67q-57 -266 -422 -266q-84 0 -160.5 11t-128.5 29zM182 -440l123 327h109l-144 -327h-88z" />
<glyph unicode="&#x21a;" horiz-adv-x="1165" d="M250 1227l18 92h1022l-18 -92h-455l-260 -1227h-113l261 1227h-455zM303 -420l125 338h109l-150 -338h-84z" />
<glyph unicode="&#x21b;" horiz-adv-x="716" d="M174 877l21 94h151l55 254l119 37l-61 -291h280l-26 -94h-275l-131 -621q-10 -47 -10 -76q0 -61 38 -84.5t122 -23.5q57 0 125 22l-19 -90q-74 -25 -160 -24q-106 0 -162.5 50t-56.5 142q0 33 11 80l131 625h-152zM203 -420l125 338h108l-149 -338h-84z" />
<glyph unicode="&#x237;" horiz-adv-x="550" d="M-219 -455l20 93q59 -20 121 -21q111 0 164 43t72 137l229 1080h-151l32 94h252l-250 -1180q-29 -127 -115.5 -198.5t-215.5 -71.5q-95 -1 -158 24z" />
<glyph unicode="&#x251;" horiz-adv-x="1087" d="M106 293q0 72 19 160q55 258 209.5 398t359.5 140q100 0 169 -23.5t132 -78.5l17 82h112l-204 -971h-95l13 109q-86 -66 -177.5 -97.5t-201.5 -31.5q-353 0 -353 313zM217 295q0 -119 67.5 -171t221.5 -52q192 0 344 131l125 588q-51 53 -112.5 79.5t-153.5 26.5 q-182 0 -305 -114.5t-168 -329.5q-18 -92 -19 -158z" />
<glyph unicode="&#x259;" horiz-adv-x="1075" d="M96 260q0 53 13 109l36 174h738q12 72 12 127q0 123 -77 175t-271 52q-141 0 -275 -51l21 92q131 53 295 53q211 0 313.5 -81t102.5 -251q0 -74 -23 -180q-51 -246 -183 -372.5t-372 -126.5q-166 0 -248 75.5t-82 204.5zM197 260q0 -92 58 -140t189 -48q185 0 281 95 t139 290h-635l-20 -95q-12 -55 -12 -102z" />
<glyph unicode="&#x2bb;" horiz-adv-x="430" d="M240 989l194 350h86l-170 -350h-110z" />
<glyph unicode="&#x2bc;" horiz-adv-x="430" d="M240 989l170 350h110l-194 -350h-86z" />
<glyph unicode="&#x2be;" d="M-627 981l17 76q90 0 150.5 51t78.5 141q6 31 6 56q0 63 -39 99t-114 36l16 76q111 0 166 -52.5t55 -140.5q0 -41 -8 -74q-25 -119 -110 -193.5t-218 -74.5z" />
<glyph unicode="&#x2bf;" d="M-578 1178q0 23 9 71q27 119 110.5 193t216.5 74l-16 -76q-90 0 -150.5 -51.5t-78.5 -139.5q-6 -31 -7 -55q0 -63 39 -100t115 -37l-16 -76q-111 0 -166.5 53t-55.5 144z" />
<glyph unicode="&#x2c6;" horiz-adv-x="753" d="M264 1104l275 276h98l156 -276h-99l-116 211l-207 -211h-107z" />
<glyph unicode="&#x2c7;" horiz-adv-x="753" d="M324 1380h98l117 -211l206 211h107l-274 -276h-99z" />
<glyph unicode="&#x2c8;" d="M72 999l69 330h88l-69 -330h-88z" />
<glyph unicode="&#x2c9;" d="M410 1161l18 86h567l-18 -86h-567z" />
<glyph unicode="&#x2ca;" d="M16 1069l207 324h107l-224 -324h-90z" />
<glyph unicode="&#x2cb;" d="M74 1393h106l68 -324h-92z" />
<glyph unicode="&#x2cc;" d="M-227 -416l71 332h86l-69 -332h-88z" />
<glyph unicode="&#x2d8;" horiz-adv-x="679" d="M307 1282q0 29 6 55h80q-4 -16 -4 -45q0 -49 28.5 -75.5t86.5 -26.5q68 0 115 40t61 107h88q-20 -100 -96 -162.5t-180 -62.5q-89 0 -137 46t-48 124z" />
<glyph unicode="&#x2d9;" horiz-adv-x="342" d="M291 1176l14 71h72l-15 -71h-71z" />
<glyph unicode="&#x2da;" horiz-adv-x="645" d="M299 1243q0 29 4 45q18 90 88 149.5t166 59.5q78 0 124 -45t46 -117q0 -31 -4 -47q-18 -90 -87 -148.5t-167 -58.5q-78 0 -124 46.5t-46 115.5zM373 1251q0 -45 27.5 -70.5t82.5 -25.5q70 0 119 50t49 122q0 96 -110 96q-68 0 -118 -50t-50 -122z" />
<glyph unicode="&#x2db;" horiz-adv-x="532" d="M-35 -324q0 90 63.5 180.5t155.5 143.5h95q-88 -55 -140.5 -122.5t-68.5 -139.5q-4 -14 -4 -37q0 -37 21.5 -52.5t68.5 -15.5q63 0 108 23l-18 -84q-47 -23 -125 -23q-72 0 -114 31t-42 96z" />
<glyph unicode="&#x2dc;" horiz-adv-x="802" d="M285 1196l20 96q27 27 75 43.5t95 16.5q37 0 65.5 -9.5t69.5 -29.5q41 -18 65.5 -27.5t55.5 -9.5q96 0 162 72l-21 -97q-25 -29 -65.5 -44t-91.5 -15q-35 0 -68 10t-72 31q-37 16 -62.5 25.5t-51.5 9.5q-104 0 -176 -72z" />
<glyph unicode="&#x2dd;" horiz-adv-x="878" d="M264 1104l199 289h108l-215 -289h-92zM672 1104l198 289h109l-215 -289h-92z" />
<glyph unicode="&#x300;" d="M-653 1393h106l68 -324h-92z" />
<glyph unicode="&#x301;" d="M-563 1069l207 324h106l-221 -324h-92z" />
<glyph unicode="&#x302;" d="M-147 1104l272 276h98l156 -276h-98l-117 211l-207 -211h-104z" />
<glyph unicode="&#x303;" d="M-748 1196l21 96q29 27 77 43.5t95 16.5q37 0 65.5 -9.5t69.5 -29.5q37 -18 62.5 -27.5t56.5 -9.5q98 0 164 72l-21 -97q-25 -29 -66.5 -44t-90.5 -15q-35 0 -68 10t-74 31q-37 16 -62.5 25.5t-51.5 9.5q-104 0 -177 -72z" />
<glyph unicode="&#x304;" d="M-147 1161l18 86h565l-18 -86h-565z" />
<glyph unicode="&#x306;" d="M-43 1282q0 27 6 57h82q-6 -27 -6 -49q0 -98 115 -98q66 0 113.5 39t62.5 108h90q-23 -102 -96.5 -164.5t-182.5 -62.5q-88 0 -136 46t-48 124z" />
<glyph unicode="&#x307;" d="M94 1161l25 115h117l-25 -115h-117z" />
<glyph unicode="&#x308;" d="M-84 1161l23 113h116l-24 -113h-115zM256 1161l25 113h114l-24 -113h-115z" />
<glyph unicode="&#x309;" d="M-586 1413l17 78q31 10 79 17.5t84 7.5q100 0 151.5 -35t51.5 -103q0 -29 -4 -43q-18 -84 -68.5 -128t-154.5 -54l-23 -106h-96l35 161q82 4 126 17.5t63.5 37t27.5 66.5q4 20 4 29q0 80 -149 80q-33 0 -74 -7.5t-70 -17.5z" />
<glyph unicode="&#x30a;" d="M-35 1243q0 29 4 45q18 90 88 149.5t166 59.5q78 0 124 -45t46 -117q0 -31 -4 -47q-18 -88 -88 -147.5t-166 -59.5q-78 0 -124 46.5t-46 115.5zM39 1253q0 -45 27.5 -71.5t83.5 -26.5q69 0 118 50t49 120q0 45 -27.5 71.5t-82.5 26.5q-68 0 -118 -50t-50 -120z" />
<glyph unicode="&#x30b;" d="M-221 1104l196 289h111l-215 -289h-92zM184 1104l199 289h111l-218 -289h-92z" />
<glyph unicode="&#x30c;" d="M-88 1380h96l117 -211l207 211h106l-274 -276h-98z" />
<glyph unicode="&#x31b;" d="M-41 1085l21 95q90 0 142 20.5t84 72.5t52 150h98q-39 -190 -133 -263t-264 -75z" />
<glyph unicode="&#x323;" d="M-834 -311l25 116h121l-25 -116h-121z" />
<glyph unicode="&#x324;" d="M-391 -309l24 114h117l-24 -114h-117zM-27 -309l25 114h119l-25 -114h-119z" />
<glyph unicode="&#x326;" d="M-444 -414l125 338h108l-149 -338h-84z" />
<glyph unicode="&#x327;" d="M-373 -475l17 76q55 -16 125 -17q106 0 160.5 30t68.5 101q4 20 4 31q0 45 -40 63.5t-126 18.5h-67l92 172h88l-55 -104q197 0 196 -136q0 -29 -4 -45q-45 -207 -328 -207q-30 0 -69 5.5t-62 11.5z" />
<glyph unicode="&#x328;" d="M-311 -324q0 90 63.5 180.5t153.5 143.5h94q-86 -55 -138 -122.5t-69 -139.5q-4 -14 -4 -37q0 -37 21.5 -52.5t68.5 -15.5q61 0 107 23l-19 -84q-47 -23 -123 -23q-71 0 -113 31t-42 96z" />
<glyph unicode="&#x32e;" d="M-403 -184q0 37 8 71h82q-8 -45 -9 -63q0 -66 40 -95.5t120 -29.5q88 0 150.5 46t83.5 142h88q-29 -133 -117 -199.5t-217 -66.5q-107 0 -168 49t-61 146z" />
<glyph unicode="&#x331;" d="M-444 -238l18 86h565l-18 -86h-565z" />
<glyph unicode="&#x394;" horiz-adv-x="1341" d="M31 0l14 70l756 1249h131l229 -1251l-14 -68h-1116zM168 90h885l-203 1127z" />
<glyph unicode="&#x3a9;" horiz-adv-x="1579" d="M45 0l18 90h361q-119 82 -187.5 205t-68.5 280q0 80 18 166q41 195 152 349.5t282 243.5t390 89q174 0 298 -65.5t187.5 -181t63.5 -267.5q0 -82 -19 -168q-45 -219 -181 -383.5t-329 -267.5h359l-19 -90h-516l18 90q233 113 373.5 277.5t184.5 373.5q18 86 18 162 q0 197 -117 309.5t-342 112.5q-166 0 -310 -74.5t-244.5 -208t-137.5 -301.5q-16 -86 -16 -155q0 -315 299 -496l-19 -90h-516z" />
<glyph unicode="&#x3bc;" horiz-adv-x="1155" d="M8 -293l268 1264h113l-131 -619q-12 -55 -12 -98q0 -92 57 -137t184 -45q98 0 191.5 37.5t173.5 103.5l160 758h112l-204 -971h-101l15 119q-92 -68 -192.5 -103.5t-221.5 -35.5q-76 0 -132.5 26.5t-86.5 71.5l-80 -371h-113z" />
<glyph unicode="&#x3c0;" horiz-adv-x="1347" d="M152 0l186 879h-141l18 92h1012l-19 -92h-143l-133 -623q-10 -55 -10 -82q0 -53 29.5 -75.5t99.5 -22.5q72 0 141 20l-18 -92q-74 -25 -162 -24q-101 0 -152 50t-51 140q0 35 10 86l133 623h-501l-187 -879h-112z" />
<glyph unicode="&#xe01;" horiz-adv-x="1228" d="M102 0l105 498q16 82 72.5 140t144.5 83l-229 53l34 164q98 82 237.5 135t301.5 53q391 0 391 -290q0 -51 -12 -113l-154 -723h-112l153 729q14 72 15 111q0 102 -70 145t-231 43q-125 0 -240 -38t-186 -99l-13 -57l234 -54l-21 -98q-86 -18 -136 -63.5t-67 -126.5 l-104 -492h-113z" />
<glyph unicode="&#xe02;" horiz-adv-x="1138" d="M115 260q0 49 12 105l41 188q12 55 53 109.5t115 132.5q57 61 83.5 95t33.5 62l4 27q0 20 -13.5 27.5t-44.5 7.5h-153l28 92h197q104 0 104 -90q0 -63 -36.5 -117.5t-114.5 -138.5q-66 -72 -100.5 -119t-44.5 -98l-43 -197q-10 -41 -11 -90q0 -96 65.5 -138t198.5 -42 q315 0 375 272l160 758h113l-158 -741q-80 -385 -510 -385q-172 0 -263 72.5t-91 207.5z" />
<glyph unicode="&#xe03;" horiz-adv-x="1112" d="M119 248q0 51 12 112l35 164q12 53 55 107.5t125 138.5q63 61 100 105.5t46 80.5q2 6 2 19q0 41 -48 41q-55 0 -118 -49l-17 -78h-92l45 217h92l-12 -57q78 57 156 57q51 0 78.5 -25.5t27.5 -70.5q0 -8 -4 -37q-10 -55 -52 -109.5t-118 -132.5q-72 -74 -108.5 -121 t-47.5 -94l-36 -170q-12 -57 -13 -100q0 -94 60.5 -132t191.5 -38q299 0 359 272l159 758h113l-158 -741q-80 -385 -493 -385q-340 0 -340 268z" />
<glyph unicode="&#xe04;" horiz-adv-x="1216" d="M72 0l155 733q43 203 173 298t366 95q383 0 383 -280q0 -51 -12 -113l-156 -733h-113l158 750q10 55 10 90q0 100 -69.5 144t-221.5 44q-342 0 -403 -278l-59 -285q133 92 278 92h137l-12 -94h-145q-143 0 -279 -92l-78 -371h-112z" />
<glyph unicode="&#xe05;" horiz-adv-x="1216" d="M72 0l180 852q29 133 111.5 203.5t191.5 70.5q66 0 110 -24.5t72 -81.5q45 55 115 80.5t139 25.5q94 0 138.5 -41t44.5 -127q0 -47 -13 -108l-180 -850h-113l183 862q8 35 8 72q0 47 -24.5 70.5t-82.5 23.5q-111 0 -196 -102h-68q-35 102 -127 102q-88 0 -132 -41 t-62 -127l-84 -395q133 92 278 92h137l-12 -94h-145q-143 0 -279 -92l-78 -371h-112z" />
<glyph unicode="&#xe06;" horiz-adv-x="1181" d="M55 0l105 500q12 55 58 115.5t128 146.5q68 72 102.5 116t43.5 78q2 6 2 19q0 41 -48 41q-55 0 -118 -49l-17 -78h-92l45 217h92l-12 -57q78 57 156 57q51 0 78.5 -25.5t27.5 -72.5q0 -68 -44 -131.5t-130 -155.5q-70 -74 -109.5 -126t-50.5 -103l-53 -244 q61 -82 143 -127t195 -45q158 0 240 68.5t114 222.5l156 739h113l-156 -733q-41 -195 -154.5 -294t-296.5 -99q-135 0 -223 43t-155 122l-41 -145h-99z" />
<glyph unicode="&#xe07;" horiz-adv-x="1144" d="M190 756h111l135 -680q16 -2 51 -2q367 0 478 518q29 131 28 209q0 113 -58 161t-196 48h-65l20 96h74q172 0 252 -75t80 -232q0 -88 -25 -205q-66 -315 -217 -464.5t-366 -149.5q-109 0 -152 18z" />
<glyph unicode="&#xe08;" horiz-adv-x="1136" d="M133 489l27 97h190l82 -510q14 -2 45 -2q100 0 194.5 51t169 162.5t109.5 279.5q25 115 25 195q0 141 -81 203.5t-269 62.5q-209 0 -371 -51l20 96q172 53 388 53q422 0 421 -364q0 -96 -22 -195q-59 -285 -220 -436t-382 -151q-80 0 -123 18l-80 491h-123z" />
<glyph unicode="&#xe09;" horiz-adv-x="1155" d="M109 240q0 61 14 127l51 247h113l-54 -254q-16 -76 -16 -122q0 -88 53.5 -125t175.5 -37q215 0 412 172l103 475q14 59 14 115q0 106 -77 148t-261 42q-88 0 -201.5 -16.5t-199.5 -42.5l20 96q88 27 206 44t226 17q201 0 300 -69.5t99 -214.5q0 -43 -14 -119l-153 -723 h-99l21 145q-102 -80 -211 -122.5t-244 -42.5q-137 0 -207.5 65.5t-70.5 194.5z" />
<glyph unicode="&#xe0a;" horiz-adv-x="1148" d="M115 260q0 49 12 105l41 188q12 57 53 111.5t115 132.5q55 57 82.5 92t34.5 63l4 27q0 20 -13.5 27.5t-44.5 7.5h-153l28 92h197q104 0 104 -90q0 -63 -36.5 -117.5t-114.5 -138.5q-66 -72 -100.5 -119t-44.5 -98l-43 -197q-10 -55 -11 -88q0 -98 65.5 -140t205.5 -42 q152 0 250 65.5t128 206.5l31 146q12 61 13 106q0 70 -38 98.5t-126 28.5h-58l29 92h49q117 0 170 54.5t78 175.5l16 77h113l-16 -82q-27 -117 -73 -184t-144 -92q61 -25 86.5 -64.5t25.5 -99.5q0 -41 -14 -117l-27 -122q-39 -190 -170 -287.5t-344 -97.5q-174 0 -267 70.5 t-93 209.5z" />
<glyph unicode="&#xe0b;" horiz-adv-x="1148" d="M115 260q0 49 12 105l35 159q12 53 56 107.5t128 138.5q63 61 100 105.5t46 80.5q2 6 2 19q0 41 -48 41q-55 0 -118 -49l-17 -78h-92l45 217h92l-12 -57q78 57 156 57q51 0 78.5 -25.5t27.5 -70.5q0 -8 -4 -37q-10 -55 -50 -105.5t-116 -128.5q-72 -70 -112.5 -121 t-51.5 -102l-36 -170q-10 -55 -11 -88q0 -98 65.5 -140t205.5 -42q152 0 250 65.5t128 206.5l31 146q12 61 13 106q0 70 -38 98.5t-126 28.5h-58l29 92h49q117 0 170 54.5t78 175.5l16 77h113l-16 -82q-27 -117 -73 -184t-144 -92q61 -25 86.5 -64.5t25.5 -99.5 q0 -41 -14 -117l-27 -122q-39 -190 -170 -287.5t-344 -97.5q-174 0 -267 70.5t-93 209.5z" />
<glyph unicode="&#xe0c;" horiz-adv-x="1947" d="M135 135q0 25 6 51l66 312q16 82 72.5 140t144.5 83l-229 53l34 164q98 82 233.5 135t295.5 53q375 0 375 -284q0 -43 -15 -119l-102 -475q61 -82 138 -127t183 -45q143 0 225.5 69.5t114.5 221.5l156 739h113l-156 -733q-43 -197 -153.5 -295t-282.5 -98 q-129 0 -211 41.5t-150 123.5l-41 -145h-98l154 729q12 66 12 111q0 104 -66.5 146t-218.5 42q-121 0 -231.5 -38t-181.5 -99l-13 -57l234 -54l-21 -98q-172 -39 -203 -190l-61 -285q-6 -31 -6 -51q0 -35 18.5 -48.5t63.5 -13.5h127l-19 -94h-163q-70 0 -107 36t-37 99z" />
<glyph unicode="&#xe0d;" horiz-adv-x="1970" d="M135 135q0 25 6 51l66 312q16 82 72.5 140t144.5 83l-229 53l34 164q98 82 233.5 135t295.5 53q190 0 280 -70.5t90 -209.5q0 -59 -14 -123l-31 -139q-14 -72 -14 -111q0 -106 67.5 -154.5t213.5 -48.5q162 0 262 79t133 235l110 522h113l-106 -508q-18 -90 -52 -155.5 t-86 -118.5q47 -41 48 -113q0 -29 -7 -59q-25 -125 -144.5 -189.5t-350.5 -64.5q-109 0 -204 22.5t-167 61.5l21 100q66 -43 168 -65.5t202 -22.5q373 0 373 196q0 43 -27 64q-125 -80 -307 -80t-275 75t-93 220q0 63 14 129l26 131q14 63 15 115q0 100 -64.5 142t-216.5 42 q-121 0 -231.5 -38t-181.5 -99l-13 -57l234 -54l-21 -98q-172 -39 -203 -190l-61 -285q-6 -31 -6 -51q0 -33 19.5 -47.5t64.5 -14.5h125l-19 -94h-163q-68 0 -106 36t-38 99z" />
<glyph unicode="&#xe0e;" horiz-adv-x="1312" d="M31 0l18 94h88q96 0 121 111l61 293q18 86 62.5 142t126.5 81l-236 53l35 164q98 80 240.5 134t304.5 54q391 0 391 -290q0 -51 -12 -113l-240 -1120h-108q-70 41 -140.5 60.5t-171.5 19.5q-94 0 -180 -19.5t-184 -62.5l20 98q184 80 371 80q195 0 303 -76l217 1026 q12 59 12 105q0 104 -70.5 149t-228.5 45q-125 0 -242.5 -38t-189.5 -99l-12 -57l240 -54l-21 -98q-80 -20 -117.5 -62t-56.5 -128l-63 -291q-20 -98 -76.5 -149.5t-147.5 -51.5h-114z" />
<glyph unicode="&#xe0f;" horiz-adv-x="1312" d="M31 0l18 94h88q96 0 121 111l61 293q18 86 62.5 142t126.5 81l-236 53l35 164q98 80 240.5 134t304.5 54q391 0 391 -286q0 -55 -12 -117l-187 -870q-27 -123 -105.5 -187.5t-197.5 -64.5q-67 0 -115 24.5t-67 65.5q-31 -41 -85 -64.5t-124 -23.5h-170l31 100h145 q61 0 102.5 19.5t82.5 68.5h67q35 -92 144 -92q80 0 121.5 38t60.5 126l184 866q12 59 12 105q0 104 -70.5 149t-228.5 45q-125 0 -242.5 -38t-189.5 -99l-12 -57l240 -54l-21 -98q-82 -20 -119.5 -62t-54.5 -128l-63 -291q-20 -98 -76.5 -149.5t-147.5 -51.5h-114z" />
<glyph unicode="&#xe10;" horiz-adv-x="1212" d="M16 -397l31 100h146q61 0 102 19.5t82 68.5h67q35 -92 144 -92q80 0 122 38t60 126l12 55h113l-14 -65q-27 -123 -106 -187.5t-197 -64.5q-64 0 -111 24.5t-72 65.5q-31 -41 -85 -64.5t-124 -23.5h-170zM133 489l27 97h190l82 -510q14 -2 45 -2q100 0 194.5 51t169 162.5 t109.5 279.5q25 115 25 195q0 141 -81 203.5t-269 62.5q-209 0 -371 -51l20 96q172 53 388 53q90 0 176 -20h413l-26 -96h-232q90 -88 90 -258q0 -82 -22 -185q-59 -285 -220 -436t-382 -151q-80 0 -123 18l-80 491h-123z" />
<glyph unicode="&#xe11;" horiz-adv-x="1187" d="M102 0l107 504q12 61 49 115.5t113 148.5q66 78 95.5 123t29.5 84q0 41 -47 41q-57 0 -121 -49l-17 -78h-92l45 217h92l-12 -57q78 57 156 57q82 0 98 -64q137 84 274 84q131 0 193.5 -57t62.5 -174q0 -66 -18 -150l-158 -745h-112l159 752q18 84 19 139q0 76 -42 106.5 t-149 30.5q-57 0 -121.5 -21.5t-111.5 -58.5q-10 -47 -39 -91t-92 -126q-59 -70 -95 -126t-49 -111l-104 -494h-113z" />
<glyph unicode="&#xe12;" horiz-adv-x="2000" d="M121 336q0 94 24 213q61 285 168 431t271 146q68 0 111.5 -25.5t78.5 -80.5q121 106 262 106q84 0 130 -44t46 -126q0 -31 -10 -82l-133 -626q61 -82 138 -127t184 -45q150 0 228.5 69.5t111.5 221.5l155 739h113l-156 -733q-84 -393 -436 -393q-129 0 -211 41.5 t-149 123.5l-41 -145h-99l183 862q10 51 10 80q0 47 -26.5 66.5t-88.5 19.5q-111 0 -190 -102h-72q-27 57 -57.5 79.5t-90.5 22.5q-215 0 -319 -479q-27 -133 -27 -211q0 -139 65.5 -200.5t201.5 -61.5q92 0 143 16l-21 -96q-63 -16 -165 -16q-160 0 -246 88t-86 268z" />
<glyph unicode="&#xe13;" horiz-adv-x="1947" d="M135 133q0 27 6 53l66 312q16 82 72.5 140t144.5 83l-229 53l34 164q98 82 233.5 135t295.5 53q190 0 282.5 -70.5t92.5 -211.5q0 -45 -15 -121l-76 -356q-14 -63 -14 -119q0 -88 51 -130t170 -42q201 0 402 172l182 858h113l-234 -1106h-100l20 145 q-104 -82 -207.5 -123.5t-232.5 -41.5q-133 0 -203.5 68.5t-70.5 197.5q0 63 14 127l76 356q14 76 14 113q0 100 -66.5 143t-220.5 43q-121 0 -231.5 -38t-181.5 -99l-13 -57l234 -54l-21 -98q-172 -39 -203 -190l-61 -285q-8 -45 -8 -55q0 -33 19.5 -45.5t66.5 -12.5h125 l-19 -94h-163q-70 0 -107 35t-37 98z" />
<glyph unicode="&#xe14;" horiz-adv-x="1286" d="M121 336q0 94 24 213q125 578 662 577q207 0 305 -89t98 -236q0 -51 -12 -105l-147 -696h-113l147 702q12 53 13 99q0 227 -314 227q-424 0 -528 -479q-25 -123 -25 -209q0 -139 64.5 -201.5t200.5 -62.5q92 0 143 16l-21 -96q-63 -16 -165 -16q-160 0 -246 88t-86 268z " />
<glyph unicode="&#xe15;" horiz-adv-x="1286" d="M121 336q0 94 24 213q61 285 170 431t277 146q76 0 120 -24.5t79 -81.5q55 53 126.5 79.5t141.5 26.5q88 0 136 -44t48 -130q0 -39 -8 -78l-184 -874h-113l182 862q10 51 10 78q0 49 -25.5 68.5t-86.5 19.5q-55 0 -111.5 -25.5t-95.5 -76.5h-72q-27 55 -60.5 78.5 t-92.5 23.5q-121 0 -201 -125t-129 -354q-27 -121 -27 -215q0 -137 64.5 -197.5t202.5 -60.5q92 0 143 16l-21 -96q-63 -16 -165 -16q-160 0 -246 88t-86 268z" />
<glyph unicode="&#xe16;" horiz-adv-x="1228" d="M135 133q0 27 6 53l66 312q16 82 72.5 140t144.5 83l-229 53l34 164q98 80 239.5 134t305.5 54q385 0 385 -288q0 -53 -12 -115l-154 -723h-112l153 729q12 61 13 111q0 104 -69 146t-226 42q-125 0 -243 -38t-187 -99l-13 -57l234 -54l-21 -98q-172 -39 -203 -190 l-61 -285q-6 -31 -6 -51q0 -33 19.5 -47.5t64.5 -14.5h125l-19 -94h-163q-70 0 -107 35t-37 98z" />
<glyph unicode="&#xe17;" horiz-adv-x="1198" d="M72 0l233 1106h98l-20 -145q102 80 209.5 122.5t243.5 42.5q139 0 216.5 -70.5t77.5 -207.5q0 -53 -12 -115l-155 -733h-113l156 739q12 59 12 107q0 94 -57.5 138t-184.5 44q-209 0 -411 -172l-181 -856h-112z" />
<glyph unicode="&#xe18;" horiz-adv-x="1064" d="M61 53l91 424h106l-76 -352q129 -49 283 -49q156 0 245 53t113 176q10 51 11 80q0 66 -34 102.5t-88.5 55t-170.5 47.5q-111 27 -175.5 48t-110.5 64t-46 115q0 25 6 51q29 137 154 197.5t336 60.5q92 0 190 -15t156 -38l-23 -100q-61 25 -152.5 40t-175.5 15 q-170 0 -264 -31.5t-114 -126.5q-4 -29 -5 -36q0 -43 28 -69t74 -41t146 -40q23 -4 42.5 -9t37.5 -9q145 -37 222 -94.5t77 -178.5q0 -33 -10 -88q-33 -168 -155 -246.5t-326 -78.5q-115 0 -216.5 21.5t-175.5 51.5z" />
<glyph unicode="&#xe19;" horiz-adv-x="1198" d="M133 242q0 53 17 131l155 733h113l-156 -739q-14 -63 -14 -117q0 -94 55 -134t180 -40q217 0 418 172l182 858h113l-233 -1106h-99l21 145q-102 -80 -214 -122.5t-245 -42.5q-145 0 -219 65.5t-74 196.5z" />
<glyph unicode="&#xe1a;" horiz-adv-x="1234" d="M141 281q0 59 15 122l149 703h113l-152 -717q-12 -61 -12 -108q0 -109 70.5 -157t226.5 -48q166 0 274.5 75.5t143.5 237.5l151 717h113l-150 -703q-45 -215 -177 -319t-376 -104q-192 0 -290.5 75.5t-98.5 225.5z" />
<glyph unicode="&#xe1b;" horiz-adv-x="1234" d="M141 281q0 59 15 122l149 703h113l-152 -717q-12 -61 -12 -108q0 -109 70.5 -157t226.5 -48q166 0 274.5 75.5t143.5 237.5l221 1045h113l-220 -1031q-45 -215 -177 -319t-376 -104q-192 0 -290.5 75.5t-98.5 225.5z" />
<glyph unicode="&#xe1c;" horiz-adv-x="1304" d="M72 0l194 915q16 84 75.5 137.5t141.5 53.5h156l-16 -96h-117q-57 0 -89 -28t-46 -89l-158 -743l485 618h68l223 -618l203 956h111l-234 -1106h-119l-235 653l-512 -653h-131z" />
<glyph unicode="&#xe1d;" horiz-adv-x="1304" d="M72 0l194 915q16 84 75.5 137.5t141.5 53.5h156l-16 -96h-117q-57 0 -89 -28t-46 -89l-158 -743l485 618h68l223 -618l273 1284h110l-303 -1434h-119l-235 653l-512 -653h-131z" />
<glyph unicode="&#xe1e;" horiz-adv-x="1447" d="M244 1106h114l4 -961l443 840l24 121h84l74 -961l408 961h112l-481 -1106h-117l-67 860l-453 -860h-129z" />
<glyph unicode="&#xe1f;" horiz-adv-x="1447" d="M244 1106h114l4 -961l443 840l24 121h84l74 -961l547 1289h113l-621 -1434h-117l-67 860l-453 -860h-129z" />
<glyph unicode="&#xe20;" horiz-adv-x="1308" d="M31 0l18 94h88q96 0 121 111l61 293q18 86 62.5 142t126.5 81l-236 53l35 164q98 80 240.5 134t304.5 54q193 0 290 -73.5t97 -216.5q0 -51 -12 -113l-154 -723h-112l153 729q12 61 12 109q0 104 -69.5 147t-225.5 43q-125 0 -242.5 -38t-189.5 -99l-12 -57l240 -54 l-21 -98q-82 -20 -119.5 -62t-54.5 -128l-63 -291q-20 -98 -76.5 -149.5t-147.5 -51.5h-114z" />
<glyph unicode="&#xe21;" horiz-adv-x="1198" d="M72 0l233 1106h113l-182 -858q61 -82 143 -127t194 -45q154 0 238 69.5t117 221.5l155 739h113l-156 -733q-84 -393 -450 -393q-135 0 -223 43t-156 122l-41 -145h-98z" />
<glyph unicode="&#xe22;" horiz-adv-x="1183" d="M86 236q0 37 8 69q23 104 85.5 173t154.5 100q-57 18 -94 65t-37 119q0 20 8 65q31 147 132 223t239 76q90 0 157 -20l-20 -96q-53 18 -135 18q-217 0 -260 -201q-6 -33 -7 -63q0 -72 48.5 -105.5t158.5 -33.5h119l-8 -90h-135q-119 0 -196 -59.5t-99 -170.5 q-6 -31 -6 -59q0 -86 73.5 -128t235.5 -42q178 0 275.5 68.5t127.5 215.5l158 746h113l-144 -680q-33 -152 -94 -249t-170.5 -147t-284.5 -50q-194 0 -298.5 65.5t-104.5 190.5z" />
<glyph unicode="&#xe23;" horiz-adv-x="1028" d="M68 31l20 100q139 -55 320 -55q168 0 258 42t114 156q6 25 6 48q0 49 -27.5 80.5t-70.5 52t-125 49.5q-41 12 -61 20q-94 33 -154.5 63.5t-102.5 80t-42 120.5q0 25 6 56q59 283 471 282q84 0 164 -14t139 -35l-20 -100q-123 51 -287 51q-168 0 -251 -40t-106 -142 q-4 -29 -4 -41q0 -51 33 -85t88.5 -58.5t167.5 -61.5q96 -33 156.5 -62.5t99.5 -77.5t39 -120q0 -18 -8 -64q-35 -162 -155 -229t-333 -67q-100 0 -189 13t-146 38z" />
<glyph unicode="&#xe24;" horiz-adv-x="1234" d="M135 133q0 27 6 53l66 312q16 82 72.5 140t144.5 83l-229 53l34 164q98 80 239.5 134t305.5 54q391 0 391 -288q0 -53 -12 -115l-225 -1051h-113l225 1057q12 61 13 107q0 106 -72 149t-229 43q-125 0 -243 -38t-187 -99l-13 -57l234 -54l-21 -98q-172 -39 -203 -190 l-61 -285q-6 -31 -6 -53q0 -33 18.5 -46.5t65.5 -13.5h125l-19 -94h-163q-70 0 -107 35t-37 98z" />
<glyph unicode="&#xe25;" horiz-adv-x="1183" d="M84 211q0 33 10 88q33 156 154 243t332 87h389l22 108q16 78 17 123q0 94 -65.5 131t-227.5 37q-193 0 -359 -51l21 96q170 53 383 53q186 0 273 -63.5t87 -198.5q0 -53 -16 -131l-156 -733h-112l112 532h-381q-160 0 -250 -57t-114 -176q-10 -47 -10 -78 q0 -78 56 -111.5t185 -33.5q82 0 144 16l-21 -96q-76 -16 -174 -16q-139 0 -219 57t-80 174z" />
<glyph unicode="&#xe26;" horiz-adv-x="1312" d="M31 0l18 94h88q53 0 81 24.5t40 86.5l61 293q18 86 62.5 142t126.5 81l-236 53l35 164q98 80 240.5 134t304.5 54q391 0 391 -290q0 -51 -12 -113l-225 -1051h-113l225 1057q14 72 15 111q0 102 -70 145t-232 43q-125 0 -242.5 -38t-189.5 -99l-12 -57l240 -54l-21 -98 q-80 -20 -117.5 -62t-56.5 -128l-63 -291q-20 -98 -76.5 -149.5t-147.5 -51.5h-114z" />
<glyph unicode="&#xe27;" horiz-adv-x="1003" d="M37 33l20 96q121 -53 248 -53q225 0 340 112.5t168 364.5q27 127 27 203q0 141 -79 206.5t-261 65.5q-131 0 -262 -53l20 98q66 27 130.5 40t152.5 13q207 0 308 -92t101 -276q0 -90 -24 -205q-61 -287 -203.5 -430t-411.5 -143q-168 0 -274 53z" />
<glyph unicode="&#xe28;" horiz-adv-x="1257" d="M72 0l155 733q43 203 173 298t366 95q94 0 180 -20h371l-27 -96h-196q55 -61 55 -170q0 -51 -12 -107l-156 -733h-113l158 750q12 55 12 98q0 98 -68.5 139t-224.5 41q-342 0 -403 -278l-59 -285q133 92 278 92h137l-12 -94h-145q-143 0 -279 -92l-78 -371h-112z" />
<glyph unicode="&#xe29;" horiz-adv-x="1275" d="M141 281q0 59 15 122l149 703h113l-152 -717q-12 -61 -12 -108q0 -109 70.5 -157t226.5 -48q166 0 274.5 75.5t143.5 237.5l41 193h-322l21 94h319l92 430h113l-92 -430h135l-31 -94h-125l-37 -179q-45 -215 -177 -319t-376 -104q-192 0 -290.5 75.5t-98.5 225.5z" />
<glyph unicode="&#xe2a;" horiz-adv-x="1234" d="M84 211q0 33 10 88q33 156 154 243t332 87h389l22 108q16 78 17 125q0 94 -64.5 130t-228.5 36q-193 0 -359 -51l21 96q170 53 383 53q111 0 180 -20h334l-27 -96h-172q43 -57 43 -152q0 -61 -14 -125l-156 -733h-112l112 532h-381q-160 0 -250 -57t-114 -176 q-10 -47 -10 -78q0 -78 56 -111.5t185 -33.5q82 0 144 16l-21 -96q-76 -16 -174 -16q-139 0 -219 57t-80 174z" />
<glyph unicode="&#xe2b;" horiz-adv-x="1191" d="M72 0l233 1106h113l-78 -373h412q145 0 216.5 59.5t98.5 182.5l27 131h112l-26 -131q-27 -117 -84.5 -192.5t-163.5 -102.5q66 -25 93.5 -70t27.5 -110q0 -47 -13 -107l-82 -393h-112l82 391q14 72 14 105q0 78 -51 109.5t-170 31.5h-402l-135 -637h-112z" />
<glyph unicode="&#xe2c;" horiz-adv-x="1447" d="M244 1106h114l7 -961l421 758l27 121h84l86 -879l336 781q33 74 33 118q0 35 -24.5 50.5t-76.5 15.5h-82l33 92h80q88 0 135 31t82 110l37 91h111l-43 -101q-37 -86 -84 -129t-109 -53q53 -25 53 -88q0 -51 -34 -131l-404 -932h-117l-84 784l-438 -784h-127z" />
<glyph unicode="&#xe2d;" horiz-adv-x="1128" d="M41 53l117 545h372l-14 -96h-266l-82 -377q51 -23 126 -36t150 -13q143 0 239.5 47t158 150.5t98.5 277.5q29 137 29 223q0 139 -80 196.5t-275 57.5t-360 -51l20 96q166 53 392 53q209 0 309 -89t100 -273q0 -92 -24 -213q-63 -293 -207 -432t-414 -139 q-113 0 -214 21.5t-175 51.5z" />
<glyph unicode="&#xe2e;" horiz-adv-x="1193" d="M41 53l117 545h372l-14 -96h-266l-82 -377q51 -23 126 -36t150 -13q143 0 239.5 47t158 150.5t98.5 277.5q29 137 29 223q0 139 -80 196.5t-275 57.5t-360 -51l20 96q166 53 392 53q90 0 176 -20h391l-27 -96h-213q82 -90 82 -256q0 -92 -24 -203q-63 -293 -207 -432 t-414 -139q-113 0 -214 21.5t-175 51.5z" />
<glyph unicode="&#xe2f;" horiz-adv-x="1013" d="M217 846q0 29 6 59q29 119 78 201h113q-55 -80 -80 -195q-8 -45 -8 -63q0 -70 47 -102.5t157 -32.5q178 0 304 86l65 307h113l-234 -1106h-112l147 700q-139 -86 -311 -86q-133 0 -209 63.5t-76 168.5z" />
<glyph unicode="&#xe30;" horiz-adv-x="659" d="M59 141l41 193h101l-21 -103h334l-25 -90h-430zM182 715l41 192h101l-23 -100h334l-23 -92h-430z" />
<glyph unicode="&#xe31;" d="M-365 1309l54 243h100l-35 -155h570l-25 -88h-664z" />
<glyph unicode="&#xe32;" horiz-adv-x="890" d="M176 977l21 96q68 25 150.5 39t162.5 14q164 0 240.5 -58t76.5 -187q0 -68 -16 -140l-156 -741h-112l153 731q18 84 19 141q0 84 -54.5 120t-191.5 36q-68 0 -147.5 -13.5t-145.5 -37.5z" />
<glyph unicode="&#xe33;" horiz-adv-x="890" d="M-205 1343q0 96 71 166t171 70q70 0 115 -44t45 -110q0 -98 -72 -166.5t-170 -68.5q-70 0 -115 43t-45 110zM-123 1354q0 -37 22.5 -60.5t71.5 -23.5q47 0 88 33.5t52 80.5q4 20 4 31q0 37 -24.5 60.5t-70.5 23.5q-55 0 -99 -45t-44 -100zM176 977l21 96q68 25 150.5 39 t162.5 14q162 0 239.5 -59t77.5 -186q0 -57 -16 -140l-156 -741h-112l153 731q18 84 19 141q0 84 -54.5 120t-191.5 36q-68 0 -147.5 -13.5t-145.5 -37.5z" />
<glyph unicode="&#xe34;" d="M-733 1309l24 88h764l-18 -88h-770z" />
<glyph unicode="&#xe35;" d="M-733 1309l24 88h664l39 178h100l-57 -266h-770z" />
<glyph unicode="&#xe36;" d="M-733 1309l24 88h496q-10 16 -10 45q0 16 2 24q14 72 65.5 112t122.5 40q63 0 97 -34t34 -85q0 -8 -4 -33q-14 -70 -66.5 -113.5t-129.5 -43.5h-631zM-152 1446q0 -29 17.5 -47.5t52.5 -18.5q43 0 69.5 23.5t32.5 60.5q4 16 5 27q0 29 -18.5 45t-51.5 16 q-37 0 -66.5 -24.5t-38.5 -63.5q-2 -6 -2 -18z" />
<glyph unicode="&#xe37;" d="M-733 1309l24 88h443l39 178h92l-39 -178h137l39 178h92l-57 -266h-770z" />
<glyph unicode="&#xe38;" d="M-532 -225l24 84h236l-78 -367h-103l60 283h-139z" />
<glyph unicode="&#xe39;" d="M-774 -223l22 82h193l-49 -226q-2 -8 -2 -22q0 -27 19.5 -39t62.5 -12q49 0 78.5 19.5t35.5 53.5l49 226h93l-50 -230q-14 -68 -73.5 -109.5t-151.5 -41.5q-67 0 -110 33.5t-43 89.5q0 18 2 28l30 148h-106z" />
<glyph unicode="&#xe3a;" d="M-401 -203q6 29 29.5 48.5t52.5 19.5t44 -19.5t9 -48.5q-4 -29 -27.5 -47t-52.5 -18t-44.5 19.5t-10.5 45.5z" />
<glyph unicode="&#xe3f;" horiz-adv-x="1267" d="M72 0l278 1319h395l39 176h93l-39 -176h92q154 0 230.5 -63.5t76.5 -184.5q0 -39 -10 -96q-25 -109 -86.5 -184.5t-149.5 -112.5q170 -39 170 -211q0 -51 -10 -94q-41 -193 -154.5 -283t-306.5 -90h-133l-37 -176h-92l37 176h-393zM203 88h280l117 549h-281zM338 725h280 l109 504h-283zM575 88h123q147 0 229.5 66.5t114.5 222.5q10 51 11 84q0 88 -62.5 132t-206.5 44h-90zM713 725h102q250 0 303 244q12 55 12 102q0 80 -54 119t-189 39h-68z" />
<glyph unicode="&#xe40;" horiz-adv-x="585" d="M104 131q0 29 7 55l194 920h113l-191 -899q-6 -31 -6 -53q0 -35 19.5 -47.5t68.5 -12.5h101l-19 -94h-143q-70 0 -107 35t-37 96z" />
<glyph unicode="&#xe41;" horiz-adv-x="1015" d="M104 133q0 27 7 53l194 920h113l-191 -899q-6 -33 -6 -55q0 -33 19.5 -45.5t68.5 -12.5h90l-18 -94h-133q-68 0 -106 36t-38 97zM545 133q0 27 6 53l194 920h113l-190 -899q-6 -33 -6 -55q0 -33 19 -45.5t69 -12.5h90l-19 -94h-133q-67 0 -105 36t-38 97z" />
<glyph unicode="&#xe42;" horiz-adv-x="614" d="M195 131q0 29 6 55l161 762q20 102 21 154q0 80 -38 127t-126 92l21 100h524l-21 -94h-378q70 -41 100.5 -89t30.5 -128q0 -63 -27 -190l-152 -713q-6 -31 -6 -53q0 -35 19.5 -47.5t68.5 -12.5h101l-19 -94h-143q-70 0 -106.5 35t-36.5 96z" />
<glyph unicode="&#xe43;" horiz-adv-x="569" d="M78 131q0 29 6 55l113 533q16 80 54 139.5t80 98t107 90.5q66 49 98.5 81.5t43.5 77.5q4 14 4 41q0 47 -34 65.5t-108 18.5q-119 0 -245 -63l20 92q61 33 133 50t139 17q209 0 209 -155q0 -63 -23.5 -110.5t-57 -80t-95.5 -77.5q-88 -66 -140 -126.5t-73 -156.5 l-108 -514q-6 -31 -6 -53q0 -35 19 -47.5t69 -12.5h100l-18 -94h-144q-69 0 -106 35t-37 96z" />
<glyph unicode="&#xe44;" horiz-adv-x="583" d="M141 131q0 29 6 55l162 766q29 131 102.5 225.5t178.5 149.5h-371l21 94h512l-21 -98q-133 -55 -206.5 -149.5t-108.5 -249.5l-152 -717q-6 -31 -6 -53q0 -35 19.5 -47.5t68.5 -12.5h100l-18 -94h-143q-70 0 -107 35t-37 96z" />
<glyph unicode="&#xe45;" horiz-adv-x="890" d="M176 977l21 96q68 25 150.5 39t162.5 14q164 0 240.5 -58t76.5 -187q0 -68 -16 -140l-227 -1069h-113l225 1059q18 84 19 141q0 84 -54.5 120t-191.5 36q-68 0 -147.5 -13.5t-145.5 -37.5z" />
<glyph unicode="&#xe46;" horiz-adv-x="1134" d="M188 696q0 37 11 92q37 166 120.5 252t200.5 86q68 0 103.5 -22.5t58.5 -79.5q96 102 240 102q88 0 128 -38.5t40 -124.5q0 -55 -21 -154l-170 -809h-113l183 866q10 51 10 78q0 31 -12.5 49.5t-42.5 26.5q-20 4 -33 4q-14 0 -55 -8q-78 -16 -136 -92h-69 q-16 57 -40 80.5t-77 23.5q-68 0 -123 -58.5t-82 -181.5q-10 -51 -10 -83q0 -72 43 -104t135 -32q88 0 144 17l-21 -97q-70 -18 -166 -18q-115 0 -180.5 57.5t-65.5 167.5z" />
<glyph unicode="&#xe47;" d="M-711 1464q0 25 6 52q23 109 98 169t201 60h478l-25 -80h-463q-168 0 -198 -149q-6 -27 -4 -43q0 -49 30.5 -70t95.5 -21q70 0 106 21.5t44 69.5l12 57h84l-12 -57q-4 -25 -4 -31q0 -31 21.5 -42t70.5 -11h131l-16 -80h-138q-102 0 -122 63q-66 -68 -197 -67 q-92 0 -145.5 42t-53.5 117z" />
<glyph unicode="&#xe48;" d="M-74 1309l68 327h112l-69 -327h-111z" />
<glyph unicode="&#xe49;" d="M-467 1507l18 86h252l-41 -196h451l-27 -88h-534l43 198h-162z" />
<glyph unicode="&#xe4a;" d="M-692 1438q0 27 6 57q20 98 80.5 150.5t138.5 52.5q100 0 111 -88h2q23 41 66.5 64.5t94.5 23.5q131 0 132 -109q0 -20 -7 -49l-30 -158h37q35 0 50 15.5t25 56.5l52 238h81l-53 -244q-12 -66 -55 -102.5t-115 -36.5h-123l45 211q6 29 7 47q0 29 -16.5 41t-53.5 12 q-53 0 -80 -28.5t-37 -80.5l-6 -28h-76l6 28q6 25 7 45q0 63 -72 64q-51 0 -81 -30.5t-44 -96.5q-8 -45 -8 -57q0 -39 26.5 -54.5t94.5 -15.5h53l-17 -76h-63q-84 0 -131 37t-47 111z" />
<glyph unicode="&#xe4b;" d="M-195 1442l19 90h156l30 137h107l-31 -137h160l-19 -90h-159l-29 -133h-107l29 133h-156z" />
<glyph unicode="&#xe4c;" d="M-348 1307l53 249h549l-23 -86h-444l-35 -163h-100z" />
<glyph unicode="&#xe4d;" d="M-201 1425q0 96 71 166t171 70q70 0 115 -44t45 -110q0 -98 -72 -166.5t-170 -68.5q-70 0 -115 43t-45 110zM-119 1436q0 -37 22.5 -60.5t71.5 -23.5q48 0 88.5 33.5t51.5 80.5q4 20 4 31q0 37 -24.5 60.5t-69.5 23.5q-55 0 -99.5 -45t-44.5 -100z" />
<glyph unicode="&#xe4e;" d="M-375 1419q0 23 4 37q16 76 73.5 121t129.5 51q-18 20 -18 58q0 68 55 108.5t145 40.5q66 0 101 -23l-17 -71q-16 12 -41.5 18t-50.5 6q-49 0 -75.5 -13t-34.5 -48q-12 -53 71 -76l-12 -74q-31 16 -78 17q-137 0 -160 -107q-2 -6 -2 -20q0 -31 24.5 -46.5t80.5 -15.5 q78 0 129 33l-15 -74q-57 -33 -141 -32q-168 -1 -168 110z" />
<glyph unicode="&#xe4f;" horiz-adv-x="1251" d="M123 383q0 53 12 109q29 139 123 256.5t227 187.5t273 70q121 0 215 -53.5t147.5 -146.5t53.5 -208q0 -51 -13 -106q-31 -139 -125 -257t-226 -186.5t-271 -68.5q-121 0 -216.5 52t-147.5 144t-52 207zM221 387q0 -139 87 -225t251 -86q113 0 220.5 56t184 151.5 t101.5 208.5q10 55 10 96q0 141 -88 230t-250 89q-113 0 -220 -56t-184 -151.5t-100 -207.5q-12 -51 -12 -105zM377 432q0 86 46 161t122 119t160 44q94 0 154.5 -59.5t60.5 -149.5q0 -84 -47.5 -158t-123 -119t-157.5 -45q-96 0 -155.5 58.5t-59.5 148.5zM467 444 q0 -57 36 -92t107 -35q72 0 135.5 51.5t77.5 123.5q4 16 4 45q0 57 -35.5 94t-105.5 37q-74 0 -135.5 -52.5t-77.5 -123.5q-6 -25 -6 -48z" />
<glyph unicode="&#xe50;" horiz-adv-x="1255" d="M117 338q0 76 16 147q51 248 212 377t409 129q203 0 314.5 -93t111.5 -271q0 -59 -17 -142q-53 -250 -211.5 -377.5t-412.5 -127.5q-203 0 -312.5 91t-109.5 267zM225 338q0 -135 82 -198.5t252 -63.5q406 -1 492 409q18 84 18 148q0 133 -81 196.5t-255 63.5 q-399 0 -489 -408q-18 -82 -19 -147z" />
<glyph unicode="&#xe51;" horiz-adv-x="1312" d="M125 395q0 41 14 117q49 231 211 355t434 124q225 0 336 -98t111 -283q0 -76 -19 -166q-53 -250 -240.5 -419.5t-496.5 -235.5l21 102q512 111 606 555q18 86 18 160q0 141 -84 214t-272 73q-215 0 -345 -97.5t-169 -283.5q-14 -63 -14 -119q0 -100 59 -147t190 -47 q59 0 118 13t97 38l-18 -94q-102 -53 -233 -54q-152 0 -238 77t-86 216z" />
<glyph unicode="&#xe52;" horiz-adv-x="1404" d="M154 334q0 55 12 119l139 653h107l-142 -664q-12 -57 -12 -108q0 -133 94 -196.5t289 -63.5q199 0 335 79.5t171 241.5l70 336q10 55 10 80q0 49 -24.5 68.5t-80.5 19.5q-106 0 -174 -108h-71q-16 59 -42 83.5t-81 24.5q-76 0 -125 -60.5t-76 -189.5q-10 -41 -10 -84 q0 -66 40 -90t130 -24q88 0 139 16l-18 -84q-68 -18 -162 -18q-106 0 -166 48t-60 148q0 33 11 88q37 174 116.5 258t188.5 84q68 0 103.5 -23.5t62.5 -78.5q102 102 237 102q84 0 128 -42t44 -122q0 -31 -10 -82l-72 -331q-45 -213 -210.5 -323.5t-423.5 -110.5 q-218 0 -342.5 89t-124.5 265z" />
<glyph unicode="&#xe53;" horiz-adv-x="1288" d="M104 276q0 76 23 185q59 272 164.5 401t269.5 129q145 0 193 -110q49 55 119.5 82.5t138.5 27.5q92 0 149.5 -45t57.5 -133q0 -18 -9 -63l-157 -750h-113l156 733q8 49 8 64q0 51 -31 73.5t-100 22.5q-61 0 -119.5 -35t-73.5 -98l-41 -195h-98l41 195q4 20 4 31 q0 49 -38 75.5t-93 26.5q-123 0 -196.5 -105.5t-120.5 -326.5q-23 -109 -23 -174q0 -123 65.5 -167t213.5 -44q92 0 143 16l-21 -96q-59 -16 -167 -16q-170 0 -257.5 67.5t-87.5 228.5z" />
<glyph unicode="&#xe54;" horiz-adv-x="1292" d="M111 324q0 59 16 137q55 256 244.5 393t511.5 137q170 0 264 17.5t184 68.5l-20 -100q-84 -49 -185.5 -66.5t-261.5 -17.5q-272 0 -425.5 -106.5t-200.5 -325.5q-16 -68 -17 -139q0 -125 73 -185.5t224 -60.5q90 0 170 43q-31 47 -31 117q0 41 9 75q25 121 114.5 188.5 t225.5 67.5q117 0 174 -35l-21 -90q-45 35 -135 35q-111 0 -173.5 -39t-80.5 -129q-8 -33 -8 -65q0 -84 64.5 -115t201.5 -31h131l-20 -98h-113q-172 0 -268 55q-117 -76 -269 -75q-180 0 -279 89t-99 255z" />
<glyph unicode="&#xe55;" horiz-adv-x="1292" d="M111 324q0 59 16 137q43 201 165 326.5t339 168.5q-43 10 -87 33t-65 43l21 101q63 -57 181 -99.5t222 -42.5q158 0 249 17.5t179 68.5l-20 -100q-84 -49 -185.5 -66.5t-261.5 -17.5q-532 0 -626 -432q-16 -68 -17 -139q0 -125 73 -185.5t224 -60.5q90 0 170 43 q-31 47 -31 117q0 41 9 75q25 121 114.5 188.5t225.5 67.5q117 0 174 -35l-21 -90q-45 35 -135 35q-111 0 -173.5 -39t-80.5 -129q-8 -33 -8 -65q0 -84 64.5 -115t201.5 -31h131l-20 -98h-113q-172 0 -268 55q-117 -76 -269 -75q-180 0 -279 89t-99 255z" />
<glyph unicode="&#xe56;" horiz-adv-x="1327" d="M223 1106h105l51 -395q80 131 206 205.5t289 74.5q188 0 282.5 -94t94.5 -260q0 -72 -18 -156q-49 -236 -207 -368.5t-410 -132.5q-114 0 -212.5 30.5t-155.5 87.5l20 103q76 -68 164 -96.5t201 -28.5q195 0 321.5 103.5t167.5 301.5q20 90 21 170q0 121 -67.5 181.5 t-225.5 60.5q-152 0 -267.5 -74t-195.5 -235h-94z" />
<glyph unicode="&#xe57;" horiz-adv-x="1744" d="M106 287q0 80 21 174q59 274 161.5 402t268.5 128q76 0 122 -27.5t71 -82.5q49 55 118.5 82.5t139.5 27.5q96 0 150 -43t54 -129q0 -37 -8 -71l-139 -656h31q174 0 265 69.5t128 248.5l147 696h107l-144 -674q-33 -158 -96 -251t-170.5 -137t-275.5 -44h-117l156 733 q6 35 6 58q0 57 -33 80.5t-102 23.5q-59 0 -117.5 -36t-71.5 -97l-43 -197h-102l41 195q4 20 4 31q0 51 -37 77.5t-92 26.5q-125 0 -195.5 -106.5t-117.5 -327.5q-23 -109 -23 -176q0 -125 66.5 -168t214.5 -43q90 0 145 16l-21 -94q-63 -16 -169 -16q-164 0 -253.5 70.5 t-89.5 236.5z" />
<glyph unicode="&#xe58;" horiz-adv-x="1275" d="M104 266q0 88 25 205q59 276 224 398t458 122q180 0 293 17.5t205 68.5l-21 -100q-84 -49 -202.5 -66.5t-292.5 -17.5q-158 0 -266.5 -38t-180.5 -130t-106 -254q-29 -133 -29 -213q0 -96 42 -139t132 -43q70 0 128 34.5t71 100.5l41 186h92l-41 -188q-2 -8 -2 -23 q0 -53 47 -81.5t102 -28.5t96.5 10t84.5 35l77 368h-168l27 84h262l-108 -514q-70 -43 -131.5 -61t-147.5 -18q-147 0 -203 108q-45 -55 -113.5 -81.5t-148.5 -26.5q-117 0 -181.5 70.5t-64.5 215.5z" />
<glyph unicode="&#xe59;" horiz-adv-x="1515" d="M109 295q0 80 20 168q57 270 164.5 399t275.5 129q86 0 131 -27.5t64 -82.5q90 111 250 110q84 0 139 -43t55 -127q0 -25 -6 -55l-8 -43h16q111 0 167.5 49t82.5 176l25 117h102l-20 -92q-27 -127 -73 -202t-124 -108.5t-205 -33.5h-82l21 98q10 55 10 82 q0 47 -26.5 66.5t-92.5 19.5q-82 0 -139 -41t-51 -104l61 -750h-102l-64 764q-6 66 -37.5 98.5t-105.5 32.5q-123 0 -198.5 -106.5t-122.5 -327.5q-20 -94 -21 -170q0 -117 56.5 -167t172.5 -50q84 0 136 16l-21 -96q-63 -14 -158 -14q-133 0 -212.5 78.5t-79.5 236.5z" />
<glyph unicode="&#xe5a;" horiz-adv-x="1558" d="M217 846q0 29 6 59q29 119 78 201h113q-55 -80 -80 -195q-6 -31 -6 -55q0 -143 202 -143q178 0 304 86l65 307h113l-76 -363q41 -31 141 -30q176 0 301 86l66 307h112l-233 -1106h-113l148 700q-139 -86 -309 -86q-88 0 -136 27l-135 -641h-112l147 700 q-139 -86 -311 -86q-133 0 -209 63.5t-76 168.5z" />
<glyph unicode="&#xe5b;" horiz-adv-x="2385" d="M139 436q0 76 19 162q49 238 195.5 383t367.5 145q164 0 247 -72.5t83 -199.5q0 -49 -13 -104q-57 -268 -342 -375l23 100q96 47 144 113.5t69 161.5q14 72 14 112q0 86 -55 129t-186 43q-174 0 -287 -115.5t-156 -316.5q-20 -102 -20 -168q0 -150 86 -223.5t270 -73.5 q242 0 395.5 147.5t206.5 395.5q18 80 24.5 140.5t8.5 137.5h133q35 -96 55.5 -222t16.5 -230h4q49 88 97 213t58 196h107q16 -57 33.5 -171.5t21.5 -213.5h4q35 63 79 173t65 188h94q18 -55 32.5 -159.5t16.5 -172.5h4q76 117 103 283h75q-23 -104 -32 -133h141l-23 -78 h-149q-18 -45 -42 -84t-63 -94h-86q4 55 -7 159.5t-27 157.5h-5q-16 -55 -68 -178t-85 -182h-107q2 20 2 65q0 84 -10 170t-29 146h-4q-18 -68 -76.5 -202t-107.5 -222h-104q8 49 8 122q0 82 -11.5 172.5t-27.5 157.5h-4q-20 -229 -113.5 -404t-252 -272.5t-371.5 -97.5 q-216 0 -327.5 102.5t-111.5 288.5z" />
<glyph unicode="&#x1e0c;" horiz-adv-x="1294" d="M72 0l278 1319h492q221 0 325.5 -93t104.5 -296q0 -117 -35 -281q-51 -233 -127 -373.5t-206 -208t-337 -67.5h-495zM203 90h358q162 0 266.5 46t177 168t119.5 345q39 184 39 291q0 160 -84 223.5t-276 63.5h-359zM459 -311l24 116h121l-24 -116h-121z" />
<glyph unicode="&#x1e0d;" horiz-adv-x="1155" d="M111 311q0 63 20 166q55 258 198.5 386t354.5 128q100 0 175 -23.5t136 -78.5l105 491h112l-292 -1380h-95l13 109q-86 -66 -177.5 -97.5t-201.5 -31.5q-162 0 -255 81.5t-93 249.5zM221 315q0 -125 68.5 -184t216.5 -59q192 0 344 131l125 588q-51 53 -116.5 79.5 t-162.5 26.5q-176 0 -292.5 -103.5t-161.5 -316.5q-20 -102 -21 -162zM412 -311l24 116h121l-25 -116h-120z" />
<glyph unicode="&#x1e0e;" horiz-adv-x="1294" d="M72 0l278 1319h492q221 0 325.5 -93t104.5 -296q0 -117 -35 -281q-51 -233 -127 -373.5t-206 -208t-337 -67.5h-495zM170 -252l18 86h566l-19 -86h-565zM203 90h358q162 0 266.5 46t177 168t119.5 345q39 184 39 291q0 160 -84 223.5t-276 63.5h-359z" />
<glyph unicode="&#x1e0f;" horiz-adv-x="1155" d="M111 311q0 63 20 166q55 258 198.5 386t354.5 128q100 0 175 -23.5t136 -78.5l105 491h112l-292 -1380h-95l13 109q-86 -66 -177.5 -97.5t-201.5 -31.5q-162 0 -255 81.5t-93 249.5zM178 -252l19 86h565l-19 -86h-565zM221 315q0 -125 68.5 -184t216.5 -59q192 0 344 131 l125 588q-51 53 -116.5 79.5t-162.5 26.5q-176 0 -292.5 -103.5t-161.5 -316.5q-20 -102 -21 -162z" />
<glyph unicode="&#x1e20;" horiz-adv-x="1296" d="M139 430q0 86 23 193q74 340 258 528t500 188q209 0 364 -55l-22 -100q-158 57 -353 57q-270 0 -421.5 -159.5t-215.5 -458.5q-25 -113 -24 -205q0 -170 97 -256t319 -86q94 0 192 16.5t172 44.5l98 469h-374l20 90h477l-131 -616q-74 -43 -195.5 -71.5t-291.5 -28.5 q-244 0 -368 118.5t-124 331.5zM666 1468l18 86h565l-18 -86h-565z" />
<glyph unicode="&#x1e21;" horiz-adv-x="1110" d="M115 322q0 70 18 161q53 260 191.5 384t349.5 124q111 0 188.5 -31.5t134.5 -99.5l33 111h94l-206 -977q-35 -164 -169.5 -259t-338.5 -95q-56 0 -125.5 6t-104.5 14l21 98q39 -12 99 -18t110 -6q160 0 263 63.5t130 186.5l24 116q-82 -53 -165.5 -76.5t-188.5 -23.5 q-170 0 -264 78t-94 244zM223 326q0 -125 71 -179.5t226 -54.5q183 0 328 109l121 565q-96 131 -287 131q-184 0 -289.5 -101.5t-148.5 -312.5q-20 -102 -21 -157zM451 1128l18 86h565l-18 -86h-565z" />
<glyph unicode="&#x1e24;" horiz-adv-x="1290" d="M72 0l278 1319h113l-129 -614h758l129 614h112l-278 -1319h-113l129 614h-758l-129 -614h-112zM438 -311l25 116h121l-25 -116h-121z" />
<glyph unicode="&#x1e25;" horiz-adv-x="1144" d="M72 0l293 1380h112l-112 -526q92 66 193 101.5t224 35.5q285 0 285 -237q0 -51 -12 -113l-135 -641h-113l135 639q12 59 12 104q0 82 -53 118t-180 36q-96 0 -196.5 -39t-180.5 -104l-160 -754h-112zM365 -311l24 116h121l-25 -116h-120z" />
<glyph unicode="&#x1e2a;" horiz-adv-x="1290" d="M72 0l278 1319h113l-129 -614h758l129 614h112l-278 -1319h-113l129 614h-758l-129 -614h-112zM254 -184q0 37 8 71h82q-8 -45 -8 -63q0 -66 40 -95.5t120 -29.5q88 0 150.5 46t82.5 142h88q-29 -133 -117 -199.5t-217 -66.5q-106 0 -167.5 49t-61.5 146z" />
<glyph unicode="&#x1e2b;" horiz-adv-x="1144" d="M72 0l293 1380h112l-112 -526q92 66 193 101.5t224 35.5q285 0 285 -237q0 -51 -12 -113l-135 -641h-113l135 639q12 59 12 104q0 82 -53 118t-180 36q-96 0 -196.5 -39t-180.5 -104l-160 -754h-112zM193 -184q0 37 8 71h82q-8 -45 -9 -63q0 -66 40 -95.5t120 -29.5 q88 0 150.5 46t83.5 142h88q-29 -133 -117 -199.5t-217 -66.5q-107 0 -168 49t-61 146z" />
<glyph unicode="&#x1e36;" horiz-adv-x="1067" d="M72 0l278 1319h113l-260 -1229h729l-19 -90h-841zM344 -311l25 116h120l-24 -116h-121z" />
<glyph unicode="&#x1e37;" horiz-adv-x="503" d="M53 -311l25 116h121l-25 -116h-121zM102 109q0 39 9 77l254 1194h112l-254 -1190q-8 -45 -8 -57q0 -33 16.5 -45t53.5 -12q45 0 94 12l-21 -94q-45 -14 -112 -14q-72 0 -108 29.5t-36 99.5z" />
<glyph unicode="&#x1e38;" horiz-adv-x="1095" d="M100 0l279 1319h113l-261 -1229h730l-19 -90h-842zM229 1468l19 86h565l-18 -86h-566zM385 -311l25 116h120l-24 -116h-121z" />
<glyph unicode="&#x1e39;" horiz-adv-x="503" d="M74 -311l24 116h121l-24 -116h-121zM102 109q0 39 9 77l254 1194h112l-254 -1190q-8 -45 -8 -57q0 -33 16.5 -45t53.5 -12q45 0 94 12l-21 -94q-45 -14 -112 -14q-72 0 -108 29.5t-36 99.5zM160 1475l18 86h565l-18 -86h-565z" />
<glyph unicode="&#x1e3a;" horiz-adv-x="1067" d="M72 0l278 1319h113l-260 -1229h729l-19 -90h-841zM141 -240l19 86h565l-18 -86h-566z" />
<glyph unicode="&#x1e3b;" horiz-adv-x="503" d="M-162 -240l19 86h565l-19 -86h-565zM102 109q0 39 9 77l254 1194h112l-254 -1190q-8 -45 -8 -57q0 -33 16.5 -45t53.5 -12q45 0 94 12l-21 -94q-45 -14 -112 -14q-72 0 -108 29.5t-36 99.5z" />
<glyph unicode="&#x1e42;" horiz-adv-x="1523" d="M72 0l278 1319h125l270 -977l685 977h137l-279 -1319h-110l243 1155l-649 -926h-88l-258 926l-244 -1155h-110zM555 -311l25 116h120l-24 -116h-121z" />
<glyph unicode="&#x1e43;" horiz-adv-x="1740" d="M72 0l204 971h99l-15 -119q197 139 392 139q100 0 158.5 -38t72.5 -101q195 139 416 139q266 0 266 -229q0 -51 -12 -113l-137 -649h-111l135 639q14 72 14 106q0 84 -50 118t-167 34q-94 0 -183 -31.5t-157 -93.5q0 -68 -16 -137l-133 -635h-109l133 633q16 72 17 119 q0 76 -44 110.5t-145 34.5q-86 0 -182 -39t-176 -102l-160 -756h-110zM666 -311l24 116h121l-25 -116h-120z" />
<glyph unicode="&#x1e44;" horiz-adv-x="1343" d="M72 0l278 1319h107l573 -1151l244 1151h112l-278 -1319h-109l-571 1149l-244 -1149h-112zM872 1462l25 115h117l-25 -115h-117z" />
<glyph unicode="&#x1e45;" horiz-adv-x="1144" d="M72 0l204 971h99l-15 -119q195 139 422 139q285 0 285 -237q0 -51 -12 -113l-135 -641h-113l135 639q14 63 14 115q0 78 -49 110.5t-170 32.5q-104 0 -208.5 -38t-184.5 -103l-160 -756h-112zM678 1122l24 115h117l-24 -115h-117z" />
<glyph unicode="&#x1e46;" horiz-adv-x="1343" d="M72 0l278 1319h107l573 -1151l244 1151h112l-278 -1319h-109l-571 1149l-244 -1149h-112zM459 -311l24 116h121l-24 -116h-121z" />
<glyph unicode="&#x1e47;" horiz-adv-x="1144" d="M72 0l204 971h99l-15 -119q195 139 422 139q285 0 285 -237q0 -51 -12 -113l-135 -641h-113l135 639q14 63 14 115q0 78 -49 110.5t-170 32.5q-104 0 -208.5 -38t-184.5 -103l-160 -756h-112zM383 -311l25 116h120l-24 -116h-121z" />
<glyph unicode="&#x1e48;" horiz-adv-x="1343" d="M72 0l278 1319h107l573 -1151l244 1151h112l-278 -1319h-109l-571 1149l-244 -1149h-112zM258 -238l18 86h566l-19 -86h-565z" />
<glyph unicode="&#x1e49;" horiz-adv-x="1144" d="M72 0l204 971h99l-15 -119q195 139 422 139q285 0 285 -237q0 -51 -12 -113l-135 -641h-113l135 639q14 63 14 115q0 78 -49 110.5t-170 32.5q-104 0 -208.5 -38t-184.5 -103l-160 -756h-112zM168 -238l18 86h566l-19 -86h-565z" />
<glyph unicode="&#x1e5a;" horiz-adv-x="1212" d="M72 0l278 1319h551q164 0 244 -72.5t80 -206.5q0 -53 -13 -114q-33 -154 -127 -250t-243 -123q39 -20 54 -50t30 -91l90 -412h-115l-90 397q-10 51 -29.5 78t-60.5 40t-117 13h-309l-111 -528h-112zM315 618h406q311 0 379 308q12 59 12 106q0 98 -56.5 146.5 t-181.5 48.5h-430zM418 -311l24 116h121l-24 -116h-121z" />
<glyph unicode="&#x1e5b;" horiz-adv-x="700" d="M0 -311l25 116h120l-24 -116h-121zM72 0l204 971h99l-17 -135q86 51 191.5 92t206.5 63l-19 -92q-96 -23 -210.5 -67t-184.5 -87l-158 -745h-112z" />
<glyph unicode="&#x1e5c;" horiz-adv-x="1212" d="M72 0l278 1319h551q164 0 244 -72.5t80 -206.5q0 -53 -13 -114q-33 -154 -127 -250t-243 -123q39 -20 54 -50t30 -91l90 -412h-115l-90 397q-10 51 -29.5 78t-60.5 40t-117 13h-309l-111 -528h-112zM315 618h406q311 0 379 308q12 59 12 106q0 98 -56.5 146.5 t-181.5 48.5h-430zM418 -311l24 116h121l-24 -116h-121zM543 1468l18 86h565l-18 -86h-565z" />
<glyph unicode="&#x1e5d;" horiz-adv-x="704" d="M4 -311l25 116h121l-25 -116h-121zM76 0l205 971h98l-17 -135q86 51 191.5 92t206.5 63l-19 -92q-96 -23 -210.5 -67t-184.5 -87l-158 -745h-112zM170 1128l18 86h566l-19 -86h-565z" />
<glyph unicode="&#x1e5e;" horiz-adv-x="1212" d="M72 0l278 1319h551q164 0 244 -72.5t80 -206.5q0 -53 -13 -114q-33 -154 -127 -250t-243 -123q39 -20 54 -50t30 -91l90 -412h-115l-90 397q-10 51 -29.5 78t-60.5 40t-117 13h-309l-111 -528h-112zM174 -238l19 86h565l-19 -86h-565zM315 618h406q311 0 379 308 q12 59 12 106q0 98 -56.5 146.5t-181.5 48.5h-430z" />
<glyph unicode="&#x1e5f;" horiz-adv-x="700" d="M-182 -238l18 86h565l-18 -86h-565zM72 0l204 971h99l-17 -135q86 51 191.5 92t206.5 63l-19 -92q-96 -23 -210.5 -67t-184.5 -87l-158 -745h-112z" />
<glyph unicode="&#x1e60;" horiz-adv-x="1132" d="M70 37l22 100q154 -61 361 -61q197 0 306 61.5t138 198.5q8 45 8 63q0 88 -75.5 137.5t-260.5 94.5q-176 41 -257 107.5t-81 170.5q0 41 9 76q76 354 548 354q102 0 195.5 -15t146.5 -34l-20 -100q-137 51 -322 51q-197 0 -304 -61.5t-134 -194.5q-8 -45 -8 -59 q0 -53 32 -90t100.5 -65t191.5 -58q190 -47 271 -117t81 -174q0 -35 -10 -86q-37 -176 -181.5 -266t-386.5 -90q-237 0 -370 57zM731 1462l25 115h116l-24 -115h-117z" />
<glyph unicode="&#x1e61;" horiz-adv-x="915" d="M61 20l21 101q123 -45 274 -45q143 0 213 39t90 131q6 25 7 45q0 55 -41 82.5t-156 68.5l-49 19q-94 35 -137 55.5t-74 58t-31 97.5q0 18 8 63q27 129 125.5 192.5t284.5 63.5q141 0 252 -35l-23 -100q-111 37 -233 37q-145 0 -212 -36t-83 -120q-4 -14 -4 -41 q0 -55 45 -82.5t172 -70.5q145 -49 207.5 -96.5t62.5 -133.5q0 -35 -8 -67q-57 -266 -422 -266q-84 0 -160.5 11t-128.5 29zM575 1122l25 115h117l-25 -115h-117z" />
<glyph unicode="&#x1e62;" horiz-adv-x="1132" d="M70 37l22 100q154 -61 361 -61q197 0 306 61.5t138 198.5q8 45 8 63q0 88 -75.5 137.5t-260.5 94.5q-176 41 -257 107.5t-81 170.5q0 41 9 76q76 354 548 354q102 0 195.5 -15t146.5 -34l-20 -100q-137 51 -322 51q-197 0 -304 -61.5t-134 -194.5q-8 -45 -8 -59 q0 -53 32 -90t100.5 -65t191.5 -58q190 -47 271 -117t81 -174q0 -35 -10 -86q-37 -176 -181.5 -266t-386.5 -90q-237 0 -370 57zM342 -311l25 116h120l-24 -116h-121z" />
<glyph unicode="&#x1e63;" horiz-adv-x="915" d="M61 20l21 101q123 -45 274 -45q143 0 213 39t90 131q6 25 7 45q0 55 -41 82.5t-156 68.5l-49 19q-94 35 -137 55.5t-74 58t-31 97.5q0 18 8 63q27 129 125.5 192.5t284.5 63.5q141 0 252 -35l-23 -100q-111 37 -233 37q-145 0 -212 -36t-83 -120q-4 -14 -4 -41 q0 -55 45 -82.5t172 -70.5q145 -49 207.5 -96.5t62.5 -133.5q0 -35 -8 -67q-57 -266 -422 -266q-84 0 -160.5 11t-128.5 29zM274 -311l25 116h121l-25 -116h-121z" />
<glyph unicode="&#x1e6c;" horiz-adv-x="1165" d="M250 1227l18 92h1022l-18 -92h-455l-260 -1227h-113l261 1227h-455zM375 -307l24 117h121l-24 -117h-121z" />
<glyph unicode="&#x1e6d;" horiz-adv-x="716" d="M174 877l21 94h151l55 254l119 37l-61 -291h280l-26 -94h-275l-131 -621q-10 -47 -10 -76q0 -61 38 -84.5t122 -23.5q57 0 125 22l-19 -90q-74 -25 -160 -24q-106 0 -162.5 50t-56.5 142q0 33 11 80l131 625h-152zM262 -307l25 117h121l-25 -117h-121z" />
<glyph unicode="&#x1e6e;" horiz-adv-x="1165" d="M168 -233l18 86h566l-19 -86h-565zM250 1227l18 92h1022l-18 -92h-455l-260 -1227h-113l261 1227h-455z" />
<glyph unicode="&#x1e6f;" horiz-adv-x="739" d="M2 -233l18 86h566l-19 -86h-565zM174 877l21 94h151l55 254l119 37l-61 -291h280l-26 -94h-275l-131 -621q-10 -47 -10 -76q0 -61 38 -84.5t122 -23.5q57 0 125 22l-19 -90q-74 -25 -160 -24q-106 0 -162.5 50t-56.5 142q0 33 11 80l131 625h-152z" />
<glyph unicode="&#x1e80;" horiz-adv-x="1740" d="M309 1319h113l22 -1182l543 1049l27 133h92l84 -1182l524 1182h111l-584 -1319h-129l-76 1085l-555 -1085h-143zM956 1733h107l67 -324h-92z" />
<glyph unicode="&#x1e81;" horiz-adv-x="1472" d="M236 971h112l31 -856l403 749l23 107h88l84 -856l393 856h113l-457 -971h-115l-84 772l-415 -772h-129zM739 1393h107l67 -324h-92z" />
<glyph unicode="&#x1e82;" horiz-adv-x="1740" d="M309 1319h113l22 -1182l543 1049l27 133h92l84 -1182l524 1182h111l-584 -1319h-129l-76 1085l-555 -1085h-143zM1055 1409l207 324h106l-221 -324h-92z" />
<glyph unicode="&#x1e83;" horiz-adv-x="1472" d="M236 971h112l31 -856l403 749l23 107h88l84 -856l393 856h113l-457 -971h-115l-84 772l-415 -772h-129zM827 1069l207 324h107l-221 -324h-93z" />
<glyph unicode="&#x1e84;" horiz-adv-x="1740" d="M309 1319h113l22 -1182l543 1049l27 133h92l84 -1182l524 1182h111l-584 -1319h-129l-76 1085l-555 -1085h-143zM881 1458l22 113h117l-25 -113h-114zM1221 1458l24 113h115l-25 -113h-114z" />
<glyph unicode="&#x1e85;" horiz-adv-x="1472" d="M236 971h112l31 -856l403 749l23 107h88l84 -856l393 856h113l-457 -971h-115l-84 772l-415 -772h-129zM666 1118l22 113h117l-25 -113h-114zM1006 1118l24 113h115l-25 -113h-114z" />
<glyph unicode="&#x1e8e;" horiz-adv-x="1277" d="M309 1319h111l256 -727l563 727h123l-645 -825l-105 -494h-112l104 494zM807 1462l24 115h117l-24 -115h-117z" />
<glyph unicode="&#x1e8f;" horiz-adv-x="1159" d="M123 242q0 53 12 114l131 615h113l-131 -619q-12 -57 -12 -104q0 -94 57 -135t184 -41q98 0 191.5 37.5t173.5 103.5l159 758h113l-207 -977q-23 -106 -102.5 -186t-196 -124t-246.5 -44q-55 0 -124.5 6t-104.5 14l21 98q39 -12 99 -18t109 -6q168 0 286 64.5t147 185.5 l28 135q-92 -68 -192.5 -103.5t-220.5 -35.5q-139 0 -213 67.5t-74 194.5zM692 1122l25 115h117l-25 -115h-117z" />
<glyph unicode="&#x1e92;" horiz-adv-x="1163" d="M31 0l14 70l1045 1157h-764l18 92h903l-16 -80l-1036 -1149h802l-18 -90h-948zM408 -311l24 116h121l-25 -116h-120z" />
<glyph unicode="&#x1e93;" horiz-adv-x="980" d="M31 0l14 70l780 807h-581l20 94h715l-16 -78l-777 -801h619l-19 -92h-755zM297 -311l25 116h120l-24 -116h-121z" />
<glyph unicode="&#x1e97;" horiz-adv-x="716" d="M174 877l21 94h151l55 254l119 37l-61 -291h280l-26 -94h-275l-131 -621q-10 -47 -10 -76q0 -61 38 -84.5t122 -23.5q57 0 125 22l-19 -90q-74 -25 -160 -24q-106 0 -162.5 50t-56.5 142q0 33 11 80l131 625h-152zM262 1323l23 113h116l-24 -113h-115zM602 1323l25 113 h114l-24 -113h-115z" />
<glyph unicode="&#x1e9e;" horiz-adv-x="1265" d="M61 0l193 909q45 211 193.5 320.5t379.5 109.5q195 0 292.5 -79.5t97.5 -215.5q0 -39 -11 -90l-456 -247h108q147 0 224 -64.5t77 -183.5q0 -37 -10 -92q-39 -186 -164 -286.5t-317 -100.5q-181 0 -285 45l20 98q102 -47 273 -47q150 0 239 72.5t121 220.5q12 53 13 94 q0 82 -55.5 118.5t-186.5 36.5h-205l23 109l479 264q8 45 8 64q0 186 -307 186q-188 0 -295 -81t-145 -255l-191 -905h-113z" />
<glyph unicode="&#x1ea0;" horiz-adv-x="1366" d="M31 0l778 1319h143l219 -1319h-108l-66 385h-618l-225 -385h-123zM424 477h567l-125 752zM475 -311l25 116h121l-25 -116h-121z" />
<glyph unicode="&#x1ea1;" horiz-adv-x="1087" d="M106 293q0 72 19 160q55 258 209.5 398t359.5 140q100 0 169 -23.5t132 -78.5l17 82h112l-204 -971h-95l13 109q-86 -66 -177.5 -97.5t-201.5 -31.5q-353 0 -353 313zM217 301q0 -123 68.5 -176t220.5 -53q192 0 344 131l125 588q-51 53 -112.5 79.5t-153.5 26.5 q-182 0 -305 -114.5t-168 -329.5q-18 -86 -19 -152zM362 -311l25 116h121l-25 -116h-121z" />
<glyph unicode="&#x1ea2;" horiz-adv-x="1366" d="M31 0l778 1319h143l219 -1319h-108l-66 385h-618l-225 -385h-123zM424 477h567l-125 752zM813 1776l16 77q31 10 79 17.5t85 7.5q100 0 151.5 -35t51.5 -102q0 -29 -4 -43q-18 -84 -68.5 -128t-154.5 -54l-23 -107h-96l35 162q82 4 126 17.5t63.5 37t27.5 66.5q4 20 4 28 q0 80 -150 80q-33 0 -73.5 -7t-69.5 -17z" />
<glyph unicode="&#x1ea3;" horiz-adv-x="1087" d="M106 293q0 72 19 160q55 258 209.5 398t359.5 140q100 0 169 -23.5t132 -78.5l17 82h112l-204 -971h-95l13 109q-86 -66 -177.5 -97.5t-201.5 -31.5q-353 0 -353 313zM217 301q0 -123 68.5 -176t220.5 -53q192 0 344 131l125 588q-51 53 -112.5 79.5t-153.5 26.5 q-182 0 -305 -114.5t-168 -329.5q-18 -86 -19 -152zM610 1425l17 78q31 10 79 17.5t85 7.5q100 0 151 -35t51 -102q0 -29 -4 -43q-18 -84 -68.5 -128t-154.5 -55l-23 -106h-96l35 162q82 4 126 17t63.5 36.5t27.5 66.5q4 20 4 29q0 80 -149 80q-33 0 -74 -7t-70 -18z" />
<glyph unicode="&#x1ea4;" horiz-adv-x="1366" d="M31 0l778 1319h143l219 -1319h-108l-66 385h-618l-225 -385h-123zM424 477h567l-125 752zM633 1407l258 225h98l164 -225h-94l-123 174l-197 -174h-106zM1079 1624l174 240h95l-185 -240h-84z" />
<glyph unicode="&#x1ea5;" horiz-adv-x="1087" d="M106 293q0 72 19 160q55 258 209.5 398t359.5 140q100 0 169 -23.5t132 -78.5l17 82h112l-204 -971h-95l13 109q-86 -66 -177.5 -97.5t-201.5 -31.5q-353 0 -353 313zM217 301q0 -123 68.5 -176t220.5 -53q192 0 344 131l125 588q-51 53 -112.5 79.5t-153.5 26.5 q-182 0 -305 -114.5t-168 -329.5q-18 -86 -19 -152zM461 1067l258 225h98l164 -225h-94l-123 174l-197 -174h-106zM907 1284l174 240h95l-185 -240h-84z" />
<glyph unicode="&#x1ea6;" horiz-adv-x="1366" d="M31 0l778 1319h143l219 -1319h-108l-66 385h-618l-225 -385h-123zM424 477h567l-125 752zM639 1864h96l70 -240h-82zM643 1407l258 225h98l164 -225h-94l-123 174l-196 -174h-107z" />
<glyph unicode="&#x1ea7;" horiz-adv-x="1087" d="M106 293q0 72 19 160q55 258 209.5 398t359.5 140q100 0 169 -23.5t132 -78.5l17 82h112l-204 -971h-95l13 109q-86 -66 -177.5 -97.5t-201.5 -31.5q-353 0 -353 313zM217 301q0 -123 68.5 -176t220.5 -53q192 0 344 131l125 588q-51 53 -112.5 79.5t-153.5 26.5 q-182 0 -305 -114.5t-168 -329.5q-18 -86 -19 -152zM440 1524h97l69 -240h-82zM444 1067l258 225h99l164 -225h-95l-122 174l-197 -174h-107z" />
<glyph unicode="&#x1ea8;" horiz-adv-x="1366" d="M31 0l778 1319h143l219 -1319h-108l-66 385h-618l-225 -385h-123zM424 477h567l-125 752zM639 1407l258 225h98l164 -225h-94l-123 174l-194 -174h-109zM1092 1853l14 70q68 25 139 25q74 0 114 -30t40 -83q0 -10 -4 -35q-14 -66 -60.5 -101.5t-132.5 -43.5l-16 -74h-92 l24 121q102 6 140 27.5t49 66.5q2 8 2 23q0 61 -92 61q-61 0 -125 -27z" />
<glyph unicode="&#x1ea9;" horiz-adv-x="1087" d="M106 293q0 72 19 160q55 258 209.5 398t359.5 140q100 0 169 -23.5t132 -78.5l17 82h112l-204 -971h-95l13 109q-86 -66 -177.5 -97.5t-201.5 -31.5q-353 0 -353 313zM217 301q0 -123 68.5 -176t220.5 -53q192 0 344 131l125 588q-51 53 -112.5 79.5t-153.5 26.5 q-182 0 -305 -114.5t-168 -329.5q-18 -86 -19 -152zM446 1067l259 225h98l164 -225h-95l-122 174l-195 -174h-109zM899 1513l14 70q68 25 140 25q74 0 113.5 -30t39.5 -83q0 -10 -4 -35q-14 -66 -60 -101.5t-132 -43.5l-17 -74h-92l25 121q102 6 140 27.5t48 66.5q2 8 2 23 q0 61 -92 61q-61 0 -125 -27z" />
<glyph unicode="&#x1eaa;" horiz-adv-x="1366" d="M31 0l778 1319h143l219 -1319h-108l-66 385h-618l-225 -385h-123zM424 477h567l-125 752zM635 1407l258 225h98l164 -225h-94l-123 174l-195 -174h-108zM678 1651l20 90q29 25 73 39t87 14q35 0 61.5 -8t63.5 -27q37 -16 59.5 -24.5t51.5 -8.5q47 0 85 15.5t74 50.5 l-20 -90q-27 -25 -68 -39t-86 -14q-55 0 -129 37q-66 31 -104 30q-47 0 -88 -14t-80 -51z" />
<glyph unicode="&#x1eab;" horiz-adv-x="1087" d="M106 293q0 72 19 160q55 258 209.5 398t359.5 140q100 0 169 -23.5t132 -78.5l17 82h112l-204 -971h-95l13 109q-86 -66 -177.5 -97.5t-201.5 -31.5q-353 0 -353 313zM217 301q0 -123 68.5 -176t220.5 -53q192 0 344 131l125 588q-51 53 -112.5 79.5t-153.5 26.5 q-182 0 -305 -114.5t-168 -329.5q-18 -86 -19 -152zM459 1067l258 225h98l164 -225h-94l-123 174l-195 -174h-108zM502 1311l20 90q29 25 73 39t87 14q35 0 61.5 -8t63.5 -27q37 -16 59.5 -24.5t51.5 -8.5q47 0 84.5 15.5t74.5 50.5l-20 -90q-27 -25 -68 -39t-86 -14 q-55 0 -129 37q-66 31 -104 30q-47 0 -88 -14t-80 -51z" />
<glyph unicode="&#x1eac;" horiz-adv-x="1366" d="M31 0l778 1319h143l219 -1319h-108l-66 385h-618l-225 -385h-123zM424 477h567l-125 752zM475 -311l25 116h121l-25 -116h-121zM635 1407l272 276h99l155 -276h-98l-117 211l-207 -211h-104z" />
<glyph unicode="&#x1ead;" horiz-adv-x="1087" d="M106 293q0 72 19 160q55 258 209.5 398t359.5 140q100 0 169 -23.5t132 -78.5l17 82h112l-204 -971h-95l13 109q-86 -66 -177.5 -97.5t-201.5 -31.5q-353 0 -353 313zM217 301q0 -123 68.5 -176t220.5 -53q192 0 344 131l125 588q-51 53 -112.5 79.5t-153.5 26.5 q-182 0 -305 -114.5t-168 -329.5q-18 -86 -19 -152zM358 -311l25 116h121l-25 -116h-121zM446 1067l273 276h98l156 -276h-99l-116 211l-207 -211h-105z" />
<glyph unicode="&#x1eae;" horiz-adv-x="1366" d="M31 0l778 1319h143l219 -1319h-108l-66 385h-618l-225 -385h-123zM424 477h567l-125 752zM668 1604q0 37 8 75h74q-8 -33 -9 -65q0 -68 42 -99.5t128 -31.5q94 0 161 49t87 147h84q-31 -139 -124 -204.5t-216 -65.5q-104 0 -169.5 47t-65.5 148zM879 1610l174 239h96 l-186 -239h-84z" />
<glyph unicode="&#x1eaf;" horiz-adv-x="1087" d="M106 293q0 72 19 160q55 258 209.5 398t359.5 140q100 0 169 -23.5t132 -78.5l17 82h112l-204 -971h-95l13 109q-86 -66 -177.5 -97.5t-201.5 -31.5q-353 0 -353 313zM217 301q0 -123 68.5 -176t220.5 -53q192 0 344 131l125 588q-51 53 -112.5 79.5t-153.5 26.5 q-182 0 -305 -114.5t-168 -329.5q-18 -86 -19 -152zM500 1264q0 37 8 75h74q-8 -33 -9 -65q0 -68 42 -99.5t128 -31.5q94 0 161 49t87 147h84q-31 -139 -124 -204.5t-216 -65.5q-104 0 -169.5 47t-65.5 148zM711 1270l174 239h96l-186 -239h-84z" />
<glyph unicode="&#x1eb0;" horiz-adv-x="1366" d="M31 0l778 1319h143l219 -1319h-108l-66 385h-618l-225 -385h-123zM424 477h567l-125 752zM668 1604q0 37 8 75h74q-8 -33 -9 -65q0 -68 42 -99.5t128 -31.5q94 0 161 49t87 147h84q-31 -139 -124 -204.5t-216 -65.5q-104 0 -169.5 47t-65.5 148zM842 1849h96l70 -239h-82 z" />
<glyph unicode="&#x1eb1;" horiz-adv-x="1087" d="M106 293q0 72 19 160q55 258 209.5 398t359.5 140q100 0 169 -23.5t132 -78.5l17 82h112l-204 -971h-95l13 109q-86 -66 -177.5 -97.5t-201.5 -31.5q-353 0 -353 313zM217 301q0 -123 68.5 -176t220.5 -53q192 0 344 131l125 588q-51 53 -112.5 79.5t-153.5 26.5 q-182 0 -305 -114.5t-168 -329.5q-18 -86 -19 -152zM492 1264q0 37 8 75h73q-8 -33 -8 -65q0 -68 42 -99.5t128 -31.5q94 0 161 49t87 147h84q-31 -139 -124 -204.5t-216 -65.5q-104 0 -169.5 47t-65.5 148zM666 1509h96l69 -239h-81z" />
<glyph unicode="&#x1eb2;" horiz-adv-x="1366" d="M31 0l778 1319h143l219 -1319h-108l-66 385h-618l-225 -385h-123zM424 477h567l-125 752zM668 1604q0 37 8 75h74q-8 -33 -9 -65q0 -68 42 -99.5t128 -31.5q94 0 161 49t87 147h84q-31 -139 -124 -204.5t-216 -65.5q-104 0 -169.5 47t-65.5 148zM866 1862l15 67 q68 25 141 25q72 0 112 -29t40 -82q0 -10 -5 -35q-14 -66 -59 -100.5t-135 -46.5l-17 -72h-90l25 117q102 4 141 26.5t49 69.5q2 8 2 25q0 61 -94 61q-61 0 -125 -26z" />
<glyph unicode="&#x1eb3;" horiz-adv-x="1087" d="M106 293q0 72 19 160q55 258 209.5 398t359.5 140q100 0 169 -23.5t132 -78.5l17 82h112l-204 -971h-95l13 109q-86 -66 -177.5 -97.5t-201.5 -31.5q-353 0 -353 313zM217 301q0 -123 68.5 -176t220.5 -53q192 0 344 131l125 588q-51 53 -112.5 79.5t-153.5 26.5 q-182 0 -305 -114.5t-168 -329.5q-18 -86 -19 -152zM496 1264q0 37 8 75h74q-8 -33 -9 -65q0 -68 42 -99.5t128 -31.5q94 0 161 49t87 147h84q-31 -139 -124 -204.5t-216 -65.5q-104 0 -169.5 47t-65.5 148zM694 1522l15 67q68 25 141 25q72 0 111.5 -29t39.5 -82 q0 -10 -4 -35q-14 -66 -59 -100.5t-135 -46.5l-17 -72h-90l25 117q102 4 141 26.5t49 69.5q2 8 2 25q0 61 -94 61q-61 0 -125 -26z" />
<glyph unicode="&#x1eb4;" horiz-adv-x="1366" d="M31 0l778 1319h143l219 -1319h-108l-66 385h-618l-225 -385h-123zM424 477h567l-125 752zM666 1604q0 37 8 75h74q-8 -33 -9 -65q0 -68 42 -99.5t128 -31.5q94 0 161 49t87 147h84q-31 -139 -124 -204.5t-216 -65.5q-104 0 -169.5 47t-65.5 148zM696 1741l19 88 q31 27 75 41t87 14q35 0 62.5 -9t61.5 -28q37 -16 59.5 -24t51.5 -8q47 0 85 15t77 52l-21 -90q-27 -27 -67.5 -41t-87.5 -14q-55 0 -129 37q-37 16 -58.5 24t-46.5 8q-47 0 -88 -14t-80 -51z" />
<glyph unicode="&#x1eb5;" horiz-adv-x="1087" d="M106 293q0 72 19 160q55 258 209.5 398t359.5 140q100 0 169 -23.5t132 -78.5l17 82h112l-204 -971h-95l13 109q-86 -66 -177.5 -97.5t-201.5 -31.5q-353 0 -353 313zM217 301q0 -123 68.5 -176t220.5 -53q192 0 344 131l125 588q-51 53 -112.5 79.5t-153.5 26.5 q-182 0 -305 -114.5t-168 -329.5q-18 -86 -19 -152zM502 1264q0 37 8 75h74q-8 -33 -9 -65q0 -68 42 -99.5t128 -31.5q94 0 161 49t87 147h84q-31 -139 -124 -204.5t-216 -65.5q-104 0 -169.5 47t-65.5 148zM532 1401l19 88q31 27 75 41t87 14q35 0 62.5 -9t62.5 -28 q37 -16 59.5 -24t50.5 -8q47 0 85 15t77 52l-20 -90q-27 -27 -68 -41t-88 -14q-55 0 -129 37q-37 16 -58.5 24t-46.5 8q-47 0 -88 -14t-80 -51z" />
<glyph unicode="&#x1eb6;" horiz-adv-x="1366" d="M31 0l778 1319h143l219 -1319h-108l-66 385h-618l-225 -385h-123zM424 477h567l-125 752zM475 -311l25 116h121l-25 -116h-121zM713 1577q0 27 6 57h82q-6 -27 -6 -49q0 -98 114 -98q66 0 114 39t62 108h91q-23 -102 -96.5 -164.5t-182.5 -62.5q-88 0 -136 46t-48 124z " />
<glyph unicode="&#x1eb7;" horiz-adv-x="1087" d="M106 293q0 72 19 160q55 258 209.5 398t359.5 140q100 0 169 -23.5t132 -78.5l17 82h112l-204 -971h-95l13 109q-86 -66 -177.5 -97.5t-201.5 -31.5q-353 0 -353 313zM217 301q0 -123 68.5 -176t220.5 -53q192 0 344 131l125 588q-51 53 -112.5 79.5t-153.5 26.5 q-182 0 -305 -114.5t-168 -329.5q-18 -86 -19 -152zM367 -311l24 116h121l-25 -116h-120zM530 1237q0 27 7 57h81q-6 -27 -6 -49q0 -98 115 -98q66 0 114 39t62 108h90q-23 -102 -96.5 -164.5t-181.5 -62.5q-88 0 -136.5 46t-48.5 124z" />
<glyph unicode="&#x1eb8;" horiz-adv-x="1107" d="M72 0l278 1319h862l-18 -92h-750l-110 -522h678l-21 -91h-678l-110 -524h749l-18 -90h-862zM369 -311l24 116h121l-25 -116h-120z" />
<glyph unicode="&#x1eb9;" horiz-adv-x="1075" d="M113 309q0 76 22 183q104 500 553 499q168 0 250 -76.5t82 -205.5q0 -51 -12 -107l-37 -176h-738q-12 -68 -12 -123q0 -125 80 -178t268 -53q135 0 273 51l-19 -92q-137 -51 -297 -51q-213 0 -313 80.5t-100 248.5zM252 514h635l18 92q12 55 13 105q0 92 -57.5 139 t-188.5 47q-184 0 -281.5 -95t-138.5 -288zM342 -311l25 116h120l-24 -116h-121z" />
<glyph unicode="&#x1eba;" horiz-adv-x="1107" d="M72 0l278 1319h862l-18 -92h-750l-110 -522h678l-21 -91h-678l-110 -524h749l-18 -90h-862zM698 1776l17 77q31 10 79 17.5t85 7.5q100 0 151 -35t51 -102q0 -29 -4 -43q-18 -84 -68.5 -128t-154.5 -54l-23 -107h-96l35 162q82 4 126 17.5t63.5 37t27.5 66.5q4 20 4 28 q0 80 -149 80q-33 0 -74 -7t-70 -17z" />
<glyph unicode="&#x1ebb;" horiz-adv-x="1075" d="M113 309q0 76 22 183q104 500 553 499q168 0 250 -76.5t82 -205.5q0 -51 -12 -107l-37 -176h-738q-12 -68 -12 -123q0 -125 80 -178t268 -53q135 0 273 51l-19 -92q-137 -51 -297 -51q-213 0 -313 80.5t-100 248.5zM252 514h635l18 92q12 55 13 105q0 92 -57.5 139 t-188.5 47q-184 0 -281.5 -95t-138.5 -288zM618 1436l17 77q31 10 79 17.5t85 7.5q100 0 151 -35t51 -102q0 -29 -4 -43q-18 -84 -68 -128t-155 -54l-22 -107h-97l35 162q82 4 126 17.5t63.5 37t27.5 66.5q4 20 4 28q0 80 -149 80q-33 0 -74 -7t-70 -17z" />
<glyph unicode="&#x1ebc;" horiz-adv-x="1107" d="M72 0l278 1319h862l-18 -92h-750l-110 -522h678l-21 -91h-678l-110 -524h749l-18 -90h-862zM516 1464l21 97q29 27 77 43t95 16q37 0 65.5 -9t69.5 -30q37 -18 62.5 -27.5t56.5 -9.5q98 0 163 72l-20 -96q-25 -29 -67 -44.5t-91 -15.5q-35 0 -67.5 10.5t-73.5 30.5 q-37 16 -62.5 25.5t-52.5 9.5q-104 0 -176 -72z" />
<glyph unicode="&#x1ebd;" horiz-adv-x="1075" d="M113 309q0 76 22 183q104 500 553 499q168 0 250 -76.5t82 -205.5q0 -51 -12 -107l-37 -176h-738q-12 -68 -12 -123q0 -125 80 -178t268 -53q135 0 273 51l-19 -92q-137 -51 -297 -51q-213 0 -313 80.5t-100 248.5zM252 514h635l18 92q12 55 13 105q0 92 -57.5 139 t-188.5 47q-184 0 -281.5 -95t-138.5 -288zM420 1124l20 97q29 27 77 43t95 16q37 0 66 -9t70 -30q37 -18 62.5 -27.5t55.5 -9.5q98 0 164 72l-20 -96q-25 -29 -67 -44.5t-91 -15.5q-35 0 -67.5 10.5t-73.5 30.5q-37 16 -62.5 25.5t-52.5 9.5q-104 0 -176 -72z" />
<glyph unicode="&#x1ebe;" horiz-adv-x="1107" d="M72 0l278 1319h862l-18 -92h-750l-110 -522h678l-21 -91h-678l-110 -524h749l-18 -90h-862zM526 1407l258 225h99l164 -225h-95l-123 174l-196 -174h-107zM973 1624l174 240h94l-184 -240h-84z" />
<glyph unicode="&#x1ebf;" horiz-adv-x="1075" d="M113 309q0 76 22 183q104 500 553 499q168 0 250 -76.5t82 -205.5q0 -51 -12 -107l-37 -176h-738q-12 -68 -12 -123q0 -125 80 -178t268 -53q135 0 273 51l-19 -92q-137 -51 -297 -51q-213 0 -313 80.5t-100 248.5zM252 514h635l18 92q12 55 13 105q0 92 -57.5 139 t-188.5 47q-184 0 -281.5 -95t-138.5 -288zM440 1067l258 225h99l164 -225h-95l-123 174l-196 -174h-107zM887 1284l174 240h94l-184 -240h-84z" />
<glyph unicode="&#x1ec0;" horiz-adv-x="1107" d="M72 0l278 1319h862l-18 -92h-750l-110 -522h678l-21 -91h-678l-110 -524h749l-18 -90h-862zM555 1864h96l70 -240h-82zM559 1407l258 225h98l164 -225h-94l-123 174l-196 -174h-107z" />
<glyph unicode="&#x1ec1;" horiz-adv-x="1075" d="M113 309q0 76 22 183q104 500 553 499q168 0 250 -76.5t82 -205.5q0 -51 -12 -107l-37 -176h-738q-12 -68 -12 -123q0 -125 80 -178t268 -53q135 0 273 51l-19 -92q-137 -51 -297 -51q-213 0 -313 80.5t-100 248.5zM252 514h635l18 92q12 55 13 105q0 92 -57.5 139 t-188.5 47q-184 0 -281.5 -95t-138.5 -288zM467 1559h96l70 -240h-82zM471 1102l258 225h98l164 -225h-94l-123 174l-196 -174h-107z" />
<glyph unicode="&#x1ec2;" horiz-adv-x="1107" d="M72 0l278 1319h862l-18 -92h-750l-110 -522h678l-21 -91h-678l-110 -524h749l-18 -90h-862zM541 1407l258 225h98l164 -225h-94l-123 174l-195 -174h-108zM993 1853l15 70q68 25 139 25q74 0 113.5 -30t39.5 -83q0 -10 -4 -35q-14 -66 -60 -101.5t-132 -43.5l-17 -74h-92 l25 121q102 6 140 27.5t48 66.5q2 8 2 23q0 61 -92 61q-61 0 -125 -27z" />
<glyph unicode="&#x1ec3;" horiz-adv-x="1087" d="M113 309q0 76 22 183q104 500 553 499q168 0 250 -76.5t82 -205.5q0 -51 -12 -107l-37 -176h-738q-12 -68 -12 -123q0 -125 80 -178t268 -53q135 0 273 51l-19 -92q-137 -51 -297 -51q-213 0 -313 80.5t-100 248.5zM252 514h635l18 92q12 55 13 105q0 92 -57.5 139 t-188.5 47q-184 0 -281.5 -95t-138.5 -288zM436 1067l258 225h99l163 -225h-94l-123 174l-194 -174h-109zM889 1513l14 70q68 25 139 25q74 0 114 -30t40 -83q0 -10 -4 -35q-14 -66 -60.5 -101.5t-132.5 -43.5l-16 -74h-92l24 121q102 6 140.5 27.5t48.5 66.5q2 8 2 23 q0 61 -92 61q-61 0 -125 -27z" />
<glyph unicode="&#x1ec4;" horiz-adv-x="1107" d="M72 0l278 1319h862l-18 -92h-750l-110 -522h678l-21 -91h-678l-110 -524h749l-18 -90h-862zM543 1407l258 225h98l164 -225h-94l-123 174l-195 -174h-108zM586 1651l20 90q29 25 73 39t87 14q35 0 61.5 -8t63.5 -27q37 -16 59.5 -24.5t50.5 -8.5q47 0 85 15.5t75 50.5 l-20 -90q-27 -25 -68 -39t-86 -14q-55 0 -129 37q-66 31 -104 30q-47 0 -88 -14t-80 -51z" />
<glyph unicode="&#x1ec5;" horiz-adv-x="1075" d="M113 309q0 76 22 183q104 500 553 499q168 0 250 -76.5t82 -205.5q0 -51 -12 -107l-37 -176h-738q-12 -68 -12 -123q0 -125 80 -178t268 -53q135 0 273 51l-19 -92q-137 -51 -297 -51q-213 0 -313 80.5t-100 248.5zM252 514h635l18 92q12 55 13 105q0 92 -57.5 139 t-188.5 47q-184 0 -281.5 -95t-138.5 -288zM446 1067l259 225h98l164 -225h-95l-122 174l-195 -174h-109zM489 1311l21 90q29 25 73 39t87 14q35 0 61.5 -8t63.5 -27q37 -16 59.5 -24.5t50.5 -8.5q47 0 85 15.5t75 50.5l-21 -90q-27 -25 -67.5 -39t-85.5 -14q-55 0 -129 37 q-66 31 -105 30q-47 0 -88 -14t-80 -51z" />
<glyph unicode="&#x1ec6;" horiz-adv-x="1107" d="M72 0l278 1319h862l-18 -92h-750l-110 -522h678l-21 -91h-678l-110 -524h749l-18 -90h-862zM352 -311l25 116h121l-25 -116h-121zM512 1407l272 276h99l155 -276h-98l-117 211l-207 -211h-104z" />
<glyph unicode="&#x1ec7;" horiz-adv-x="1075" d="M113 309q0 76 22 183q104 500 553 499q168 0 250 -76.5t82 -205.5q0 -51 -12 -107l-37 -176h-738q-12 -68 -12 -123q0 -125 80 -178t268 -53q135 0 273 51l-19 -92q-137 -51 -297 -51q-213 0 -313 80.5t-100 248.5zM252 514h635l18 92q12 55 13 105q0 92 -57.5 139 t-188.5 47q-184 0 -281.5 -95t-138.5 -288zM354 -311l25 116h121l-25 -116h-121zM442 1067l273 276h98l156 -276h-99l-116 211l-207 -211h-105z" />
<glyph unicode="&#x1ec8;" horiz-adv-x="419" d="M72 0l278 1319h113l-279 -1319h-112zM340 1776l16 77q31 10 79 17.5t85 7.5q100 0 151.5 -35t51.5 -102q0 -29 -4 -43q-18 -84 -68.5 -128t-154.5 -54l-23 -107h-96l35 162q82 4 126 17.5t63.5 37t27.5 66.5q4 20 4 28q0 80 -150 80q-33 0 -73.5 -7t-69.5 -17z" />
<glyph unicode="&#x1ec9;" horiz-adv-x="552" d="M205 0l184 877h-153l28 94h258l-205 -971h-112zM354 1436l17 77q31 10 79 17.5t85 7.5q100 0 151 -35t51 -102q0 -29 -4 -43q-18 -84 -68.5 -128t-154.5 -54l-23 -107h-96l35 162q82 4 126 17.5t63.5 37t27.5 66.5q4 20 4 28q0 80 -149 80q-33 0 -74 -7t-70 -17z" />
<glyph unicode="&#x1eca;" horiz-adv-x="419" d="M2 -311l25 116h120l-24 -116h-121zM72 0l278 1319h113l-279 -1319h-112z" />
<glyph unicode="&#x1ecb;" horiz-adv-x="552" d="M135 -311l25 116h121l-25 -116h-121zM203 0l184 877h-151l32 94h252l-205 -971h-112zM446 1223l27 123h129l-27 -123h-129z" />
<glyph unicode="&#x1ecc;" horiz-adv-x="1409" d="M141 424q0 109 27 229q76 354 253 520t486 166q240 0 357.5 -105.5t117.5 -324.5q0 -111 -30 -256q-72 -338 -249 -505.5t-487 -167.5q-475 0 -475 444zM250 418q0 -178 92 -260t295 -82q244 0 391.5 140t210.5 437q33 145 33 260q0 176 -92.5 252t-294.5 76 q-166 0 -284 -57.5t-197.5 -186.5t-124.5 -344q-29 -139 -29 -235zM496 -311l24 116h121l-25 -116h-120z" />
<glyph unicode="&#x1ecd;" horiz-adv-x="1153" d="M113 305q0 86 20 180q53 254 187.5 380t381.5 126q379 0 379 -332q0 -84 -20 -174q-53 -256 -187.5 -380.5t-386.5 -124.5q-192 0 -283 81.5t-91 243.5zM221 309q0 -121 66.5 -177t220.5 -56q190 0 292.5 98t147.5 311q23 102 23 170q0 123 -67.5 180.5t-221.5 57.5 q-188 0 -290.5 -98.5t-147.5 -309.5q-23 -106 -23 -176zM369 -311l24 116h121l-25 -116h-120z" />
<glyph unicode="&#x1ece;" horiz-adv-x="1409" d="M141 424q0 109 27 229q76 354 253 520t486 166q240 0 357.5 -105.5t117.5 -324.5q0 -111 -30 -256q-72 -338 -249 -505.5t-487 -167.5q-475 0 -475 444zM250 418q0 -178 92 -260t295 -82q244 0 391.5 140t210.5 437q33 145 33 260q0 176 -92.5 252t-294.5 76 q-166 0 -284 -57.5t-197.5 -186.5t-124.5 -344q-29 -139 -29 -235zM842 1776l16 77q31 10 79 17.5t85 7.5q100 0 151.5 -35t51.5 -102q0 -29 -4 -43q-18 -84 -68.5 -128t-155.5 -54l-22 -107h-96l34 162q82 4 126 17.5t63.5 37t27.5 66.5q4 20 5 28q0 80 -150 80 q-33 0 -74 -7t-69 -17z" />
<glyph unicode="&#x1ecf;" horiz-adv-x="1153" d="M113 305q0 86 20 180q53 254 187.5 380t381.5 126q379 0 379 -332q0 -84 -20 -174q-53 -256 -187.5 -380.5t-386.5 -124.5q-192 0 -283 81.5t-91 243.5zM221 309q0 -121 66.5 -177t220.5 -56q190 0 292.5 98t147.5 311q23 102 23 170q0 123 -67.5 180.5t-221.5 57.5 q-188 0 -290.5 -98.5t-147.5 -309.5q-23 -106 -23 -176zM639 1436l16 77q31 10 79 17.5t85 7.5q100 0 151.5 -35t51.5 -102q0 -29 -4 -43q-18 -84 -68.5 -128t-154.5 -54l-23 -107h-96l35 162q82 4 126 17.5t63.5 37t27.5 66.5q4 20 4 28q0 80 -150 80q-33 0 -73.5 -7 t-69.5 -17z" />
<glyph unicode="&#x1ed0;" horiz-adv-x="1409" d="M141 424q0 109 27 229q76 354 253 520t486 166q240 0 357.5 -105.5t117.5 -324.5q0 -111 -30 -256q-72 -338 -249 -505.5t-487 -167.5q-475 0 -475 444zM250 418q0 -178 92 -260t295 -82q244 0 391.5 140t210.5 437q33 145 33 260q0 176 -92.5 252t-294.5 76 q-166 0 -284 -57.5t-197.5 -186.5t-124.5 -344q-29 -139 -29 -235zM672 1407l258 225h98l164 -225h-94l-123 174l-197 -174h-106zM1118 1624l174 240h94l-184 -240h-84z" />
<glyph unicode="&#x1ed1;" horiz-adv-x="1153" d="M113 305q0 86 20 180q53 254 187.5 380t381.5 126q379 0 379 -332q0 -84 -20 -174q-53 -256 -187.5 -380.5t-386.5 -124.5q-192 0 -283 81.5t-91 243.5zM221 309q0 -121 66.5 -177t220.5 -56q190 0 292.5 98t147.5 311q23 102 23 170q0 123 -67.5 180.5t-221.5 57.5 q-188 0 -290.5 -98.5t-147.5 -309.5q-23 -106 -23 -176zM475 1067l258 225h98l164 -225h-94l-123 174l-196 -174h-107zM922 1284l174 240h94l-184 -240h-84z" />
<glyph unicode="&#x1ed2;" horiz-adv-x="1409" d="M141 424q0 109 27 229q76 354 253 520t486 166q240 0 357.5 -105.5t117.5 -324.5q0 -111 -30 -256q-72 -338 -249 -505.5t-487 -167.5q-475 0 -475 444zM250 418q0 -178 92 -260t295 -82q244 0 391.5 140t210.5 437q33 145 33 260q0 176 -92.5 252t-294.5 76 q-166 0 -284 -57.5t-197.5 -186.5t-124.5 -344q-29 -139 -29 -235zM647 1864h96l70 -240h-82zM651 1407l258 225h99l163 -225h-94l-123 174l-196 -174h-107z" />
<glyph unicode="&#x1ed3;" horiz-adv-x="1153" d="M113 305q0 86 20 180q53 254 187.5 380t381.5 126q379 0 379 -332q0 -84 -20 -174q-53 -256 -187.5 -380.5t-386.5 -124.5q-192 0 -283 81.5t-91 243.5zM221 309q0 -121 66.5 -177t220.5 -56q190 0 292.5 98t147.5 311q23 102 23 170q0 123 -67.5 180.5t-221.5 57.5 q-188 0 -290.5 -98.5t-147.5 -309.5q-23 -106 -23 -176zM455 1524h96l70 -240h-82zM459 1067l258 225h98l164 -225h-94l-123 174l-197 -174h-106z" />
<glyph unicode="&#x1ed4;" horiz-adv-x="1409" d="M141 424q0 109 27 229q76 354 253 520t486 166q240 0 357.5 -105.5t117.5 -324.5q0 -111 -30 -256q-72 -338 -249 -505.5t-487 -167.5q-475 0 -475 444zM250 418q0 -178 92 -260t295 -82q244 0 391.5 140t210.5 437q33 145 33 260q0 176 -92.5 252t-294.5 76 q-166 0 -284 -57.5t-197.5 -186.5t-124.5 -344q-29 -139 -29 -235zM662 1407l258 225h98l164 -225h-95l-122 174l-195 -174h-108zM1114 1853l14 70q68 25 140 25q74 0 113.5 -30t39.5 -83q0 -10 -4 -35q-14 -66 -60 -101.5t-132 -43.5l-17 -74h-92l25 121q102 6 140 27.5 t48 66.5q2 8 2 23q0 61 -92 61q-61 0 -125 -27z" />
<glyph unicode="&#x1ed5;" horiz-adv-x="1153" d="M113 305q0 86 20 180q53 254 187.5 380t381.5 126q379 0 379 -332q0 -84 -20 -174q-53 -256 -187.5 -380.5t-386.5 -124.5q-192 0 -283 81.5t-91 243.5zM221 309q0 -121 66.5 -177t220.5 -56q190 0 292.5 98t147.5 311q23 102 23 170q0 123 -67.5 180.5t-221.5 57.5 q-188 0 -290.5 -98.5t-147.5 -309.5q-23 -106 -23 -176zM487 1067l258 225h99l164 -225h-95l-122 174l-195 -174h-109zM940 1513l14 70q68 25 140 25q74 0 113.5 -30t39.5 -83q0 -10 -4 -35q-14 -66 -60 -101.5t-132 -43.5l-17 -74h-92l25 121q102 6 140 27.5t48 66.5 q2 8 2 23q0 61 -92 61q-61 0 -125 -27z" />
<glyph unicode="&#x1ed6;" horiz-adv-x="1409" d="M141 424q0 109 27 229q76 354 253 520t486 166q240 0 357.5 -105.5t117.5 -324.5q0 -111 -30 -256q-72 -338 -249 -505.5t-487 -167.5q-475 0 -475 444zM250 418q0 -178 92 -260t295 -82q244 0 391.5 140t210.5 437q33 145 33 260q0 176 -92.5 252t-294.5 76 q-166 0 -284 -57.5t-197.5 -186.5t-124.5 -344q-29 -139 -29 -235zM688 1604q0 37 8 75h74q-8 -33 -8 -65q0 -68 42 -99.5t128 -31.5q94 0 160.5 49t87.5 147h84q-31 -139 -124 -204.5t-216 -65.5q-105 0 -170.5 47t-65.5 148zM719 1741l18 88q31 27 75 41t87 14 q35 0 62.5 -9t62.5 -28q37 -16 59.5 -24t51.5 -8q47 0 84.5 15t76.5 52l-20 -90q-27 -27 -68 -41t-88 -14q-55 0 -129 37q-37 16 -58.5 24t-45.5 8q-47 0 -88 -14t-80 -51z" />
<glyph unicode="&#x1ed7;" horiz-adv-x="1153" d="M113 305q0 86 20 180q53 254 187.5 380t381.5 126q379 0 379 -332q0 -84 -20 -174q-53 -256 -187.5 -380.5t-386.5 -124.5q-192 0 -283 81.5t-91 243.5zM221 309q0 -121 66.5 -177t220.5 -56q190 0 292.5 98t147.5 311q23 102 23 170q0 123 -67.5 180.5t-221.5 57.5 q-188 0 -290.5 -98.5t-147.5 -309.5q-23 -106 -23 -176zM485 1264q0 37 9 75h73q-8 -33 -8 -65q0 -68 42 -99.5t128 -31.5q94 0 160.5 49t87.5 147h84q-31 -139 -124 -204.5t-216 -65.5q-105 0 -170.5 47t-65.5 148zM516 1401l19 88q31 27 74.5 41t86.5 14q35 0 62.5 -9 t62.5 -28q37 -16 59.5 -24t51.5 -8q47 0 85 15t77 52l-21 -90q-27 -27 -67.5 -41t-87.5 -14q-56 0 -130 37q-37 16 -58 24t-46 8q-47 0 -88 -14t-80 -51z" />
<glyph unicode="&#x1ed8;" horiz-adv-x="1409" d="M141 424q0 109 27 229q76 354 253 520t486 166q240 0 357.5 -105.5t117.5 -324.5q0 -111 -30 -256q-72 -338 -249 -505.5t-487 -167.5q-475 0 -475 444zM250 418q0 -178 92 -260t295 -82q244 0 391.5 140t210.5 437q33 145 33 260q0 176 -92.5 252t-294.5 76 q-166 0 -284 -57.5t-197.5 -186.5t-124.5 -344q-29 -139 -29 -235zM498 -311l24 116h121l-25 -116h-120zM662 1427l272 277h98l156 -277h-98l-117 211l-207 -211h-104z" />
<glyph unicode="&#x1ed9;" horiz-adv-x="1153" d="M113 305q0 86 20 180q53 254 187.5 380t381.5 126q379 0 379 -332q0 -84 -20 -174q-53 -256 -187.5 -380.5t-386.5 -124.5q-192 0 -283 81.5t-91 243.5zM221 309q0 -121 66.5 -177t220.5 -56q190 0 292.5 98t147.5 311q23 102 23 170q0 123 -67.5 180.5t-221.5 57.5 q-188 0 -290.5 -98.5t-147.5 -309.5q-23 -106 -23 -176zM369 -311l24 116h121l-25 -116h-120zM457 1067l272 276h98l156 -276h-98l-117 211l-207 -211h-104z" />
<glyph unicode="&#x1eda;" horiz-adv-x="1533" d="M141 424q0 109 27 229q76 354 253 520t486 166q311 0 418 -180q125 2 185.5 55.5t91.5 194.5h98q-37 -172 -119 -250t-219 -90q20 -68 20 -162q0 -113 -30 -254q-72 -338 -249 -505.5t-487 -167.5q-475 0 -475 444zM250 418q0 -178 92 -260t295 -82q244 0 391.5 140 t210.5 437q33 145 33 260q0 176 -92.5 252t-294.5 76q-166 0 -284 -57.5t-197.5 -186.5t-124.5 -344q-29 -139 -29 -235zM899 1409l207 324h106l-221 -324h-92z" />
<glyph unicode="&#x1edb;" horiz-adv-x="1308" d="M113 305q0 86 20 180q53 254 187.5 380t381.5 126q256 0 338 -149q123 2 180.5 57t88.5 199h98q-37 -174 -118 -252t-218 -90q10 -51 10 -99q0 -82 -20 -172q-53 -256 -187.5 -380.5t-386.5 -124.5q-192 0 -283 81.5t-91 243.5zM221 309q0 -121 66.5 -177t220.5 -56 q190 0 292.5 98t147.5 311q23 102 23 170q0 123 -67.5 180.5t-221.5 57.5q-188 0 -290.5 -98.5t-147.5 -309.5q-23 -106 -23 -176zM696 1069l207 324h107l-222 -324h-92z" />
<glyph unicode="&#x1edc;" horiz-adv-x="1533" d="M141 424q0 109 27 229q76 354 253 520t486 166q311 0 418 -180q125 2 185.5 55.5t91.5 194.5h98q-37 -172 -119 -250t-219 -90q20 -68 20 -162q0 -113 -30 -254q-72 -338 -249 -505.5t-487 -167.5q-475 0 -475 444zM250 418q0 -178 92 -260t295 -82q244 0 391.5 140 t210.5 437q33 145 33 260q0 176 -92.5 252t-294.5 76q-166 0 -284 -57.5t-197.5 -186.5t-124.5 -344q-29 -139 -29 -235zM842 1733h106l68 -324h-92z" />
<glyph unicode="&#x1edd;" horiz-adv-x="1308" d="M113 305q0 86 20 180q53 254 187.5 380t381.5 126q256 0 338 -149q123 2 180.5 57t88.5 199h98q-37 -174 -118 -252t-218 -90q10 -51 10 -99q0 -82 -20 -172q-53 -256 -187.5 -380.5t-386.5 -124.5q-192 0 -283 81.5t-91 243.5zM221 309q0 -121 66.5 -177t220.5 -56 q190 0 292.5 98t147.5 311q23 102 23 170q0 123 -67.5 180.5t-221.5 57.5q-188 0 -290.5 -98.5t-147.5 -309.5q-23 -106 -23 -176zM633 1393h106l68 -324h-92z" />
<glyph unicode="&#x1ede;" horiz-adv-x="1533" d="M141 424q0 109 27 229q76 354 253 520t486 166q311 0 418 -180q125 2 185.5 55.5t91.5 194.5h98q-37 -172 -119 -250t-219 -90q20 -68 20 -162q0 -113 -30 -254q-72 -338 -249 -505.5t-487 -167.5q-475 0 -475 444zM250 418q0 -178 92 -260t295 -82q244 0 391.5 140 t210.5 437q33 145 33 260q0 176 -92.5 252t-294.5 76q-166 0 -284 -57.5t-197.5 -186.5t-124.5 -344q-29 -139 -29 -235zM856 1776l16 77q31 10 79 17.5t85 7.5q100 0 151.5 -35t51.5 -102q0 -29 -4 -43q-18 -84 -68.5 -128t-154.5 -54l-23 -107h-96l35 162q82 4 126 17.5 t63.5 37t27.5 66.5q4 20 4 28q0 80 -150 80q-33 0 -73.5 -7t-69.5 -17z" />
<glyph unicode="&#x1edf;" horiz-adv-x="1308" d="M113 305q0 86 20 180q53 254 187.5 380t381.5 126q256 0 338 -149q123 2 180.5 57t88.5 199h98q-37 -174 -118 -252t-218 -90q10 -51 10 -99q0 -82 -20 -172q-53 -256 -187.5 -380.5t-386.5 -124.5q-192 0 -283 81.5t-91 243.5zM221 309q0 -121 66.5 -177t220.5 -56 q190 0 292.5 98t147.5 311q23 102 23 170q0 123 -67.5 180.5t-221.5 57.5q-188 0 -290.5 -98.5t-147.5 -309.5q-23 -106 -23 -176zM633 1436l16 77q31 10 79 17.5t85 7.5q100 0 151.5 -35t51.5 -102q0 -29 -4 -43q-18 -84 -68.5 -128t-155.5 -54l-22 -107h-96l35 162 q82 4 125.5 17.5t63 37t28.5 66.5q4 20 4 28q0 80 -150 80q-33 0 -73.5 -7t-69.5 -17z" />
<glyph unicode="&#x1ee0;" horiz-adv-x="1533" d="M141 424q0 109 27 229q76 354 253 520t486 166q311 0 418 -180q125 2 185.5 55.5t91.5 194.5h98q-37 -172 -119 -250t-219 -90q20 -68 20 -162q0 -113 -30 -254q-72 -338 -249 -505.5t-487 -167.5q-475 0 -475 444zM250 418q0 -178 92 -260t295 -82q244 0 391.5 140 t210.5 437q33 145 33 260q0 176 -92.5 252t-294.5 76q-166 0 -284 -57.5t-197.5 -186.5t-124.5 -344q-29 -139 -29 -235zM680 1462l20 97q29 27 77 43t95 16q37 0 66 -9.5t70 -29.5q37 -18 62.5 -27.5t55.5 -9.5q98 0 164 72l-20 -96q-25 -29 -67 -44.5t-91 -15.5 q-35 0 -67.5 10.5t-73.5 30.5q-37 16 -62.5 25.5t-52.5 9.5q-104 0 -176 -72z" />
<glyph unicode="&#x1ee1;" horiz-adv-x="1308" d="M113 305q0 86 20 180q53 254 187.5 380t381.5 126q256 0 338 -149q123 2 180.5 57t88.5 199h98q-37 -174 -118 -252t-218 -90q10 -51 10 -99q0 -82 -20 -172q-53 -256 -187.5 -380.5t-386.5 -124.5q-192 0 -283 81.5t-91 243.5zM221 309q0 -121 66.5 -177t220.5 -56 q190 0 292.5 98t147.5 311q23 102 23 170q0 123 -67.5 180.5t-221.5 57.5q-188 0 -290.5 -98.5t-147.5 -309.5q-23 -106 -23 -176zM457 1122l20 97q29 27 77 43t95 16q37 0 65.5 -9t69.5 -30q37 -18 62.5 -27.5t56.5 -9.5q98 0 164 72l-20 -96q-25 -29 -67 -44.5t-91 -15.5 q-35 0 -68 10.5t-73 30.5q-37 16 -63 25.5t-52 9.5q-104 0 -176 -72z" />
<glyph unicode="&#x1ee2;" horiz-adv-x="1533" d="M141 424q0 109 27 229q76 354 253 520t486 166q311 0 418 -180q125 2 185.5 55.5t91.5 194.5h98q-37 -172 -119 -250t-219 -90q20 -68 20 -162q0 -113 -30 -254q-72 -338 -249 -505.5t-487 -167.5q-475 0 -475 444zM250 418q0 -178 92 -260t295 -82q244 0 391.5 140 t210.5 437q33 145 33 260q0 176 -92.5 252t-294.5 76q-166 0 -284 -57.5t-197.5 -186.5t-124.5 -344q-29 -139 -29 -235zM504 -311l24 116h121l-24 -116h-121z" />
<glyph unicode="&#x1ee3;" horiz-adv-x="1308" d="M113 305q0 86 20 180q53 254 187.5 380t381.5 126q256 0 338 -149q123 2 180.5 57t88.5 199h98q-37 -174 -118 -252t-218 -90q10 -51 10 -99q0 -82 -20 -172q-53 -256 -187.5 -380.5t-386.5 -124.5q-192 0 -283 81.5t-91 243.5zM221 309q0 -121 66.5 -177t220.5 -56 q190 0 292.5 98t147.5 311q23 102 23 170q0 123 -67.5 180.5t-221.5 57.5q-188 0 -290.5 -98.5t-147.5 -309.5q-23 -106 -23 -176zM387 -311l25 116h120l-24 -116h-121z" />
<glyph unicode="&#x1ee4;" horiz-adv-x="1357" d="M145 340q0 59 17 137l178 842h113l-181 -854q-14 -66 -14 -127q0 -133 87 -196.5t269 -63.5q199 0 331 94t173 293l180 854h113l-178 -842q-106 -498 -641 -497q-219 0 -333 94t-114 266zM471 -311l25 116h120l-24 -116h-121z" />
<glyph unicode="&#x1ee5;" horiz-adv-x="1144" d="M123 242q0 53 12 114l131 615h113l-131 -619q-12 -57 -12 -104q0 -94 57 -135t184 -41q98 0 191.5 37.5t173.5 103.5l159 758h113l-205 -971h-100l14 119q-92 -68 -192.5 -103.5t-220.5 -35.5q-140 0 -213.5 67.5t-73.5 194.5zM344 -311l25 116h120l-24 -116h-121z" />
<glyph unicode="&#x1ee6;" horiz-adv-x="1357" d="M145 340q0 59 17 137l178 842h113l-181 -854q-14 -66 -14 -127q0 -133 87 -196.5t269 -63.5q199 0 331 94t173 293l180 854h113l-178 -842q-106 -498 -641 -497q-219 0 -333 94t-114 266zM805 1776l16 77q31 10 79 17.5t85 7.5q100 0 151.5 -35t51.5 -102q0 -29 -4 -43 q-18 -84 -68.5 -128t-154.5 -54l-23 -107h-96l35 162q82 4 126 17.5t63 37t28 66.5q4 20 4 28q0 80 -150 80q-33 0 -73.5 -7t-69.5 -17z" />
<glyph unicode="&#x1ee7;" horiz-adv-x="1144" d="M123 242q0 53 12 114l131 615h113l-131 -619q-12 -57 -12 -104q0 -94 57 -135t184 -41q98 0 191.5 37.5t173.5 103.5l159 758h113l-205 -971h-100l14 119q-92 -68 -192.5 -103.5t-220.5 -35.5q-140 0 -213.5 67.5t-73.5 194.5zM621 1436l16 77q31 10 79 17.5t85 7.5 q100 0 151.5 -35t51.5 -102q0 -29 -5 -43q-18 -84 -68 -128t-155 -54l-22 -107h-97l35 162q82 4 126 17.5t63.5 37t27.5 66.5q4 20 4 28q0 80 -149 80q-33 0 -74 -7t-69 -17z" />
<glyph unicode="&#x1ee8;" horiz-adv-x="1607" d="M145 340q0 59 17 137l178 842h113l-181 -854q-14 -66 -14 -127q0 -133 87 -196.5t269 -63.5q199 0 331 94t173 293l180 854h113l-35 -164q127 0 187.5 54.5t91.5 199.5h98q-41 -190 -136 -267t-259 -79l-125 -586q-106 -498 -641 -497q-219 0 -333 94t-114 266zM868 1409 l207 324h107l-221 -324h-93z" />
<glyph unicode="&#x1ee9;" horiz-adv-x="1349" d="M123 242q0 53 12 114l131 615h113l-131 -619q-12 -57 -12 -104q0 -94 57 -135t184 -41q98 0 191.5 37.5t173.5 103.5l159 758h113l-29 -129q106 6 160.5 63.5t83.5 192.5h98q-37 -176 -127 -257t-233 -87l-158 -754h-100l14 119q-92 -68 -192.5 -103.5t-220.5 -35.5 q-140 0 -213.5 67.5t-73.5 194.5zM684 1069l207 324h106l-221 -324h-92z" />
<glyph unicode="&#x1eea;" horiz-adv-x="1607" d="M145 340q0 59 17 137l178 842h113l-181 -854q-14 -66 -14 -127q0 -133 87 -196.5t269 -63.5q199 0 331 94t173 293l180 854h113l-35 -164q127 0 187.5 54.5t91.5 199.5h98q-41 -190 -136 -267t-259 -79l-125 -586q-106 -498 -641 -497q-219 0 -333 94t-114 266zM788 1733 h107l68 -324h-93z" />
<glyph unicode="&#x1eeb;" horiz-adv-x="1349" d="M123 242q0 53 12 114l131 615h113l-131 -619q-12 -57 -12 -104q0 -94 57 -135t184 -41q98 0 191.5 37.5t173.5 103.5l159 758h113l-29 -129q106 6 160.5 63.5t83.5 192.5h98q-37 -176 -127 -257t-233 -87l-158 -754h-100l14 119q-92 -68 -192.5 -103.5t-220.5 -35.5 q-140 0 -213.5 67.5t-73.5 194.5zM616 1393h107l68 -324h-93z" />
<glyph unicode="&#x1eec;" horiz-adv-x="1607" d="M145 340q0 59 17 137l178 842h113l-181 -854q-14 -66 -14 -127q0 -133 87 -196.5t269 -63.5q199 0 331 94t173 293l180 854h113l-35 -164q127 0 187.5 54.5t91.5 199.5h98q-41 -190 -136 -267t-259 -79l-125 -586q-106 -498 -641 -497q-219 0 -333 94t-114 266zM825 1776 l17 77q31 10 79 17.5t85 7.5q100 0 151 -35t51 -102q0 -29 -4 -43q-18 -84 -68.5 -128t-154.5 -54l-23 -107h-96l35 162q82 4 126 17.5t63.5 37t27.5 66.5q4 20 4 28q0 80 -149 80q-33 0 -74 -7t-70 -17z" />
<glyph unicode="&#x1eed;" horiz-adv-x="1349" d="M123 242q0 53 12 114l131 615h113l-131 -619q-12 -57 -12 -104q0 -94 57 -135t184 -41q98 0 191.5 37.5t173.5 103.5l159 758h113l-29 -129q106 6 160.5 63.5t83.5 192.5h98q-37 -176 -127 -257t-233 -87l-158 -754h-100l14 119q-92 -68 -192.5 -103.5t-220.5 -35.5 q-140 0 -213.5 67.5t-73.5 194.5zM639 1436l16 77q31 10 79 17.5t85 7.5q100 0 151.5 -35t51.5 -102q0 -29 -4 -43q-18 -84 -68.5 -128t-154.5 -54l-23 -107h-96l35 162q82 4 126 17.5t63.5 37t27.5 66.5q4 20 4 28q0 80 -150 80q-33 0 -73.5 -7t-69.5 -17z" />
<glyph unicode="&#x1eee;" horiz-adv-x="1607" d="M145 340q0 59 17 137l178 842h113l-181 -854q-14 -66 -14 -127q0 -133 87 -196.5t269 -63.5q199 0 331 94t173 293l180 854h113l-35 -164q127 0 187.5 54.5t91.5 199.5h98q-41 -190 -136 -267t-259 -79l-125 -586q-106 -498 -641 -497q-219 0 -333 94t-114 266zM614 1462 l21 97q29 27 77 43t95 16q37 0 65.5 -9.5t69.5 -29.5q37 -18 62.5 -27.5t56.5 -9.5q98 0 164 72l-21 -96q-25 -29 -66.5 -44.5t-90.5 -15.5q-35 0 -68 10.5t-74 30.5q-37 16 -62.5 25.5t-51.5 9.5q-104 0 -177 -72z" />
<glyph unicode="&#x1eef;" horiz-adv-x="1349" d="M123 242q0 53 12 114l131 615h113l-131 -619q-12 -57 -12 -104q0 -94 57 -135t184 -41q98 0 191.5 37.5t173.5 103.5l159 758h113l-29 -129q106 6 160.5 63.5t83.5 192.5h98q-37 -176 -127 -257t-233 -87l-158 -754h-100l14 119q-92 -68 -192.5 -103.5t-220.5 -35.5 q-140 0 -213.5 67.5t-73.5 194.5zM459 1122l20 97q29 27 77 43t95 16q37 0 65.5 -9t69.5 -30q37 -18 62.5 -27.5t56.5 -9.5q98 0 164 72l-20 -96q-25 -29 -67 -44.5t-91 -15.5q-35 0 -67.5 10.5t-73.5 30.5q-37 16 -62.5 25.5t-52.5 9.5q-104 0 -176 -72z" />
<glyph unicode="&#x1ef0;" horiz-adv-x="1607" d="M145 340q0 59 17 137l178 842h113l-181 -854q-14 -66 -14 -127q0 -133 87 -196.5t269 -63.5q199 0 331 94t173 293l180 854h113l-35 -164q127 0 187.5 54.5t91.5 199.5h98q-41 -190 -136 -267t-259 -79l-125 -586q-106 -498 -641 -497q-219 0 -333 94t-114 266zM465 -311 l24 116h121l-24 -116h-121z" />
<glyph unicode="&#x1ef1;" horiz-adv-x="1349" d="M123 242q0 53 12 114l131 615h113l-131 -619q-12 -57 -12 -104q0 -94 57 -135t184 -41q98 0 191.5 37.5t173.5 103.5l159 758h113l-29 -129q106 6 160.5 63.5t83.5 192.5h98q-37 -176 -127 -257t-233 -87l-158 -754h-100l14 119q-92 -68 -192.5 -103.5t-220.5 -35.5 q-140 0 -213.5 67.5t-73.5 194.5zM356 -311l25 116h121l-25 -116h-121z" />
<glyph unicode="&#x1ef2;" horiz-adv-x="1277" d="M309 1319h111l256 -727l563 727h123l-645 -825l-105 -494h-112l104 494zM756 1733h106l68 -324h-92z" />
<glyph unicode="&#x1ef3;" horiz-adv-x="1159" d="M123 242q0 53 12 114l131 615h113l-131 -619q-12 -57 -12 -104q0 -94 57 -135t184 -41q98 0 191.5 37.5t173.5 103.5l159 758h113l-207 -977q-23 -106 -102.5 -186t-196 -124t-246.5 -44q-55 0 -124.5 6t-104.5 14l21 98q39 -12 99 -18t109 -6q168 0 286 64.5t147 185.5 l28 135q-92 -68 -192.5 -103.5t-220.5 -35.5q-139 0 -213 67.5t-74 194.5zM629 1393h106l68 -324h-92z" />
<glyph unicode="&#x1ef4;" horiz-adv-x="1277" d="M309 1319h111l256 -727l563 727h123l-645 -825l-105 -494h-112l104 494zM438 -276l25 116h121l-25 -116h-121z" />
<glyph unicode="&#x1ef5;" horiz-adv-x="1159" d="M123 242q0 53 12 114l131 615h113l-131 -619q-12 -57 -12 -104q0 -94 57 -135t184 -41q98 0 191.5 37.5t173.5 103.5l159 758h113l-207 -977q-23 -106 -102.5 -186t-196 -124t-246.5 -44q-55 0 -124.5 6t-104.5 14l21 98q39 -12 99 -18t109 -6q168 0 286 64.5t147 185.5 l28 135q-92 -68 -192.5 -103.5t-220.5 -35.5q-139 0 -213 67.5t-74 194.5zM897 -276l25 116h120l-24 -116h-121z" />
<glyph unicode="&#x1ef6;" horiz-adv-x="1277" d="M309 1319h111l256 -727l563 727h123l-645 -825l-105 -494h-112l104 494zM748 1776l16 77q31 10 79 17.5t85 7.5q100 0 151 -35t51 -102q0 -29 -4 -43q-18 -84 -68 -128t-155 -54l-22 -107h-97l35 162q82 4 126 17.5t63.5 37t27.5 66.5q4 20 4 28q0 80 -149 80 q-33 0 -74 -7t-69 -17z" />
<glyph unicode="&#x1ef7;" horiz-adv-x="1159" d="M123 242q0 53 12 114l131 615h113l-131 -619q-12 -57 -12 -104q0 -94 57 -135t184 -41q98 0 191.5 37.5t173.5 103.5l159 758h113l-207 -977q-23 -106 -102.5 -186t-196 -124t-246.5 -44q-55 0 -124.5 6t-104.5 14l21 98q39 -12 99 -18t109 -6q168 0 286 64.5t147 185.5 l28 135q-92 -68 -192.5 -103.5t-220.5 -35.5q-139 0 -213 67.5t-74 194.5zM657 1436l17 77q31 10 79 17.5t85 7.5q100 0 151 -35t51 -102q0 -29 -4 -43q-18 -84 -68 -128t-155 -54l-22 -107h-97l35 162q82 4 126 17.5t63.5 37t27.5 66.5q4 20 4 28q0 80 -149 80 q-33 0 -74 -7t-70 -17z" />
<glyph unicode="&#x1ef8;" horiz-adv-x="1277" d="M309 1319h111l256 -727l563 727h123l-645 -825l-105 -494h-112l104 494zM580 1464l20 97q29 27 77 43t95 16q37 0 65.5 -9t69.5 -30q37 -18 62.5 -27.5t56.5 -9.5q98 0 164 72l-21 -96q-25 -29 -66.5 -44.5t-90.5 -15.5q-35 0 -68 10.5t-74 30.5q-37 16 -62.5 25.5 t-51.5 9.5q-104 0 -176 -72z" />
<glyph unicode="&#x1ef9;" horiz-adv-x="1159" d="M123 242q0 53 12 114l131 615h113l-131 -619q-12 -57 -12 -104q0 -94 57 -135t184 -41q98 0 191.5 37.5t173.5 103.5l159 758h113l-207 -977q-23 -106 -102.5 -186t-196 -124t-246.5 -44q-55 0 -124.5 6t-104.5 14l21 98q39 -12 99 -18t109 -6q168 0 286 64.5t147 185.5 l28 135q-92 -68 -192.5 -103.5t-220.5 -35.5q-139 0 -213 67.5t-74 194.5zM463 1124l20 97q29 27 77 43t95 16q37 0 66 -9t70 -30q37 -18 62.5 -27.5t55.5 -9.5q98 0 164 72l-20 -96q-25 -29 -67 -44.5t-91 -15.5q-35 0 -67.5 10.5t-73.5 30.5q-37 16 -62.5 25.5t-52.5 9.5 q-104 0 -176 -72z" />
<glyph unicode="&#x2000;" horiz-adv-x="1033" />
<glyph unicode="&#x2001;" horiz-adv-x="2066" />
<glyph unicode="&#x2002;" horiz-adv-x="1033" />
<glyph unicode="&#x2003;" horiz-adv-x="2066" />
<glyph unicode="&#x2004;" horiz-adv-x="688" />
<glyph unicode="&#x2005;" horiz-adv-x="516" />
<glyph unicode="&#x2006;" horiz-adv-x="344" />
<glyph unicode="&#x2007;" />
<glyph unicode="&#x2008;" horiz-adv-x="258" />
<glyph unicode="&#x2009;" horiz-adv-x="413" />
<glyph unicode="&#x200a;" horiz-adv-x="114" />
<glyph unicode="&#x2010;" horiz-adv-x="1050" d="M131 481l21 92h825l-21 -92h-825z" />
<glyph unicode="&#x2011;" horiz-adv-x="987" d="M131 481l21 92h761l-20 -92h-762z" />
<glyph unicode="&#x2012;" horiz-adv-x="1269" d="M131 481l21 92h1044l-20 -92h-1045z" />
<glyph unicode="&#x2013;" horiz-adv-x="1210" d="M131 481l21 92h985l-21 -92h-985z" />
<glyph unicode="&#x2014;" horiz-adv-x="1828" d="M131 481l21 92h1603l-20 -92h-1604z" />
<glyph unicode="&#x2015;" horiz-adv-x="1927" d="M131 481l21 92h1701l-20 -92h-1702z" />
<glyph unicode="&#x2018;" horiz-adv-x="430" d="M240 989l194 350h86l-170 -350h-110z" />
<glyph unicode="&#x2019;" horiz-adv-x="430" d="M240 989l170 350h110l-194 -350h-86z" />
<glyph unicode="&#x201a;" horiz-adv-x="430" d="M-31 -283l170 351h111l-195 -351h-86z" />
<glyph unicode="&#x201c;" horiz-adv-x="681" d="M240 989l194 350h80l-170 -350h-104zM498 989l194 350h80l-170 -350h-104z" />
<glyph unicode="&#x201d;" horiz-adv-x="681" d="M240 989l170 350h104l-195 -350h-79zM498 989l170 350h104l-194 -350h-80z" />
<glyph unicode="&#x201e;" horiz-adv-x="681" d="M-25 -252l170 350h105l-195 -350h-80zM233 -252l170 350h105l-195 -350h-80z" />
<glyph unicode="&#x2020;" horiz-adv-x="1130" d="M223 909l19 92l403 -4l86 437h113l-99 -437l402 4l-19 -92l-401 4l-186 -913h-113l199 913z" />
<glyph unicode="&#x2021;" horiz-adv-x="1130" d="M119 420l20 92l402 -4l39 209l49 207l-404 -2l21 90l401 -4l84 426h113l-96 -426l403 4l-21 -90l-401 2l-37 -207l-51 -209l403 4l-20 -92l-401 4l-82 -424h-113l94 424z" />
<glyph unicode="&#x2022;" horiz-adv-x="698" d="M150 537q0 76 41.5 142t109.5 106t139 40q86 0 139.5 -54t53.5 -136q0 -76 -42 -140.5t-109.5 -103.5t-141.5 -39q-84 0 -137 51.5t-53 133.5z" />
<glyph unicode="&#x2026;" horiz-adv-x="1103" d="M31 0l20 102h107l-21 -102h-106zM416 0l20 102h107l-21 -102h-106zM803 0l20 102h107l-21 -102h-106z" />
<glyph unicode="&#x202f;" horiz-adv-x="413" />
<glyph unicode="&#x2030;" horiz-adv-x="2048" d="M221 0l983 1319h107l-983 -1319h-107zM242 961q0 41 8 75q63 303 340 303q104 0 160.5 -56t56.5 -157q0 -35 -10 -90q-29 -131 -110 -204.5t-222 -73.5q-111 0 -167 54t-56 149zM328 965q0 -61 35.5 -93t119.5 -32q92 0 149.5 51t78.5 145q10 43 10 90q0 68 -36 98.5 t-114 30.5q-94 0 -152.5 -53t-82.5 -166q-8 -35 -8 -71zM725 182q0 41 8 76q63 303 340 303q104 0 160.5 -56t56.5 -157q0 -35 -10 -90q-29 -131 -109.5 -204.5t-222.5 -73.5q-110 0 -166.5 54t-56.5 148zM811 186q0 -61 36 -93t120 -32q92 0 149.5 51.5t77.5 145.5 q10 43 10 90q0 68 -35.5 98.5t-113.5 30.5q-94 0 -152.5 -53t-83.5 -166q-8 -35 -8 -72zM1350 182q0 41 8 76q63 303 340 303q104 0 160.5 -56t56.5 -157q0 -35 -10 -90q-29 -131 -110 -204.5t-222 -73.5q-111 0 -167 54t-56 148zM1436 186q0 -61 35.5 -93t119.5 -32 q92 0 149.5 51.5t78.5 145.5q10 43 10 90q0 68 -36 98.5t-114 30.5q-94 0 -152.5 -53t-82.5 -166q-8 -35 -8 -72z" />
<glyph unicode="&#x2032;" horiz-adv-x="333" d="M238 981l71 338h109l-96 -338h-84z" />
<glyph unicode="&#x2033;" horiz-adv-x="608" d="M238 981l71 338h109l-96 -338h-84zM512 981l72 338h108l-96 -338h-84z" />
<glyph unicode="&#x2039;" horiz-adv-x="784" d="M147 555l15 66l592 376l32 -75l-526 -340l381 -340l-61 -64z" />
<glyph unicode="&#x203a;" horiz-adv-x="784" d="M82 254l528 340l-383 340l62 63l432 -376l-14 -66l-592 -377z" />
<glyph unicode="&#x2044;" horiz-adv-x="243" d="M-338 0l932 1356h111l-930 -1356h-113z" />
<glyph unicode="&#x205f;" horiz-adv-x="516" />
<glyph unicode="&#x2070;" horiz-adv-x="720" d="M238 932q0 53 10 94q33 152 108.5 232.5t206.5 80.5q102 0 148.5 -48t46.5 -140q0 -61 -15 -125q-29 -133 -106.5 -209t-202.5 -76q-100 0 -148 50.5t-48 140.5zM322 940q0 -129 129 -129q90 0 138 56.5t70 158.5q14 63 15 117q0 63 -29 94t-98 31q-92 0 -140.5 -59.5 t-74.5 -182.5q-10 -51 -10 -86z" />
<glyph unicode="&#x2074;" horiz-adv-x="606" d="M176 885l17 69l380 385h101l-84 -387h63l-14 -67h-64l-26 -127h-82l27 127h-318zM270 952h250l70 324z" />
<glyph unicode="&#x2075;" horiz-adv-x="614" d="M193 762l14 74q51 -25 137 -25q84 0 127 24.5t57 86.5q4 29 4 36q0 37 -27.5 52.5t-92.5 15.5h-164l14 68l62 225h331l-20 -72h-254l-41 -155h111q170 0 170 -119q0 -25 -7 -53q-18 -84 -88.5 -131.5t-189.5 -47.5q-41 0 -82 6.5t-61 14.5z" />
<glyph unicode="&#x2076;" horiz-adv-x="657" d="M225 889q0 35 8 69l31 142q25 115 101.5 177t189.5 62q74 0 133 -18l-16 -70q-49 16 -129 17q-84 0 -134.5 -40t-66.5 -116l-10 -49q80 55 170 55q88 0 127 -30.5t39 -92.5q0 -31 -9 -63q-18 -90 -81.5 -140.5t-169.5 -50.5q-183 1 -183 148zM299 895q0 -45 29.5 -65.5 t93.5 -20.5q72 0 107.5 28.5t50.5 94.5q6 29 6 51q0 37 -24.5 53.5t-86.5 16.5q-74 0 -158 -56l-12 -57q-6 -25 -6 -45z" />
<glyph unicode="&#x2077;" horiz-adv-x="585" d="M274 1243l15 76h401l-16 -78l-307 -483h-91l310 485h-312z" />
<glyph unicode="&#x2078;" horiz-adv-x="669" d="M217 866q0 8 4 33q10 55 44 90t95 58q-37 16 -52 39.5t-15 58.5q0 82 68.5 138t177.5 56q84 0 129 -32.5t45 -89.5q0 -8 -4 -33q-10 -51 -38 -85t-91 -61q47 -16 68.5 -40.5t21.5 -59.5q0 -92 -73 -144.5t-187 -52.5q-91 0 -142 33t-51 92zM301 879q0 -76 123 -76 q76 0 121 31.5t45 93.5q0 29 -21.5 46t-68.5 27l-64 15q-61 -16 -92 -41t-41 -74q-2 -8 -2 -22zM373 1151q0 -53 65 -68l66 -14q65 21 89.5 42.5t35.5 72.5q2 8 2 22q0 35 -28 52.5t-79 17.5q-70 0 -110.5 -32t-40.5 -93z" />
<glyph unicode="&#x2079;" horiz-adv-x="657" d="M244 760l16 69q47 -18 131 -18q166 0 199 158l10 47q-84 -55 -170 -55t-125 30.5t-39 91.5q0 33 8 66q18 90 82 140t170 50q182 0 183 -147q0 -37 -9 -72l-30 -141q-25 -113 -103 -175.5t-190 -62.5q-74 1 -133 19zM348 1098q0 -37 24.5 -53.5t86.5 -16.5q75 0 155 55 l13 58q4 16 4 43q0 45 -29 66.5t-90 21.5q-74 0 -109.5 -30t-48.5 -93q-6 -31 -6 -51z" />
<glyph unicode="&#x207d;" horiz-adv-x="436" d="M240 928q0 57 14 125q18 88 67.5 181t116.5 150h97q-78 -66 -127.5 -152.5t-69.5 -178.5q-14 -68 -14 -117q0 -131 69 -215h-96q-29 37 -43 91t-14 116z" />
<glyph unicode="&#x207e;" horiz-adv-x="436" d="M182 721q78 63 128 150t71 182q12 55 12 110q0 135 -69 221h96q57 -74 57 -213q0 -63 -12 -118q-20 -90 -69.5 -183.5t-116.5 -148.5h-97z" />
<glyph unicode="&#x207f;" horiz-adv-x="743" d="M209 791l113 536h77l-10 -65q53 37 110.5 56t127.5 19q172 0 172 -137q0 -25 -6 -53l-76 -356h-84l69 333q8 45 9 60q0 45 -29 64.5t-98 19.5q-55 0 -108.5 -21.5t-98.5 -58.5l-84 -397h-84z" />
<glyph unicode="&#x2080;" horiz-adv-x="720" d="M25 -72q0 53 10 95q33 152 107.5 232.5t205.5 80.5q197 0 197 -191q0 -59 -15 -122q-29 -133 -106.5 -209t-202.5 -76q-100 0 -148 50t-48 140zM109 -63q0 -129 129 -130q90 0 138 56.5t70 159.5q14 63 15 116q0 63 -29 94t-98 31q-92 0 -140.5 -59.5t-74.5 -181.5 q-10 -51 -10 -86z" />
<glyph unicode="&#x2081;" horiz-adv-x="421" d="M76 219l14 70l248 47l-123 -582h-82l107 500z" />
<glyph unicode="&#x2082;" horiz-adv-x="606" d="M-23 -246l13 53q33 49 80 89.5t125 93.5q88 61 119.5 96t41.5 82q4 20 4 29q0 68 -108 67q-72 0 -152 -24l17 69q31 10 78 18.5t88 8.5q80 0 120.5 -35t40.5 -94q0 -10 -4 -39q-12 -59 -48 -99t-124 -104q-33 -25 -49 -35q-47 -35 -72.5 -55t-48.5 -51h275l-15 -70h-381z " />
</font>
</defs>
</svg>
